SplineFontDB: 3.0
FontName: Monofur
FullName: monofur
FamilyName: monofur
Weight: Book
Copyright: monofur (c) 2000 tobias b ko:hler (unci@tigerden.com)
Version: 1.0 2000-03-28
ItalicAngle: 0
UnderlinePosition: -300
UnderlineWidth: 150
Ascent: 1920
Descent: 480
InvalidEm: 0
sfntRevision: 0x00010000
LayerCount: 2
Layer: 0 1 "Back" 1
Layer: 1 1 "Fore" 0
XUID: [1021 556 844986517 6907]
StyleMap: 0x0040
FSType: 0
OS2Version: 0
OS2_WeightWidthSlopeOnly: 0
OS2_UseTypoMetrics: 0
CreationTime: 957547416
ModificationTime: 1553219773
PfmFamily: 17
TTFWeight: 400
TTFWidth: 5
LineGap: 0
VLineGap: 0
Panose: 2 15 4 9 2 2 3 2 2 4
OS2TypoAscent: 1952
OS2TypoAOffset: 0
OS2TypoDescent: -452
OS2TypoDOffset: 0
OS2TypoLinegap: 0
OS2WinAscent: 1952
OS2WinAOffset: 0
OS2WinDescent: 452
OS2WinDOffset: 0
HheadAscent: 1952
HheadAOffset: 0
HheadDescent: -452
HheadDOffset: 0
OS2SubXSize: 1680
OS2SubYSize: 1560
OS2SubXOff: 0
OS2SubYOff: 343
OS2SupXSize: 1680
OS2SupYSize: 1560
OS2SupXOff: 0
OS2SupYOff: 1088
OS2StrikeYSize: 120
OS2StrikeYPos: 621
OS2Vendor: 'unci'
OS2UnicodeRanges: 00000000.00000000.00000000.00000000
DEI: 91125
TtTable: prep
NPUSHB
 51
 28
 28
 27
 27
 26
 26
 25
 25
 24
 24
 23
 23
 22
 22
 21
 21
 20
 20
 19
 19
 18
 18
 17
 17
 16
 16
 15
 15
 14
 14
 13
 13
 12
 12
 11
 11
 10
 10
 9
 9
 8
 8
 3
 3
 2
 2
 1
 1
 0
 0
 1
SCANTYPE
PUSHW_1
 511
SCANCTRL
RCVT
ROUND[Grey]
WCVTP
RCVT
ROUND[Grey]
WCVTP
RCVT
ROUND[Grey]
WCVTP
RCVT
ROUND[Grey]
WCVTP
RCVT
ROUND[Grey]
WCVTP
RCVT
ROUND[Grey]
WCVTP
RCVT
ROUND[Grey]
WCVTP
RCVT
ROUND[Grey]
WCVTP
RCVT
ROUND[Grey]
WCVTP
RCVT
ROUND[Grey]
WCVTP
RCVT
ROUND[Grey]
WCVTP
RCVT
ROUND[Grey]
WCVTP
RCVT
ROUND[Grey]
WCVTP
RCVT
ROUND[Grey]
WCVTP
RCVT
ROUND[Grey]
WCVTP
RCVT
ROUND[Grey]
WCVTP
RCVT
ROUND[Grey]
WCVTP
RCVT
ROUND[Grey]
WCVTP
RCVT
ROUND[Grey]
WCVTP
RCVT
ROUND[Grey]
WCVTP
RCVT
ROUND[Grey]
WCVTP
RCVT
ROUND[Grey]
WCVTP
RCVT
ROUND[Grey]
WCVTP
RCVT
ROUND[Grey]
WCVTP
RCVT
ROUND[Grey]
WCVTP
PUSHB_4
 5
 4
 70
 0
CALL
PUSHB_4
 7
 6
 70
 0
CALL
PUSHB_2
 4

StartChar: .notdef
Encoding: 65536 -1 0
Width: 1200
Flags: W
LayerCount: 2
Fore
SplineSet
150 0 m 1,0,-1
 150 1950 l 1,1,-1
 1050 1950 l 1,2,-1
 1050 0 l 1,3,-1
 150 0 l 1,0,-1
300 150 m 1,4,-1
 900 150 l 1,5,-1
 900 1800 l 1,6,-1
 300 1800 l 1,7,-1
 300 150 l 1,4,-1
EndSplineSet
Validated: 1
EndChar

StartChar: exclam
Encoding: 33 33 4
Width: 1200
Flags: W
LayerCount: 2
Fore
SplineSet
675 450 m 2,0,1
 675 375 675 375 600 375 c 256,2,3
 525 375 525 375 525 450 c 2,4,-1
 525 1425 l 2,5,6
 525 1500 525 1500 600 1500 c 256,7,8
 675 1500 675 1500 675 1425 c 2,9,-1
 675 450 l 2,0,1
714 114 m 256,10,11
 714 67 714 67 680.5 33.5 c 128,-1,12
 647 0 647 0 600 0 c 256,13,14
 553 0 553 0 519.5 33.5 c 128,-1,15
 486 67 486 67 486 114 c 256,16,17
 486 161 486 161 519.5 193 c 128,-1,18
 553 225 553 225 600 225 c 256,19,20
 647 225 647 225 680.5 193 c 128,-1,21
 714 161 714 161 714 114 c 256,10,11
EndSplineSet
Validated: 1
EndChar

StartChar: quotedbl
Encoding: 34 34 5
Width: 1200
Flags: W
LayerCount: 2
Fore
SplineSet
938 1428 m 0,0,1
 938 1413 938 1413 932 1397 c 2,2,-1
 782 1022 l 2,3,4
 763 974 763 974 715 974 c 0,5,6
 684 974 684 974 660.5 995.5 c 128,-1,7
 637 1017 637 1017 637 1047 c 0,8,9
 637 1062 637 1062 643 1078 c 2,10,-1
 793 1453 l 2,11,12
 812 1501 812 1501 860 1501 c 0,13,14
 891 1501 891 1501 914.5 1479.5 c 128,-1,15
 938 1458 938 1458 938 1428 c 0,0,1
563 1428 m 0,16,17
 563 1413 563 1413 557 1397 c 2,18,-1
 407 1022 l 2,19,20
 388 974 388 974 340 974 c 0,21,22
 309 974 309 974 285.5 995.5 c 128,-1,23
 262 1017 262 1017 262 1047 c 0,24,25
 262 1062 262 1062 268 1078 c 2,26,-1
 418 1453 l 2,27,28
 437 1501 437 1501 485 1501 c 0,29,30
 516 1501 516 1501 539.5 1479.5 c 128,-1,31
 563 1458 563 1458 563 1428 c 0,16,17
EndSplineSet
Validated: 1
EndChar

StartChar: numbersign
Encoding: 35 35 6
Width: 1200
Flags: W
LayerCount: 2
Fore
SplineSet
1125 375 m 256,0,1
 1125 300 1125 300 1050 300 c 2,2,-1
 925 300 l 1,3,-1
 925 75 l 2,4,5
 925 0 925 0 850 0 c 256,6,7
 775 0 775 0 775 75 c 2,8,-1
 775 300 l 1,9,-1
 425 300 l 1,10,-1
 425 75 l 2,11,12
 425 0 425 0 350 0 c 256,13,14
 275 0 275 0 275 75 c 2,15,-1
 275 300 l 1,16,-1
 150 300 l 2,17,18
 75 300 75 300 75 375 c 256,19,20
 75 450 75 450 150 450 c 2,21,-1
 275 450 l 1,22,-1
 275 1050 l 1,23,-1
 150 1050 l 2,24,25
 75 1050 75 1050 75 1125 c 256,26,27
 75 1200 75 1200 150 1200 c 2,28,-1
 275 1200 l 1,29,-1
 275 1425 l 2,30,31
 275 1500 275 1500 350 1500 c 256,32,33
 425 1500 425 1500 425 1425 c 2,34,-1
 425 1200 l 1,35,-1
 775 1200 l 1,36,-1
 775 1425 l 2,37,38
 775 1500 775 1500 850 1500 c 256,39,40
 925 1500 925 1500 925 1425 c 2,41,-1
 925 1200 l 1,42,-1
 1050 1200 l 2,43,44
 1125 1200 1125 1200 1125 1125 c 256,45,46
 1125 1050 1125 1050 1050 1050 c 2,47,-1
 925 1050 l 1,48,-1
 925 450 l 1,49,-1
 1050 450 l 2,50,51
 1125 450 1125 450 1125 375 c 256,0,1
775 450 m 1,52,-1
 775 1050 l 1,53,-1
 425 1050 l 1,54,-1
 425 450 l 1,55,-1
 775 450 l 1,52,-1
EndSplineSet
Validated: 1
EndChar

StartChar: dollar
Encoding: 36 36 7
Width: 1200
Flags: W
LayerCount: 2
Fore
SplineSet
1125 450 m 256,0,1
 1125 266 1125 266 972 140 c 0,2,3
 836 27 836 27 643 4 c 1,4,-1
 643 -225 l 2,5,6
 643 -300 643 -300 568 -300 c 256,7,8
 493 -300 493 -300 493 -225 c 2,9,-1
 493 4 l 1,10,11
 375 18 375 18 268 70 c 0,12,13
 146 130 146 130 90 218 c 0,14,15
 74 244 74 244 74 264 c 0,16,17
 74 294 74 294 97.5 316.5 c 128,-1,18
 121 339 121 339 152 339 c 0,19,20
 180 339 180 339 209 310 c 0,21,22
 232 285 232 285 254 260 c 0,23,24
 345 175 345 175 493 155 c 1,25,-1
 493 755 l 1,26,27
 337 778 337 778 228 871 c 0,28,29
 107 975 107 975 107 1125 c 256,30,31
 107 1275 107 1275 228 1379 c 0,32,33
 337 1472 337 1472 493 1495 c 1,34,-1
 493 1725 l 2,35,36
 493 1800 493 1800 568 1800 c 256,37,38
 643 1800 643 1800 643 1725 c 2,39,-1
 643 1495 l 1,40,41
 868 1464 868 1464 961 1321 c 0,42,43
 978 1296 978 1296 978 1275 c 0,44,45
 978 1245 978 1245 954 1222.5 c 128,-1,46
 930 1200 930 1200 900 1200 c 0,47,48
 873 1200 873 1200 841 1231 c 0,49,50
 745 1326 745 1326 643 1344 c 1,51,-1
 643 896 l 1,52,53
 836 873 836 873 972 760 c 0,54,55
 1125 634 1125 634 1125 450 c 256,0,1
493 908 m 1,56,-1
 493 1342 l 1,57,58
 399 1324 399 1324 334 1273 c 0,59,60
 257 1212 257 1212 257 1125 c 256,61,62
 257 1038 257 1038 334 977 c 0,63,64
 399 926 399 926 493 908 c 1,56,-1
975 450 m 256,65,66
 975 571 975 571 866 654 c 0,67,68
 774 724 774 724 643 744 c 1,69,-1
 643 156 l 1,70,71
 774 176 774 176 866 246 c 0,72,73
 975 329 975 329 975 450 c 256,65,66
EndSplineSet
Validated: 1
EndChar

StartChar: percent
Encoding: 37 37 8
Width: 1200
Flags: W
LayerCount: 2
Fore
SplineSet
625 1125 m 256,0,1
 625 987 625 987 558 878 c 0,2,3
 479 750 479 750 350 750 c 256,4,5
 221 750 221 750 142 878 c 0,6,7
 75 987 75 987 75 1125 c 256,8,9
 75 1263 75 1263 142 1372 c 0,10,11
 221 1500 221 1500 350 1500 c 256,12,13
 479 1500 479 1500 558 1372 c 0,14,15
 625 1263 625 1263 625 1125 c 256,0,1
1126 1426 m 0,16,17
 1126 1404 1126 1404 1112 1383 c 2,18,-1
 212 33 l 2,19,20
 189 -1 189 -1 152 -1 c 0,21,22
 122 -1 122 -1 98 21.5 c 128,-1,23
 74 44 74 44 74 74 c 0,24,25
 74 96 74 96 88 117 c 2,26,-1
 988 1467 l 2,27,28
 1011 1501 1011 1501 1048 1501 c 0,29,30
 1078 1501 1078 1501 1102 1478.5 c 128,-1,31
 1126 1456 1126 1456 1126 1426 c 0,16,17
1125 375 m 256,32,33
 1125 237 1125 237 1058 128 c 0,34,35
 979 0 979 0 850 0 c 256,36,37
 721 0 721 0 642 128 c 0,38,39
 575 237 575 237 575 375 c 256,40,41
 575 513 575 513 642 622 c 0,42,43
 721 750 721 750 850 750 c 256,44,45
 979 750 979 750 1058 622 c 0,46,47
 1125 513 1125 513 1125 375 c 256,32,33
475 1125 m 256,48,49
 475 1276 475 1276 391 1335 c 0,50,51
 369 1350 369 1350 350 1350 c 0,52,53
 327 1350 327 1350 301 1329 c 0,54,55
 225 1267 225 1267 225 1125 c 256,56,57
 225 983 225 983 301 921 c 0,58,59
 327 900 327 900 350 900 c 0,60,61
 369 900 369 900 391 915 c 0,62,63
 475 974 475 974 475 1125 c 256,48,49
975 375 m 256,64,65
 975 517 975 517 899 579 c 0,66,67
 873 600 873 600 850 600 c 0,68,69
 831 600 831 600 809 585 c 0,70,71
 725 526 725 526 725 375 c 256,72,73
 725 224 725 224 809 165 c 0,74,75
 831 150 831 150 850 150 c 0,76,77
 873 150 873 150 899 171 c 0,78,79
 975 233 975 233 975 375 c 256,64,65
EndSplineSet
Validated: 1
EndChar

StartChar: ampersand
Encoding: 38 38 9
Width: 1200
Flags: W
LayerCount: 2
Fore
SplineSet
1126 75 m 0,0,1
 1126 45 1126 45 1102.5 22 c 128,-1,2
 1079 -1 1079 -1 1049 -1 c 0,3,4
 1018 -1 1018 -1 994 25 c 2,5,-1
 833 204 l 1,6,7
 711 0 711 0 488 0 c 0,8,9
 310 0 310 0 190 138 c 0,10,11
 75 270 75 270 75 450 c 0,12,13
 75 699 75 699 269 832 c 1,14,15
 143 972 143 972 143 1125 c 0,16,17
 143 1275 143 1275 239 1385 c 0,18,19
 340 1500 340 1500 488 1500 c 0,20,21
 635 1500 635 1500 736 1385 c 0,22,23
 832 1275 832 1275 832 1125 c 0,24,25
 832 991 832 991 753 885 c 0,26,27
 670 775 670 775 540 754 c 1,28,-1
 1106 125 l 2,29,30
 1126 102 1126 102 1126 75 c 0,0,1
682 1125 m 256,31,32
 682 1212 682 1212 630 1279 c 0,33,34
 573 1350 573 1350 488 1350 c 0,35,36
 402 1350 402 1350 345 1279 c 0,37,38
 293 1212 293 1212 293 1125 c 0,39,40
 293 1053 293 1053 328 996 c 0,41,42
 345 971 345 971 415 893 c 1,43,44
 451 900 451 900 488 900 c 0,45,46
 573 900 573 900 630 971 c 0,47,48
 682 1038 682 1038 682 1125 c 256,31,32
726 324 m 1,49,-1
 371 718 l 1,50,51
 225 635 225 635 225 450 c 0,52,53
 225 333 225 333 297 245 c 0,54,55
 373 150 373 150 488 150 c 0,56,57
 655 150 655 150 726 324 c 1,49,-1
EndSplineSet
Validated: 1
EndChar

StartChar: quotesingle
Encoding: 39 39 10
Width: 1200
Flags: W
LayerCount: 2
Fore
SplineSet
751 1428 m 0,0,1
 751 1413 751 1413 745 1397 c 2,2,-1
 595 1022 l 2,3,4
 576 974 576 974 527 974 c 0,5,6
 497 974 497 974 473 995.5 c 128,-1,7
 449 1017 449 1017 449 1047 c 0,8,9
 449 1062 449 1062 455 1078 c 2,10,-1
 605 1453 l 2,11,12
 624 1501 624 1501 673 1501 c 0,13,14
 703 1501 703 1501 727 1479.5 c 128,-1,15
 751 1458 751 1458 751 1428 c 0,0,1
EndSplineSet
Validated: 1
EndChar

StartChar: parenleft
Encoding: 40 40 11
Width: 1200
Flags: W
LayerCount: 2
Fore
SplineSet
796 1426 m 0,0,1
 796 1409 796 1409 785 1387 c 0,2,3
 665 1150 665 1150 614 971 c 0,4,5
 555 763 555 763 555 525 c 256,6,7
 555 287 555 287 614 79 c 0,8,9
 665 -100 665 -100 785 -336 c 0,10,11
 796 -358 796 -358 796 -376 c 0,12,13
 796 -406 796 -406 772 -428 c 128,-1,14
 748 -450 748 -450 718 -450 c 0,15,16
 676 -450 676 -450 635 -381 c 0,17,18
 627 -367 627 -367 584 -275 c 0,19,20
 405 109 405 109 405 525 c 256,21,22
 405 941 405 941 584 1325 c 0,23,24
 627 1417 627 1417 635 1432 c 0,25,26
 676 1500 676 1500 718 1500 c 0,27,28
 748 1500 748 1500 772 1478 c 128,-1,29
 796 1456 796 1456 796 1426 c 0,0,1
EndSplineSet
Validated: 1
EndChar

StartChar: parenright
Encoding: 41 41 12
Width: 1200
Flags: W
LayerCount: 2
Fore
SplineSet
795 525 m 256,0,1
 795 109 795 109 617 -275 c 0,2,3
 573 -367 573 -367 565 -381 c 0,4,5
 524 -450 524 -450 482 -450 c 0,6,7
 452 -450 452 -450 428 -428 c 128,-1,8
 404 -406 404 -406 404 -376 c 0,9,10
 404 -359 404 -359 415 -336 c 0,11,12
 535 -100 535 -100 586 79 c 0,13,14
 645 287 645 287 645 525 c 256,15,16
 645 763 645 763 586 971 c 0,17,18
 535 1150 535 1150 415 1387 c 0,19,20
 404 1409 404 1409 404 1426 c 0,21,22
 404 1456 404 1456 428 1478 c 128,-1,23
 452 1500 452 1500 482 1500 c 0,24,25
 524 1500 524 1500 565 1432 c 0,26,27
 573 1417 573 1417 616 1325 c 0,28,29
 795 941 795 941 795 525 c 256,0,1
EndSplineSet
Validated: 1
EndChar

StartChar: asterisk
Encoding: 42 42 13
Width: 1200
Flags: W
LayerCount: 2
Fore
SplineSet
1125 975 m 256,0,1
 1125 900 1125 900 1057 900 c 0,2,3
 1052 900 1052 900 736 919 c 1,4,-1
 971 710 l 2,5,6
 995 689 995 689 995 657 c 0,7,8
 995 627 995 627 971.5 603.5 c 128,-1,9
 948 580 948 580 918 580 c 0,10,11
 886 580 886 580 865 604 c 2,12,-1
 656 839 l 1,13,14
 675 523 675 523 675 518 c 0,15,16
 675 450 675 450 600 450 c 256,17,18
 525 450 525 450 525 518 c 0,19,20
 525 523 525 523 544 839 c 1,21,-1
 335 604 l 2,22,23
 314 580 314 580 282 580 c 0,24,25
 252 580 252 580 228.5 603.5 c 128,-1,26
 205 627 205 627 205 657 c 0,27,28
 205 689 205 689 229 710 c 2,29,-1
 464 919 l 1,30,31
 148 900 148 900 143 900 c 0,32,33
 75 900 75 900 75 975 c 256,34,35
 75 1050 75 1050 143 1050 c 0,36,37
 148 1050 148 1050 464 1031 c 1,38,-1
 229 1240 l 2,39,40
 205 1261 205 1261 205 1293 c 0,41,42
 205 1323 205 1323 228.5 1346.5 c 128,-1,43
 252 1370 252 1370 282 1370 c 0,44,45
 314 1370 314 1370 335 1346 c 2,46,-1
 544 1111 l 1,47,48
 525 1427 525 1427 525 1432 c 0,49,50
 525 1500 525 1500 600 1500 c 256,51,52
 675 1500 675 1500 675 1432 c 0,53,54
 675 1427 675 1427 656 1111 c 1,55,-1
 865 1346 l 2,56,57
 886 1370 886 1370 918 1370 c 0,58,59
 948 1370 948 1370 971.5 1346.5 c 128,-1,60
 995 1323 995 1323 995 1293 c 0,61,62
 995 1261 995 1261 971 1240 c 2,63,-1
 736 1031 l 1,64,65
 1052 1050 1052 1050 1057 1050 c 0,66,67
 1125 1050 1125 1050 1125 975 c 256,0,1
EndSplineSet
Validated: 1
EndChar

StartChar: plus
Encoding: 43 43 14
Width: 1200
Flags: W
LayerCount: 2
Fore
SplineSet
1125 638 m 256,0,1
 1125 563 1125 563 1050 563 c 2,2,-1
 675 563 l 1,3,-1
 675 188 l 2,4,5
 675 113 675 113 600 113 c 256,6,7
 525 113 525 113 525 188 c 2,8,-1
 525 563 l 1,9,-1
 150 563 l 2,10,11
 75 563 75 563 75 638 c 256,12,13
 75 713 75 713 150 713 c 2,14,-1
 525 713 l 1,15,-1
 525 1088 l 2,16,17
 525 1162 525 1162 600 1162 c 256,18,19
 675 1162 675 1162 675 1088 c 2,20,-1
 675 713 l 1,21,-1
 1050 713 l 2,22,23
 1125 713 1125 713 1125 638 c 256,0,1
EndSplineSet
Validated: 1
EndChar

StartChar: comma
Encoding: 44 44 15
Width: 1200
Flags: W
LayerCount: 2
Fore
SplineSet
741 75 m 0,0,1
 741 -156 741 -156 587 -297 c 0,2,3
 561 -320 561 -320 534 -320 c 0,4,5
 504 -320 504 -320 480.5 -297 c 128,-1,6
 457 -274 457 -274 457 -243 c 0,7,8
 457 -218 457 -218 481 -191 c 0,9,10
 591 -64 591 -64 591 75 c 0,11,12
 591 150 591 150 666 150 c 256,13,14
 741 150 741 150 741 75 c 0,0,1
EndSplineSet
Validated: 1
EndChar

StartChar: hyphen
Encoding: 45 45 16
AltUni2: 002010.ffffffff.0
Width: 1200
Flags: W
LayerCount: 2
Fore
SplineSet
900 525 m 256,0,1
 900 450 900 450 825 450 c 2,2,-1
 375 450 l 2,3,4
 300 450 300 450 300 525 c 256,5,6
 300 600 300 600 375 600 c 2,7,-1
 825 600 l 2,8,9
 900 600 900 600 900 525 c 256,0,1
EndSplineSet
Validated: 1
EndChar

StartChar: period
Encoding: 46 46 17
Width: 1200
Flags: W
LayerCount: 2
Fore
SplineSet
714 114 m 256,0,1
 714 67 714 67 680.5 33.5 c 128,-1,2
 647 0 647 0 600 0 c 256,3,4
 553 0 553 0 519.5 33.5 c 128,-1,5
 486 67 486 67 486 114 c 256,6,7
 486 161 486 161 519.5 193 c 128,-1,8
 553 225 553 225 600 225 c 256,9,10
 647 225 647 225 680.5 193 c 128,-1,11
 714 161 714 161 714 114 c 256,0,1
EndSplineSet
Validated: 1
EndChar

StartChar: slash
Encoding: 47 47 18
Width: 1200
Flags: W
LayerCount: 2
Fore
SplineSet
1126 1427 m 0,0,1
 1126 1409 1126 1409 1117 1391 c 2,2,-1
 217 -410 l 2,3,4
 196 -452 196 -452 152 -452 c 0,5,6
 122 -452 122 -452 98 -430.5 c 128,-1,7
 74 -409 74 -409 74 -378 c 0,8,9
 74 -360 74 -360 83 -342 c 2,10,-1
 983 1459 l 2,11,12
 1004 1501 1004 1501 1048 1501 c 0,13,14
 1078 1501 1078 1501 1102 1479.5 c 128,-1,15
 1126 1458 1126 1458 1126 1427 c 0,0,1
EndSplineSet
Validated: 1
EndChar

StartChar: zero
Encoding: 48 48 19
Width: 1200
Flags: W
LayerCount: 2
Fore
SplineSet
1125 638 m 0,0,1
 1125 394 1125 394 987 207 c 0,2,3
 835 0 835 0 600 0 c 256,4,5
 365 0 365 0 213 207 c 0,6,7
 75 394 75 394 75 638 c 0,8,9
 75 881 75 881 213 1068 c 0,10,11
 365 1275 365 1275 600 1275 c 256,12,13
 835 1275 835 1275 987 1068 c 0,14,15
 1125 881 1125 881 1125 638 c 0,0,1
975 638 m 0,16,17
 975 817 975 817 879 961 c 0,18,19
 771 1125 771 1125 600 1125 c 256,20,21
 429 1125 429 1125 321 961 c 0,22,23
 225 817 225 817 225 638 c 0,24,25
 225 458 225 458 321 314 c 0,26,27
 429 150 429 150 600 150 c 256,28,29
 771 150 771 150 879 314 c 0,30,31
 975 458 975 458 975 638 c 0,16,17
676 637 m 0,32,33
 676 606 676 606 653.5 583.5 c 128,-1,34
 631 561 631 561 600 561 c 256,35,36
 569 561 569 561 546.5 583.5 c 128,-1,37
 524 606 524 606 524 637 c 0,38,39
 524 711 524 711 600 711 c 256,40,41
 676 711 676 711 676 637 c 0,32,33
EndSplineSet
Validated: 1
EndChar

StartChar: one
Encoding: 49 49 20
Width: 1200
Flags: W
LayerCount: 2
Fore
SplineSet
1000 75 m 256,0,1
 1000 0 1000 0 925 0 c 2,2,-1
 375 0 l 2,3,4
 300 0 300 0 300 75 c 256,5,6
 300 150 300 150 375 150 c 2,7,-1
 575 150 l 1,8,-1
 575 1019 l 1,9,-1
 328 772 l 2,10,11
 305 749 305 749 276 749 c 0,12,13
 245 749 245 749 222 772 c 128,-1,14
 199 795 199 795 199 826 c 0,15,16
 199 855 199 855 222 878 c 2,17,-1
 587 1243 l 2,18,19
 620 1276 620 1276 649 1276 c 0,20,21
 725 1276 725 1276 725 1186 c 2,22,-1
 725 150 l 1,23,-1
 925 150 l 2,24,25
 1000 150 1000 150 1000 75 c 256,0,1
EndSplineSet
Validated: 1
EndChar

StartChar: two
Encoding: 50 50 21
Width: 1200
Flags: W
LayerCount: 2
Fore
SplineSet
1050 825 m 0,0,1
 1050 669 1050 669 946 537 c 0,2,3
 869 439 869 439 708 327 c 0,4,5
 578 239 578 239 448 150 c 1,6,-1
 975 150 l 2,7,8
 1050 150 1050 150 1050 75 c 256,9,10
 1050 0 1050 0 975 0 c 2,11,-1
 225 0 l 2,12,13
 139 0 139 0 139 66 c 0,14,15
 139 98 139 98 180 135 c 0,16,17
 212 163 212 163 271 196 c 0,18,19
 320 222 320 222 369 249 c 0,20,21
 900 564 900 564 900 825 c 0,22,23
 900 949 900 949 812 1037 c 128,-1,24
 724 1125 724 1125 600 1125 c 256,25,26
 476 1125 476 1125 388 1037 c 128,-1,27
 300 949 300 949 300 825 c 0,28,29
 300 750 300 750 225 750 c 256,30,31
 150 750 150 750 150 825 c 0,32,33
 150 1011 150 1011 282 1143 c 128,-1,34
 414 1275 414 1275 600 1275 c 256,35,36
 786 1275 786 1275 918 1143 c 128,-1,37
 1050 1011 1050 1011 1050 825 c 0,0,1
EndSplineSet
Validated: 1
EndChar

StartChar: three
Encoding: 51 51 22
Width: 1200
Flags: W
LayerCount: 2
Fore
SplineSet
1070 1211 m 0,0,1
 1070 1176 1070 1176 1036 1145 c 2,2,-1
 604 749 l 1,3,4
 796 737 796 737 928 596 c 128,-1,5
 1060 455 1060 455 1060 263 c 0,6,7
 1060 61 1060 61 917 -82 c 128,-1,8
 774 -225 774 -225 573 -225 c 0,9,10
 445 -225 445 -225 329 -159 c 0,11,12
 208 -92 208 -92 150 18 c 0,13,14
 139 40 139 40 139 58 c 0,15,16
 139 88 139 88 163 110 c 128,-1,17
 187 132 187 132 218 132 c 0,18,19
 252 132 252 132 280 94 c 0,20,21
 406 -75 406 -75 573 -75 c 0,22,23
 712 -75 712 -75 811 24 c 128,-1,24
 910 123 910 123 910 263 c 0,25,26
 910 402 910 402 811 501 c 128,-1,27
 712 600 712 600 573 600 c 0,28,29
 478 600 478 600 385 538.5 c 128,-1,30
 292 477 292 477 278 477 c 0,31,32
 248 477 248 477 225.5 499.5 c 128,-1,33
 203 522 203 522 203 552 c 0,34,35
 203 585 203 585 231 610 c 2,36,-1
 792 1125 l 1,37,-1
 215 1125 l 2,38,39
 140 1125 140 1125 140 1200 c 256,40,41
 140 1275 140 1275 215 1275 c 2,42,-1
 985 1275 l 2,43,44
 1070 1275 1070 1275 1070 1211 c 0,0,1
EndSplineSet
Validated: 1
EndChar

StartChar: four
Encoding: 52 52 23
Width: 1200
Flags: W
LayerCount: 2
Fore
SplineSet
1125 300 m 256,0,1
 1125 225 1125 225 1050 225 c 2,2,-1
 825 225 l 1,3,-1
 825 -150 l 2,4,5
 825 -225 825 -225 750 -225 c 256,6,7
 675 -225 675 -225 675 -150 c 2,8,-1
 675 225 l 1,9,-1
 150 225 l 2,10,11
 69 225 69 225 69 288 c 0,12,13
 69 314 69 314 88 342 c 2,14,-1
 688 1242 l 2,15,16
 718 1287 718 1287 758 1287 c 0,17,18
 825 1287 825 1287 825 1200 c 2,19,-1
 825 375 l 1,20,-1
 1050 375 l 2,21,22
 1125 375 1125 375 1125 300 c 256,0,1
675 375 m 1,23,-1
 675 952 l 1,24,-1
 290 375 l 1,25,-1
 675 375 l 1,23,-1
EndSplineSet
Validated: 1
EndChar

StartChar: five
Encoding: 53 53 24
Width: 1200
Flags: W
LayerCount: 2
Fore
SplineSet
1095 300 m 256,0,1
 1095 83 1095 83 941 -71 c 128,-1,2
 787 -225 787 -225 570 -225 c 0,3,4
 433 -225 433 -225 307 -154 c 0,5,6
 178 -81 178 -81 115 37 c 0,7,8
 104 59 104 59 104 77 c 0,9,10
 104 107 104 107 128 129 c 128,-1,11
 152 151 152 151 182 151 c 0,12,13
 217 151 217 151 245 113 c 0,14,15
 259 91 259 91 290 50 c 1,16,17
 401 -75 401 -75 570 -75 c 0,18,19
 725 -75 725 -75 835 35 c 128,-1,20
 945 145 945 145 945 300 c 256,21,22
 945 455 945 455 835 565 c 128,-1,23
 725 675 725 675 570 675 c 0,24,25
 380 675 380 675 245 487 c 0,26,27
 210 439 210 439 173 439 c 0,28,29
 105 439 105 439 105 518 c 0,30,31
 105 527 105 527 106 537 c 2,32,-1
 211 1212 l 2,33,34
 214 1235 214 1235 237.5 1255 c 128,-1,35
 261 1275 261 1275 285 1275 c 2,36,-1
 1020 1275 l 2,37,38
 1095 1275 1095 1275 1095 1200 c 256,39,40
 1095 1125 1095 1125 1020 1125 c 2,41,-1
 349 1125 l 1,42,-1
 290 744 l 1,43,44
 418 825 418 825 570 825 c 0,45,46
 787 825 787 825 941 671 c 128,-1,47
 1095 517 1095 517 1095 300 c 256,0,1
EndSplineSet
Validated: 1
EndChar

StartChar: six
Encoding: 54 54 25
Width: 1200
Flags: W
LayerCount: 2
Fore
SplineSet
1125 1425 m 256,0,1
 1125 1350 1125 1350 1050 1350 c 0,2,3
 849 1350 849 1350 670 1257 c 128,-1,4
 491 1164 491 1164 375 999 c 1,5,6
 481 1050 481 1050 600 1050 c 0,7,8
 817 1050 817 1050 971 896 c 128,-1,9
 1125 742 1125 742 1125 525 c 256,10,11
 1125 308 1125 308 971 154 c 128,-1,12
 817 0 817 0 600 0 c 256,13,14
 383 0 383 0 229 154 c 128,-1,15
 75 308 75 308 75 525 c 0,16,17
 75 928 75 928 361 1214 c 128,-1,18
 647 1500 647 1500 1050 1500 c 0,19,20
 1125 1500 1125 1500 1125 1425 c 256,0,1
975 525 m 256,21,22
 975 680 975 680 865 790 c 128,-1,23
 755 900 755 900 600 900 c 256,24,25
 445 900 445 900 335 790 c 128,-1,26
 225 680 225 680 225 525 c 256,27,28
 225 370 225 370 335 260 c 128,-1,29
 445 150 445 150 600 150 c 256,30,31
 755 150 755 150 865 260 c 128,-1,32
 975 370 975 370 975 525 c 256,21,22
EndSplineSet
Validated: 1
EndChar

StartChar: seven
Encoding: 55 55 26
Width: 1200
Flags: W
LayerCount: 2
Fore
SplineSet
1129 1211 m 0,0,1
 1129 1189 1129 1189 1116 1165 c 2,2,-1
 391 -185 l 2,3,4
 369 -226 369 -226 327 -226 c 0,5,6
 297 -226 297 -226 273 -204 c 128,-1,7
 249 -182 249 -182 249 -152 c 0,8,9
 249 -133 249 -133 259 -115 c 2,10,-1
 925 1125 l 1,11,-1
 150 1125 l 2,12,13
 75 1125 75 1125 75 1200 c 256,14,15
 75 1275 75 1275 150 1275 c 2,16,-1
 1050 1275 l 2,17,18
 1129 1275 1129 1275 1129 1211 c 0,0,1
EndSplineSet
Validated: 1
EndChar

StartChar: eight
Encoding: 56 56 27
Width: 1200
Flags: W
LayerCount: 2
Fore
SplineSet
1050 450 m 0,0,1
 1050 264 1050 264 918 132 c 128,-1,2
 786 0 786 0 600 0 c 256,3,4
 414 0 414 0 282 132 c 128,-1,5
 150 264 150 264 150 450 c 0,6,7
 150 701 150 701 364 833 c 1,8,9
 225 946 225 946 225 1125 c 0,10,11
 225 1280 225 1280 335 1390 c 128,-1,12
 445 1500 445 1500 600 1500 c 256,13,14
 755 1500 755 1500 865 1390 c 128,-1,15
 975 1280 975 1280 975 1125 c 0,16,17
 975 946 975 946 836 833 c 1,18,19
 1050 701 1050 701 1050 450 c 0,0,1
825 1125 m 256,20,21
 825 1218 825 1218 759 1284 c 128,-1,22
 693 1350 693 1350 600 1350 c 256,23,24
 507 1350 507 1350 441 1284 c 128,-1,25
 375 1218 375 1218 375 1125 c 256,26,27
 375 1032 375 1032 441 966 c 128,-1,28
 507 900 507 900 600 900 c 256,29,30
 693 900 693 900 759 966 c 128,-1,31
 825 1032 825 1032 825 1125 c 256,20,21
900 450 m 256,32,33
 900 574 900 574 812 662 c 128,-1,34
 724 750 724 750 600 750 c 256,35,36
 476 750 476 750 388 662 c 128,-1,37
 300 574 300 574 300 450 c 256,38,39
 300 326 300 326 388 238 c 128,-1,40
 476 150 476 150 600 150 c 256,41,42
 724 150 724 150 812 238 c 128,-1,43
 900 326 900 326 900 450 c 256,32,33
EndSplineSet
Validated: 1
EndChar

StartChar: nine
Encoding: 57 57 28
Width: 1200
Flags: W
LayerCount: 2
Fore
SplineSet
1125 750 m 0,0,1
 1125 347 1125 347 839 61 c 128,-1,2
 553 -225 553 -225 150 -225 c 0,3,4
 75 -225 75 -225 75 -150 c 256,5,6
 75 -75 75 -75 150 -75 c 0,7,8
 351 -75 351 -75 530 18 c 128,-1,9
 709 111 709 111 825 276 c 1,10,11
 719 225 719 225 600 225 c 0,12,13
 383 225 383 225 229 379 c 128,-1,14
 75 533 75 533 75 750 c 256,15,16
 75 967 75 967 229 1121 c 128,-1,17
 383 1275 383 1275 600 1275 c 256,18,19
 817 1275 817 1275 971 1121 c 128,-1,20
 1125 967 1125 967 1125 750 c 0,0,1
975 750 m 256,21,22
 975 905 975 905 865 1015 c 128,-1,23
 755 1125 755 1125 600 1125 c 256,24,25
 445 1125 445 1125 335 1015 c 128,-1,26
 225 905 225 905 225 750 c 256,27,28
 225 595 225 595 335 485 c 128,-1,29
 445 375 445 375 600 375 c 256,30,31
 755 375 755 375 865 485 c 128,-1,32
 975 595 975 595 975 750 c 256,21,22
EndSplineSet
Validated: 1
EndChar

StartChar: colon
Encoding: 58 58 29
Width: 1200
Flags: W
LayerCount: 2
Fore
SplineSet
714 939 m 256,0,1
 714 892 714 892 680.5 858.5 c 128,-1,2
 647 825 647 825 600 825 c 256,3,4
 553 825 553 825 519.5 858.5 c 128,-1,5
 486 892 486 892 486 939 c 256,6,7
 486 986 486 986 519.5 1018 c 128,-1,8
 553 1050 553 1050 600 1050 c 256,9,10
 647 1050 647 1050 680.5 1018 c 128,-1,11
 714 986 714 986 714 939 c 256,0,1
714 114 m 256,12,13
 714 67 714 67 680.5 33.5 c 128,-1,14
 647 0 647 0 600 0 c 256,15,16
 553 0 553 0 519.5 33.5 c 128,-1,17
 486 67 486 67 486 114 c 256,18,19
 486 161 486 161 519.5 193 c 128,-1,20
 553 225 553 225 600 225 c 256,21,22
 647 225 647 225 680.5 193 c 128,-1,23
 714 161 714 161 714 114 c 256,12,13
EndSplineSet
Validated: 1
EndChar

StartChar: semicolon
Encoding: 59 59 30
Width: 1200
Flags: W
LayerCount: 2
Fore
SplineSet
761 939 m 256,0,1
 761 892 761 892 727.5 858.5 c 128,-1,2
 694 825 694 825 647 825 c 0,3,4
 601 825 601 825 567 858.5 c 128,-1,5
 533 892 533 892 533 939 c 256,6,7
 533 986 533 986 566.5 1018 c 128,-1,8
 600 1050 600 1050 647 1050 c 0,9,10
 695 1050 695 1050 728 1018 c 128,-1,11
 761 986 761 986 761 939 c 256,0,1
722 75 m 0,12,13
 722 -156 722 -156 568 -297 c 0,14,15
 542 -320 542 -320 516 -320 c 0,16,17
 485 -320 485 -320 462 -297 c 128,-1,18
 439 -274 439 -274 439 -243 c 0,19,20
 439 -218 439 -218 462 -191 c 0,21,22
 572 -64 572 -64 572 75 c 0,23,24
 572 150 572 150 647 150 c 256,25,26
 722 150 722 150 722 75 c 0,12,13
EndSplineSet
Validated: 1
EndChar

StartChar: less
Encoding: 60 60 31
Width: 1200
Flags: W
LayerCount: 2
Fore
SplineSet
1126 190 m 0,0,1
 1126 159 1126 159 1104.5 135 c 128,-1,2
 1083 111 1083 111 1052 111 c 0,3,4
 1034 111 1034 111 1016 120 c 2,5,-1
 129 564 l 2,6,7
 74 592 74 592 74 638 c 0,8,9
 74 683 74 683 129 711 c 2,10,-1
 1016 1155 l 2,11,12
 1034 1164 1034 1164 1052 1164 c 0,13,14
 1083 1164 1083 1164 1104.5 1140 c 128,-1,15
 1126 1116 1126 1116 1126 1085 c 0,16,17
 1126 1042 1126 1042 1084 1020 c 2,18,-1
 318 638 l 1,19,-1
 1084 255 l 2,20,21
 1126 233 1126 233 1126 190 c 0,0,1
EndSplineSet
Validated: 1
EndChar

StartChar: equal
Encoding: 61 61 32
Width: 1200
Flags: W
LayerCount: 2
Fore
SplineSet
1125 863 m 256,0,1
 1125 788 1125 788 1050 788 c 2,2,-1
 150 788 l 2,3,4
 75 788 75 788 75 863 c 256,5,6
 75 938 75 938 150 938 c 2,7,-1
 1050 938 l 2,8,9
 1125 938 1125 938 1125 863 c 256,0,1
1125 413 m 256,10,11
 1125 338 1125 338 1050 338 c 2,12,-1
 150 338 l 2,13,14
 75 338 75 338 75 413 c 256,15,16
 75 488 75 488 150 488 c 2,17,-1
 1050 488 l 2,18,19
 1125 488 1125 488 1125 413 c 256,10,11
EndSplineSet
Validated: 1
EndChar

StartChar: greater
Encoding: 62 62 33
Width: 1200
Flags: W
LayerCount: 2
Fore
SplineSet
1126 638 m 0,0,1
 1126 592 1126 592 1071 564 c 2,2,-1
 184 120 l 2,3,4
 166 111 166 111 148 111 c 0,5,6
 117 111 117 111 95.5 135 c 128,-1,7
 74 159 74 159 74 190 c 0,8,9
 74 233 74 233 116 255 c 2,10,-1
 882 638 l 1,11,-1
 116 1020 l 2,12,13
 74 1042 74 1042 74 1085 c 0,14,15
 74 1116 74 1116 95.5 1140 c 128,-1,16
 117 1164 117 1164 148 1164 c 0,17,18
 166 1164 166 1164 184 1155 c 2,19,-1
 1071 711 l 2,20,21
 1126 683 1126 683 1126 638 c 0,0,1
EndSplineSet
Validated: 1
EndChar

StartChar: question
Encoding: 63 63 34
Width: 1200
Flags: W
LayerCount: 2
Fore
SplineSet
1125 1125 m 256,0,1
 1125 948 1125 948 944 841 c 0,2,3
 790 750 790 750 600 750 c 0,4,5
 464 750 464 750 408 674 c 0,6,7
 394 655 394 655 394 637 c 0,8,9
 394 613 394 613 422 585 c 0,10,11
 481 525 481 525 600 525 c 0,12,13
 633 525 633 525 681.5 538 c 128,-1,14
 730 551 730 551 744 551 c 0,15,16
 774 551 774 551 795.5 527.5 c 128,-1,17
 817 504 817 504 817 473 c 0,18,19
 817 375 817 375 600 375 c 0,20,21
 469 375 469 375 365 439 c 0,22,23
 244 514 244 514 244 637 c 0,24,25
 244 761 244 761 365 836 c 0,26,27
 469 900 469 900 600 900 c 0,28,29
 847 900 847 900 945 1041 c 0,30,31
 975 1084 975 1084 975 1125 c 256,32,33
 975 1166 975 1166 945 1209 c 0,34,35
 847 1350 847 1350 600 1350 c 256,36,37
 353 1350 353 1350 255 1209 c 0,38,39
 225 1166 225 1166 225 1125 c 0,40,41
 225 1050 225 1050 150 1050 c 256,42,43
 75 1050 75 1050 75 1125 c 0,44,45
 75 1302 75 1302 256 1409 c 0,46,47
 410 1500 410 1500 600 1500 c 256,48,49
 790 1500 790 1500 944 1409 c 0,50,51
 1125 1302 1125 1302 1125 1125 c 256,0,1
714 114 m 256,52,53
 714 67 714 67 680.5 33.5 c 128,-1,54
 647 0 647 0 600 0 c 256,55,56
 553 0 553 0 519.5 33.5 c 128,-1,57
 486 67 486 67 486 114 c 256,58,59
 486 161 486 161 519.5 193 c 128,-1,60
 553 225 553 225 600 225 c 256,61,62
 647 225 647 225 680.5 193 c 128,-1,63
 714 161 714 161 714 114 c 256,52,53
EndSplineSet
Validated: 1
EndChar

StartChar: at
Encoding: 64 64 35
Width: 1200
Flags: W
LayerCount: 2
Fore
SplineSet
1125 925 m 256,0,1
 1125 708 1125 708 1007 539 c 0,2,3
 875 350 875 350 667 350 c 0,4,5
 521 350 521 350 427 480 c 0,6,7
 343 598 343 598 343 750 c 256,8,9
 343 902 343 902 427 1020 c 0,10,11
 521 1150 521 1150 667 1150 c 0,12,13
 779 1150 779 1150 864 1068 c 0,14,15
 942 994 942 994 973 879 c 1,16,17
 975 902 975 902 975 925 c 0,18,19
 975 1077 975 1077 898 1203 c 0,20,21
 809 1350 809 1350 667 1350 c 0,22,23
 526 1350 526 1350 411 1237 c 0,24,25
 310 1138 310 1138 262 992 c 0,26,27
 225 878 225 878 225 750 c 256,28,29
 225 622 225 622 262 508 c 0,30,31
 310 362 310 362 411 263 c 0,32,33
 526 150 526 150 667 150 c 0,34,35
 805 150 805 150 921 260 c 0,36,37
 938 279 938 279 974 319 c 0,38,39
 1002 350 1002 350 1031 350 c 0,40,41
 1062 350 1062 350 1085.5 327 c 128,-1,42
 1109 304 1109 304 1109 274 c 0,43,44
 1109 251 1109 251 1093 228 c 0,45,46
 1019 125 1019 125 906 64 c 0,47,48
 790 0 790 0 667 0 c 0,49,50
 398 0 398 0 227 248 c 0,51,52
 75 469 75 469 75 750 c 256,53,54
 75 1031 75 1031 227 1252 c 0,55,56
 398 1500 398 1500 667 1500 c 0,57,58
 875 1500 875 1500 1007 1311 c 0,59,60
 1125 1142 1125 1142 1125 925 c 256,0,1
841 750 m 256,61,62
 841 837 841 837 798 912 c 0,63,64
 748 1000 748 1000 667 1000 c 256,65,66
 586 1000 586 1000 536 912 c 0,67,68
 493 837 493 837 493 750 c 256,69,70
 493 663 493 663 536 588 c 0,71,72
 586 500 586 500 667 500 c 256,73,74
 748 500 748 500 798 588 c 0,75,76
 841 663 841 663 841 750 c 256,61,62
EndSplineSet
Validated: 1
EndChar

StartChar: A
Encoding: 65 65 36
Width: 1200
Flags: W
LayerCount: 2
Fore
SplineSet
1126 72 m 0,0,1
 1126 0 1126 0 1048 0 c 0,2,3
 996 0 996 0 979 51 c 2,4,-1
 846 450 l 1,5,-1
 354 450 l 1,6,-1
 221 51 l 2,7,8
 204 0 204 0 152 0 c 0,9,10
 74 0 74 0 74 72 c 0,11,12
 74 85 74 85 79 99 c 2,13,-1
 525 1437 l 2,14,15
 546 1500 546 1500 600 1500 c 256,16,17
 654 1500 654 1500 675 1437 c 2,18,-1
 1121 99 l 2,19,20
 1126 85 1126 85 1126 72 c 0,0,1
796 600 m 1,21,-1
 600 1188 l 1,22,-1
 404 600 l 1,23,-1
 796 600 l 1,21,-1
EndSplineSet
Validated: 1
EndChar

StartChar: B
Encoding: 66 66 37
Width: 1200
Flags: W
LayerCount: 2
Fore
SplineSet
1125 449 m 0,0,1
 1125 263 1125 263 993 131 c 128,-1,2
 861 -1 861 -1 674 -1 c 2,3,-1
 250 0 l 2,4,5
 220 0 220 0 197.5 22.5 c 128,-1,6
 175 45 175 45 175 75 c 2,7,-1
 175 1425 l 2,8,9
 175 1455 175 1455 197.5 1477.5 c 128,-1,10
 220 1500 220 1500 250 1500 c 2,11,-1
 675 1500 l 2,12,13
 830 1500 830 1500 940 1390 c 128,-1,14
 1050 1280 1050 1280 1050 1125 c 0,15,16
 1050 946 1050 946 911 833 c 1,17,18
 1125 701 1125 701 1125 449 c 0,0,1
900 1125 m 256,19,20
 900 1218 900 1218 834 1284 c 128,-1,21
 768 1350 768 1350 675 1350 c 2,22,-1
 325 1350 l 1,23,-1
 325 900 l 1,24,-1
 675 900 l 2,25,26
 768 900 768 900 834 966 c 128,-1,27
 900 1032 900 1032 900 1125 c 256,19,20
975 449 m 256,28,29
 975 573 975 573 887 661.5 c 128,-1,30
 799 750 799 750 675 750 c 2,31,-1
 325 750 l 1,32,-1
 325 150 l 1,33,-1
 675 149 l 2,34,35
 799 149 799 149 887 237 c 128,-1,36
 975 325 975 325 975 449 c 256,28,29
EndSplineSet
Validated: 1
EndChar

StartChar: C
Encoding: 67 67 38
Width: 1200
Flags: W
LayerCount: 2
Fore
SplineSet
1126 273 m 0,0,1
 1126 251 1126 251 1109 226 c 0,2,3
 1039 126 1039 126 919.5 63 c 128,-1,4
 800 0 800 0 677 0 c 0,5,6
 406 0 406 0 231 246 c 0,7,8
 75 467 75 467 75 750 c 256,9,10
 75 1033 75 1033 231 1254 c 0,11,12
 406 1500 406 1500 677 1500 c 0,13,14
 800 1500 800 1500 919.5 1437 c 128,-1,15
 1039 1374 1039 1374 1109 1274 c 0,16,17
 1126 1249 1126 1249 1126 1227 c 0,18,19
 1126 1197 1126 1197 1102.5 1174 c 128,-1,20
 1079 1151 1079 1151 1048 1151 c 0,21,22
 1029 1151 1029 1151 1002.5 1169.5 c 128,-1,23
 976 1188 976 1188 971 1205 c 0,24,25
 970 1207 970 1207 950 1228 c 0,26,27
 828 1350 828 1350 677 1350 c 0,28,29
 538 1350 538 1350 422 1243 c 0,30,31
 319 1149 319 1149 268 1006 c 0,32,33
 225 886 225 886 225 750 c 256,34,35
 225 614 225 614 268 494 c 0,36,37
 319 351 319 351 421 257 c 0,38,39
 537 150 537 150 677 150 c 0,40,41
 827 150 827 150 950 272 c 0,42,43
 959 279 959 279 971 294 c 1,44,45
 972 309 972 309 1001.5 329 c 128,-1,46
 1031 349 1031 349 1048 349 c 0,47,48
 1079 349 1079 349 1102.5 326 c 128,-1,49
 1126 303 1126 303 1126 273 c 0,0,1
EndSplineSet
Validated: 1
EndChar

StartChar: D
Encoding: 68 68 39
Width: 1200
Flags: W
LayerCount: 2
Fore
SplineSet
1125 750 m 256,0,1
 1125 440 1125 440 905 220 c 128,-1,2
 685 0 685 0 375 0 c 2,3,-1
 250 0 l 2,4,5
 220 0 220 0 197.5 22.5 c 128,-1,6
 175 45 175 45 175 75 c 2,7,-1
 175 1425 l 2,8,9
 175 1455 175 1455 197.5 1477.5 c 128,-1,10
 220 1500 220 1500 250 1500 c 2,11,-1
 375 1500 l 2,12,13
 685 1500 685 1500 905 1280 c 128,-1,14
 1125 1060 1125 1060 1125 750 c 256,0,1
975 750 m 256,15,16
 975 998 975 998 799 1174 c 128,-1,17
 623 1350 623 1350 375 1350 c 2,18,-1
 325 1350 l 1,19,-1
 325 150 l 1,20,-1
 375 150 l 2,21,22
 623 150 623 150 799 326 c 128,-1,23
 975 502 975 502 975 750 c 256,15,16
EndSplineSet
Validated: 1
EndChar

StartChar: E
Encoding: 69 69 40
Width: 1200
Flags: W
LayerCount: 2
Fore
SplineSet
1125 75 m 256,0,1
 1125 0 1125 0 1050 0 c 2,2,-1
 250 0 l 2,3,4
 220 0 220 0 197.5 22.5 c 128,-1,5
 175 45 175 45 175 75 c 2,6,-1
 175 1425 l 2,7,8
 175 1455 175 1455 197.5 1477.5 c 128,-1,9
 220 1500 220 1500 250 1500 c 2,10,-1
 1050 1500 l 2,11,12
 1125 1500 1125 1500 1125 1425 c 256,13,14
 1125 1350 1125 1350 1050 1350 c 2,15,-1
 325 1350 l 1,16,-1
 325 825 l 1,17,-1
 1050 825 l 2,18,19
 1125 825 1125 825 1125 750 c 256,20,21
 1125 675 1125 675 1050 675 c 2,22,-1
 325 675 l 1,23,-1
 325 150 l 1,24,-1
 1050 150 l 2,25,26
 1125 150 1125 150 1125 75 c 256,0,1
EndSplineSet
Validated: 1
EndChar

StartChar: F
Encoding: 70 70 41
Width: 1200
Flags: W
LayerCount: 2
Fore
SplineSet
1125 750 m 256,0,1
 1125 675 1125 675 1050 675 c 2,2,-1
 325 675 l 1,3,-1
 325 75 l 2,4,5
 325 0 325 0 250 0 c 256,6,7
 175 0 175 0 175 75 c 2,8,-1
 175 1426 l 2,9,10
 175 1500 175 1500 249 1500 c 2,11,-1
 1050 1500 l 2,12,13
 1125 1500 1125 1500 1125 1425 c 256,14,15
 1125 1350 1125 1350 1050 1350 c 2,16,-1
 325 1350 l 1,17,-1
 325 825 l 1,18,-1
 1050 825 l 2,19,20
 1125 825 1125 825 1125 750 c 256,0,1
EndSplineSet
Validated: 1
EndChar

StartChar: G
Encoding: 71 71 42
Width: 1200
Flags: W
LayerCount: 2
Fore
SplineSet
1076 1227 m 0,0,1
 1076 1197 1076 1197 1052.5 1174 c 128,-1,2
 1029 1151 1029 1151 998 1151 c 0,3,4
 968 1151 968 1151 940 1183 c 0,5,6
 927 1199 927 1199 898 1233 c 0,7,8
 784 1350 784 1350 648 1350 c 256,9,10
 512 1350 512 1350 401 1235 c 0,11,12
 306 1137 306 1137 261 993 c 0,13,14
 225 879 225 879 225 750 c 256,15,16
 225 621 225 621 261 507 c 0,17,18
 306 363 306 363 401 265 c 0,19,20
 512 150 512 150 648 150 c 0,21,22
 805 150 805 150 925 298 c 1,23,-1
 925 750 l 2,24,25
 925 825 925 825 1000 825 c 256,26,27
 1075 825 1075 825 1075 750 c 2,28,-1
 1075 272 l 2,29,30
 1075 169 1075 169 909 79 c 0,31,32
 762 0 762 0 648 0 c 0,33,34
 385 0 385 0 220 252 c 0,35,36
 75 472 75 472 75 750 c 256,37,38
 75 1028 75 1028 220 1248 c 0,39,40
 385 1500 385 1500 648 1500 c 0,41,42
 767 1500 767 1500 881 1436 c 0,43,44
 992 1373 992 1373 1060 1272 c 0,45,46
 1076 1249 1076 1249 1076 1227 c 0,0,1
EndSplineSet
Validated: 1
EndChar

StartChar: H
Encoding: 72 72 43
Width: 1200
Flags: W
LayerCount: 2
Fore
SplineSet
1025 75 m 2,0,1
 1025 0 1025 0 950 0 c 256,2,3
 875 0 875 0 875 75 c 2,4,-1
 875 675 l 1,5,-1
 325 675 l 1,6,-1
 325 75 l 2,7,8
 325 0 325 0 250 0 c 256,9,10
 175 0 175 0 175 75 c 2,11,-1
 175 1425 l 2,12,13
 175 1500 175 1500 250 1500 c 256,14,15
 325 1500 325 1500 325 1425 c 2,16,-1
 325 825 l 1,17,-1
 875 825 l 1,18,-1
 875 1425 l 2,19,20
 875 1500 875 1500 950 1500 c 256,21,22
 1025 1500 1025 1500 1025 1425 c 2,23,-1
 1025 75 l 2,0,1
EndSplineSet
Validated: 1
EndChar

StartChar: I
Encoding: 73 73 44
Width: 1200
Flags: W
LayerCount: 2
Fore
SplineSet
975 75 m 256,0,1
 975 0 975 0 900 0 c 2,2,-1
 300 0 l 2,3,4
 225 0 225 0 225 75 c 256,5,6
 225 150 225 150 300 150 c 2,7,-1
 525 150 l 1,8,-1
 525 1350 l 1,9,-1
 300 1350 l 2,10,11
 225 1350 225 1350 225 1425 c 256,12,13
 225 1500 225 1500 300 1500 c 2,14,-1
 900 1500 l 2,15,16
 975 1500 975 1500 975 1425 c 256,17,18
 975 1350 975 1350 900 1350 c 2,19,-1
 675 1350 l 1,20,-1
 675 150 l 1,21,-1
 900 150 l 2,22,23
 975 150 975 150 975 75 c 256,0,1
EndSplineSet
Validated: 1
EndChar

StartChar: J
Encoding: 74 74 45
Width: 1200
Flags: W
LayerCount: 2
Fore
SplineSet
1025 75 m 2,0,1
 1025 -142 1025 -142 871 -296 c 128,-1,2
 717 -450 717 -450 500 -450 c 0,3,4
 386 -450 386 -450 273 -398 c 0,5,6
 154 -344 154 -344 92 -255 c 0,7,8
 74 -229 74 -229 74 -208 c 0,9,10
 74 -177 74 -177 97.5 -154.5 c 128,-1,11
 121 -132 121 -132 152 -132 c 0,12,13
 179 -132 179 -132 208 -160 c 0,14,15
 350 -300 350 -300 500 -300 c 0,16,17
 655 -300 655 -300 765 -190 c 128,-1,18
 875 -80 875 -80 875 75 c 2,19,-1
 875 1350 l 1,20,-1
 150 1350 l 2,21,22
 75 1350 75 1350 75 1425 c 256,23,24
 75 1500 75 1500 150 1500 c 2,25,-1
 951 1500 l 2,26,27
 1025 1500 1025 1500 1025 1426 c 2,28,-1
 1025 75 l 2,0,1
EndSplineSet
Validated: 1
EndChar

StartChar: K
Encoding: 75 75 46
Width: 1200
Flags: W
LayerCount: 2
Fore
SplineSet
1126 75 m 0,0,1
 1126 45 1126 45 1103 22 c 128,-1,2
 1080 -1 1080 -1 1049 -1 c 0,3,4
 1019.11111111 -1 1019.11111111 -1 996 23 c 2,5,-1
 346 698 l 2,6,7
 325 719.807692308 325 719.807692308 325 736 c 2,8,-1
 325 75 l 2,9,10
 325 0 325 0 250 0 c 256,11,12
 175 0 175 0 175 75 c 2,13,-1
 175 1425 l 2,14,15
 175 1500 175 1500 250 1500 c 256,16,17
 325 1500 325 1500 325 1425 c 2,18,-1
 325 764 l 1,19,20
 329.087378641 784.436893204 329.087378641 784.436893204 346 802 c 2,21,-1
 996 1477 l 2,22,23
 1019 1501 1019 1501 1049 1501 c 0,24,25
 1080 1501 1080 1501 1103 1478 c 128,-1,26
 1126 1455 1126 1455 1126 1425 c 0,27,28
 1126 1395.84333333 1126 1395.84333333 1104 1373 c 2,29,-1
 504 750 l 1,30,-1
 1104 127 l 2,31,32
 1126 104 1126 104 1126 75 c 0,0,1
EndSplineSet
Validated: 524289
EndChar

StartChar: L
Encoding: 76 76 47
Width: 1200
Flags: W
LayerCount: 2
Fore
SplineSet
1125 75 m 256,0,1
 1125 0 1125 0 1050 0 c 2,2,-1
 250 0 l 2,3,4
 175 0 175 0 175 74 c 2,5,-1
 175 1425 l 2,6,7
 175 1500 175 1500 250 1500 c 256,8,9
 325 1500 325 1500 325 1425 c 2,10,-1
 325 150 l 1,11,-1
 1050 150 l 2,12,13
 1125 150 1125 150 1125 75 c 256,0,1
EndSplineSet
Validated: 1
EndChar

StartChar: M
Encoding: 77 77 48
Width: 1200
Flags: W
LayerCount: 2
Fore
SplineSet
1125 73 m 0,0,1
 1125 0 1125 0 1049 0 c 0,2,3
 984 0 984 0 976 65 c 2,4,-1
 847 1033 l 1,5,-1
 675 367 l 2,6,7
 658 300 658 300 600 300 c 256,8,9
 542 300 542 300 525 367 c 2,10,-1
 353 1033 l 1,11,-1
 224 65 l 2,12,13
 216 0 216 0 151 0 c 0,14,15
 75 0 75 0 75 73 c 0,16,17
 75 79 75 79 76 85 c 2,18,-1
 255 1426 l 2,19,20
 264 1500 264 1500 330 1500 c 0,21,22
 388 1500 388 1500 405 1435 c 2,23,-1
 600 676 l 1,24,-1
 795 1435 l 2,25,26
 812 1500 812 1500 868 1500 c 0,27,28
 936 1500 936 1500 945 1426 c 2,29,-1
 1124 85 l 2,30,31
 1125 79 1125 79 1125 73 c 0,0,1
EndSplineSet
Validated: 1
EndChar

StartChar: N
Encoding: 78 78 49
Width: 1200
Flags: W
LayerCount: 2
Fore
SplineSet
1026 74 m 2,0,1
 1026 -1 1026 -1 948 -1 c 0,2,3
 905 -1 905 -1 879 50 c 2,4,-1
 325 1117 l 1,5,-1
 325 75 l 2,6,7
 325 0 325 0 250 0 c 256,8,9
 175 0 175 0 175 75 c 2,10,-1
 174 1426 l 2,11,12
 174 1501 174 1501 252 1501 c 0,13,14
 295 1501 295 1501 321 1450 c 2,15,-1
 875 383 l 1,16,-1
 875 1425 l 2,17,18
 875 1500 875 1500 950 1500 c 256,19,20
 1025 1500 1025 1500 1025 1425 c 2,21,-1
 1026 74 l 2,0,1
EndSplineSet
Validated: 1
EndChar

StartChar: O
Encoding: 79 79 50
Width: 1200
Flags: W
LayerCount: 2
Fore
SplineSet
1125 750 m 256,0,1
 1125 481 1125 481 999 261 c 0,2,3
 849 0 849 0 600 0 c 256,4,5
 351 0 351 0 201 261 c 0,6,7
 75 481 75 481 75 750 c 256,8,9
 75 1019 75 1019 201 1239 c 0,10,11
 351 1500 351 1500 600 1500 c 256,12,13
 849 1500 849 1500 999 1239 c 0,14,15
 1125 1019 1125 1019 1125 750 c 256,0,1
975 750 m 256,16,17
 975 881 975 881 942 996 c 0,18,19
 903 1132 903 1132 822 1230 c 0,20,21
 722 1350 722 1350 600 1350 c 256,22,23
 478 1350 478 1350 378 1230 c 0,24,25
 297 1132 297 1132 258 996 c 0,26,27
 225 881 225 881 225 750 c 256,28,29
 225 619 225 619 258 504 c 0,30,31
 297 368 297 368 378 270 c 0,32,33
 478 150 478 150 600 150 c 256,34,35
 722 150 722 150 822 270 c 0,36,37
 903 368 903 368 942 504 c 0,38,39
 975 619 975 619 975 750 c 256,16,17
EndSplineSet
Validated: 1
EndChar

StartChar: P
Encoding: 80 80 51
Width: 1200
Flags: W
LayerCount: 2
Fore
SplineSet
1125 1050 m 256,0,1
 1125 864 1125 864 993 732 c 128,-1,2
 861 600 861 600 675 600 c 2,3,-1
 325 600 l 1,4,-1
 325 75 l 2,5,6
 325 0 325 0 250 0 c 256,7,8
 175 0 175 0 175 75 c 2,9,-1
 175 1425 l 2,10,11
 175 1455 175 1455 197.5 1477.5 c 128,-1,12
 220 1500 220 1500 250 1500 c 2,13,-1
 675 1500 l 2,14,15
 861 1500 861 1500 993 1368 c 128,-1,16
 1125 1236 1125 1236 1125 1050 c 256,0,1
975 1050 m 256,17,18
 975 1174 975 1174 887 1262 c 128,-1,19
 799 1350 799 1350 675 1350 c 2,20,-1
 325 1350 l 1,21,-1
 325 750 l 1,22,-1
 675 750 l 2,23,24
 799 750 799 750 887 838 c 128,-1,25
 975 926 975 926 975 1050 c 256,17,18
EndSplineSet
Validated: 1
EndChar

StartChar: Q
Encoding: 81 81 52
Width: 1200
Flags: W
LayerCount: 2
Fore
SplineSet
1125 -375 m 256,0,1
 1125 -450 1125 -450 1050 -450 c 0,2,3
 874 -450 874 -450 739 -307 c 0,4,5
 625 -186 625 -186 568 1 c 1,6,7
 333 20 333 20 193 275 c 0,8,9
 75 491 75 491 75 750 c 0,10,11
 75 1019 75 1019 201 1239 c 0,12,13
 351 1500 351 1500 600 1500 c 256,14,15
 849 1500 849 1500 999 1239 c 0,16,17
 1125 1019 1125 1019 1125 750 c 0,18,19
 1125 517 1125 517 1029 317 c 0,20,21
 917 82 917 82 719 18 c 1,22,23
 761 -106 761 -106 840 -194 c 0,24,25
 936 -300 936 -300 1050 -300 c 0,26,27
 1125 -300 1125 -300 1125 -375 c 256,0,1
975 750 m 0,28,29
 975 881 975 881 942 996 c 0,30,31
 903 1132 903 1132 822 1230 c 0,32,33
 722 1350 722 1350 600 1350 c 256,34,35
 478 1350 478 1350 378 1230 c 0,36,37
 297 1132 297 1132 258 997 c 0,38,39
 225 881 225 881 225 750 c 0,40,41
 225 564 225 564 295 403 c 0,42,43
 381 207 381 207 534 160 c 1,44,45
 525 230 525 230 525 300 c 0,46,47
 525 375 525 375 600 375 c 256,48,49
 675 375 675 375 675 300 c 0,50,51
 675 232 675 232 684 167 c 1,52,53
 829 224 829 224 909 412 c 0,54,55
 975 569 975 569 975 750 c 0,28,29
EndSplineSet
Validated: 1
EndChar

StartChar: R
Encoding: 82 82 53
Width: 1200
Flags: W
LayerCount: 2
Fore
SplineSet
1126 76 m 0,0,1
 1126 45 1126 45 1103 22 c 128,-1,2
 1080 -1 1080 -1 1049 -1 c 0,3,4
 1020 -1 1020 -1 997 22 c 2,5,-1
 407 612 l 2,6,7
 374 645 374 645 374 674 c 0,8,9
 374 750 374 750 464 750 c 2,10,-1
 675 750 l 2,11,12
 799 750 799 750 887 838 c 128,-1,13
 975 926 975 926 975 1050 c 256,14,15
 975 1174 975 1174 887 1262 c 128,-1,16
 799 1350 799 1350 675 1350 c 2,17,-1
 325 1350 l 1,18,-1
 325 75 l 2,19,20
 325 0 325 0 250 0 c 256,21,22
 175 0 175 0 175 75 c 2,23,-1
 175 1426 l 2,24,25
 175 1500 175 1500 249 1500 c 2,26,-1
 675 1500 l 2,27,28
 861 1500 861 1500 993 1368 c 128,-1,29
 1125 1236 1125 1236 1125 1050 c 256,30,31
 1125 864 1125 864 993 732 c 128,-1,32
 861 600 861 600 675 600 c 2,33,-1
 631 600 l 1,34,-1
 1103 128 l 2,35,36
 1126 105 1126 105 1126 76 c 0,0,1
EndSplineSet
Validated: 1
EndChar

StartChar: S
Encoding: 83 83 54
Width: 1200
Flags: W
LayerCount: 2
Fore
SplineSet
1125 450 m 256,0,1
 1125 247 1125 247 943 117 c 0,2,3
 779 0 779 0 568 0 c 0,4,5
 431 0 431 0 302 54 c 0,6,7
 161 114 161 114 90 218 c 0,8,9
 74 242 74 242 74 264 c 0,10,11
 74 294 74 294 97.5 316.5 c 128,-1,12
 121 339 121 339 152 339 c 0,13,14
 181 339 181 339 210 308 c 0,15,16
 224 291 224 291 254 260 c 0,17,18
 376 150 376 150 568 150 c 0,19,20
 715 150 715 150 836 225 c 0,21,22
 975 312 975 312 975 450 c 256,23,24
 975 588 975 588 836 675 c 0,25,26
 715 750 715 750 568 750 c 0,27,28
 393 750 393 750 257 848 c 0,29,30
 107 956 107 956 107 1125 c 256,31,32
 107 1294 107 1294 257 1402 c 0,33,34
 393 1500 393 1500 568 1500 c 0,35,36
 681 1500 681 1500 786 1455 c 0,37,38
 902 1406 902 1406 961 1321 c 0,39,40
 978 1298 978 1298 978 1275 c 0,41,42
 978 1245 978 1245 954 1222.5 c 128,-1,43
 930 1200 930 1200 900 1200 c 0,44,45
 872 1200 872 1200 841 1231 c 0,46,47
 724 1350 724 1350 568 1350 c 0,48,49
 457 1350 457 1350 365 1294 c 0,50,51
 257 1229 257 1229 257 1125 c 256,52,53
 257 1021 257 1021 365 956 c 0,54,55
 457 900 457 900 568 900 c 0,56,57
 779 900 779 900 943 783 c 0,58,59
 1125 653 1125 653 1125 450 c 256,0,1
EndSplineSet
Validated: 1
EndChar

StartChar: T
Encoding: 84 84 55
Width: 1200
Flags: W
LayerCount: 2
Fore
SplineSet
1125 1425 m 256,0,1
 1125 1350 1125 1350 1050 1350 c 2,2,-1
 675 1350 l 1,3,-1
 675 75 l 2,4,5
 675 0 675 0 600 0 c 256,6,7
 525 0 525 0 525 75 c 2,8,-1
 525 1350 l 1,9,-1
 150 1350 l 2,10,11
 75 1350 75 1350 75 1425 c 256,12,13
 75 1500 75 1500 150 1500 c 2,14,-1
 1050 1500 l 2,15,16
 1125 1500 1125 1500 1125 1425 c 256,0,1
EndSplineSet
Validated: 1
EndChar

StartChar: U
Encoding: 85 85 56
Width: 1200
Flags: W
LayerCount: 2
Fore
SplineSet
1075 475 m 2,0,1
 1075 278 1075 278 936 139 c 128,-1,2
 797 0 797 0 600 0 c 256,3,4
 403 0 403 0 264 139 c 128,-1,5
 125 278 125 278 125 475 c 2,6,-1
 125 1425 l 2,7,8
 125 1500 125 1500 200 1500 c 256,9,10
 275 1500 275 1500 275 1425 c 2,11,-1
 275 475 l 2,12,13
 275 341 275 341 370.5 245.5 c 128,-1,14
 466 150 466 150 600 150 c 256,15,16
 734 150 734 150 829.5 245.5 c 128,-1,17
 925 341 925 341 925 475 c 2,18,-1
 925 1425 l 2,19,20
 925 1500 925 1500 1000 1500 c 256,21,22
 1075 1500 1075 1500 1075 1425 c 2,23,-1
 1075 475 l 2,0,1
EndSplineSet
Validated: 1
EndChar

StartChar: V
Encoding: 86 86 57
Width: 1200
Flags: W
LayerCount: 2
Fore
SplineSet
1126 1428 m 0,0,1
 1126 1415 1126 1415 1121 1401 c 2,2,-1
 675 63 l 2,3,4
 654 0 654 0 600 0 c 256,5,6
 546 0 546 0 525 63 c 2,7,-1
 79 1401 l 2,8,9
 74 1415 74 1415 74 1428 c 0,10,11
 74 1500 74 1500 152 1500 c 0,12,13
 204 1500 204 1500 221 1449 c 2,14,-1
 600 312 l 1,15,-1
 979 1449 l 2,16,17
 996 1500 996 1500 1048 1500 c 0,18,19
 1126 1500 1126 1500 1126 1428 c 0,0,1
EndSplineSet
Validated: 1
EndChar

StartChar: W
Encoding: 87 87 58
Width: 1200
Flags: W
LayerCount: 2
Fore
SplineSet
1125 1428 m 0,0,1
 1125 1420 1125 1420 1124 1413 c 2,2,-1
 900 72 l 2,3,4
 888 0 888 0 824 0 c 0,5,6
 767 0 767 0 750 66 c 2,7,-1
 600 666 l 1,8,-1
 450 66 l 2,9,10
 434 0 434 0 376 0 c 0,11,12
 311 0 311 0 300 72 c 2,13,-1
 76 1413 l 2,14,15
 75 1420 75 1420 75 1428 c 0,16,17
 75 1500 75 1500 151 1500 c 0,18,19
 214 1500 214 1500 224 1437 c 2,20,-1
 390 443 l 1,21,-1
 525 983 l 2,22,23
 541 1050 541 1050 600 1050 c 0,24,25
 658 1050 658 1050 675 983 c 2,26,-1
 810 443 l 1,27,-1
 976 1437 l 2,28,29
 986 1500 986 1500 1049 1500 c 0,30,31
 1125 1500 1125 1500 1125 1428 c 0,0,1
EndSplineSet
Validated: 1
EndChar

StartChar: X
Encoding: 88 88 59
Width: 1200
Flags: W
LayerCount: 2
Fore
SplineSet
1126 74 m 0,0,1
 1126 44 1126 44 1102 21.5 c 128,-1,2
 1078 -1 1078 -1 1048 -1 c 0,3,4
 1011 -1 1011 -1 988 33 c 2,5,-1
 600 615 l 1,6,-1
 212 33 l 2,7,8
 189 -1 189 -1 152 -1 c 0,9,10
 122 -1 122 -1 98 21.5 c 128,-1,11
 74 44 74 44 74 74 c 0,12,13
 74 96 74 96 88 117 c 2,14,-1
 510 750 l 1,15,-1
 88 1383 l 2,16,17
 74 1404 74 1404 74 1426 c 0,18,19
 74 1456 74 1456 98 1478.5 c 128,-1,20
 122 1501 122 1501 152 1501 c 0,21,22
 189 1501 189 1501 212 1467 c 2,23,-1
 600 885 l 1,24,-1
 988 1467 l 2,25,26
 1011 1501 1011 1501 1048 1501 c 0,27,28
 1078 1501 1078 1501 1102 1478.5 c 128,-1,29
 1126 1456 1126 1456 1126 1426 c 0,30,31
 1126 1404 1126 1404 1112 1383 c 2,32,-1
 690 750 l 1,33,-1
 1112 117 l 2,34,35
 1126 96 1126 96 1126 74 c 0,0,1
EndSplineSet
Validated: 1
EndChar

StartChar: Y
Encoding: 89 89 60
Width: 1200
Flags: W
LayerCount: 2
Fore
SplineSet
1126 1426 m 0,0,1
 1126 1404 1126 1404 1112 1383 c 2,2,-1
 675 727 l 1,3,-1
 675 75 l 2,4,5
 675 0 675 0 600 0 c 256,6,7
 525 0 525 0 525 75 c 2,8,-1
 525 727 l 1,9,-1
 88 1383 l 2,10,11
 74 1404 74 1404 74 1426 c 0,12,13
 74 1456 74 1456 98 1478.5 c 128,-1,14
 122 1501 122 1501 152 1501 c 0,15,16
 189 1501 189 1501 212 1467 c 2,17,-1
 600 885 l 1,18,-1
 988 1467 l 2,19,20
 1011 1501 1011 1501 1048 1501 c 0,21,22
 1078 1501 1078 1501 1102 1478.5 c 128,-1,23
 1126 1456 1126 1456 1126 1426 c 0,0,1
EndSplineSet
Validated: 1
EndChar

StartChar: Z
Encoding: 90 90 61
Width: 1200
Flags: W
LayerCount: 2
Fore
SplineSet
1126 1426 m 0,0,1
 1126 1404 1126 1404 1105 1372 c 2,2,-1
 290 150 l 1,3,-1
 1050 150 l 2,4,5
 1125 150 1125 150 1125 75 c 256,6,7
 1125 0 1125 0 1050 0 c 2,8,-1
 153 -1 l 2,9,10
 74 -1 74 -1 74 74 c 0,11,12
 74 96 74 96 95 128 c 2,13,-1
 910 1350 l 1,14,-1
 150 1350 l 2,15,16
 75 1350 75 1350 75 1425 c 256,17,18
 75 1500 75 1500 150 1500 c 2,19,-1
 1047 1501 l 2,20,21
 1126 1501 1126 1501 1126 1426 c 0,0,1
EndSplineSet
Validated: 1
EndChar

StartChar: bracketleft
Encoding: 91 91 62
Width: 1200
Flags: W
LayerCount: 2
Fore
SplineSet
900 -375 m 256,0,1
 900 -450 900 -450 825 -450 c 2,2,-1
 375 -450 l 2,3,4
 345 -450 345 -450 322.5 -427.5 c 128,-1,5
 300 -405 300 -405 300 -375 c 2,6,-1
 300 1425 l 2,7,8
 300 1455 300 1455 322.5 1477.5 c 128,-1,9
 345 1500 345 1500 375 1500 c 2,10,-1
 825 1500 l 2,11,12
 900 1500 900 1500 900 1425 c 256,13,14
 900 1350 900 1350 825 1350 c 2,15,-1
 450 1350 l 1,16,-1
 450 -300 l 1,17,-1
 825 -300 l 2,18,19
 900 -300 900 -300 900 -375 c 256,0,1
EndSplineSet
Validated: 1
EndChar

StartChar: backslash
Encoding: 92 92 63
Width: 1200
Flags: W
LayerCount: 2
Fore
SplineSet
1126 -378 m 0,0,1
 1126 -409 1126 -409 1102 -430.5 c 128,-1,2
 1078 -452 1078 -452 1048 -452 c 0,3,4
 1004 -452 1004 -452 983 -410 c 2,5,-1
 83 1391 l 2,6,7
 74 1409 74 1409 74 1427 c 0,8,9
 74 1458 74 1458 98 1479.5 c 128,-1,10
 122 1501 122 1501 152 1501 c 0,11,12
 196 1501 196 1501 217 1459 c 2,13,-1
 1117 -342 l 2,14,15
 1126 -360 1126 -360 1126 -378 c 0,0,1
EndSplineSet
Validated: 1
EndChar

StartChar: bracketright
Encoding: 93 93 64
Width: 1200
Flags: W
LayerCount: 2
Fore
SplineSet
900 1425 m 2,0,-1
 900 -375 l 2,1,2
 900 -405 900 -405 877.5 -427.5 c 128,-1,3
 855 -450 855 -450 825 -450 c 2,4,-1
 375 -450 l 2,5,6
 300 -450 300 -450 300 -375 c 256,7,8
 300 -300 300 -300 375 -300 c 2,9,-1
 750 -300 l 1,10,-1
 750 1350 l 1,11,-1
 375 1350 l 2,12,13
 300 1350 300 1350 300 1425 c 256,14,15
 300 1500 300 1500 375 1500 c 2,16,-1
 825 1500 l 2,17,18
 855 1500 855 1500 877.5 1477.5 c 128,-1,19
 900 1455 900 1455 900 1425 c 2,0,-1
EndSplineSet
Validated: 1
EndChar

StartChar: asciicircum
Encoding: 94 94 65
Width: 1200
Flags: W
LayerCount: 2
Fore
SplineSet
976 1126 m 0,0,1
 976 1095 976 1095 953 1072 c 128,-1,2
 930 1049 930 1049 899 1049 c 0,3,4
 870 1049 870 1049 847 1072 c 2,5,-1
 600 1319 l 1,6,-1
 353 1072 l 2,7,8
 330 1049 330 1049 301 1049 c 0,9,10
 270 1049 270 1049 247 1072 c 128,-1,11
 224 1095 224 1095 224 1126 c 0,12,13
 224 1155 224 1155 247 1178 c 2,14,-1
 547 1478 l 2,15,16
 570 1501 570 1501 599 1501 c 0,17,18
 630 1501 630 1501 653 1478 c 2,19,-1
 953 1178 l 2,20,21
 976 1155 976 1155 976 1126 c 0,0,1
EndSplineSet
Validated: 1
EndChar

StartChar: underscore
Encoding: 95 95 66
Width: 1200
Flags: W
LayerCount: 2
Fore
SplineSet
1125 75 m 256,0,1
 1125 0 1125 0 1050 0 c 2,2,-1
 150 0 l 2,3,4
 75 0 75 0 75 75 c 256,5,6
 75 150 75 150 150 150 c 2,7,-1
 1050 150 l 2,8,9
 1125 150 1125 150 1125 75 c 256,0,1
EndSplineSet
Validated: 1
EndChar

StartChar: grave
Encoding: 96 96 67
Width: 1200
Flags: W
LayerCount: 2
Fore
SplineSet
451 1047 m 0,0,1
 451 1017 451 1017 427 995.5 c 128,-1,2
 403 974 403 974 373 974 c 0,3,4
 324 974 324 974 305 1022 c 2,5,-1
 155 1397 l 2,6,7
 149 1413 149 1413 149 1428 c 0,8,9
 149 1458 149 1458 173 1479.5 c 128,-1,10
 197 1501 197 1501 227 1501 c 0,11,12
 276 1501 276 1501 295 1453 c 2,13,-1
 445 1078 l 2,14,15
 451 1062 451 1062 451 1047 c 0,0,1
EndSplineSet
Validated: 1
EndChar

StartChar: a
Encoding: 97 97 68
Width: 1200
Flags: WO
LayerCount: 2
Fore
SplineSet
1075 75 m 2,0,1
 1075 0 1075 0 1000 0 c 128,-1,2
 924.949367089 0 924.949367089 0 924.949367089 100.700849223 c 0,3,4
 924.949367089 103.316455696 924.949367089 103.316455696 925 106 c 1,5,6
 777 0 777 0 575 0 c 0,7,8
 390 0 390 0 244 93 c 0,9,10
 75 201 75 201 75 375 c 256,11,12
 75 549 75 549 244 657 c 0,13,14
 391 750 391 750 575 750 c 0,15,16
 777 750 777 750 925 644 c 1,17,-1
 925 675 l 2,18,19
 925 719 925 719 894 764 c 0,20,21
 802 900 802 900 575 900 c 0,22,23
 445 900 445 900 318 826 c 0,24,25
 292 811 292 811 273 811 c 0,26,27
 243 811 243 811 220.5 834.5 c 128,-1,28
 198 858 198 858 198 889 c 0,29,30
 198 963 198 963 355 1012 c 0,31,32
 477 1050 477 1050 575 1050 c 0,33,34
 759 1050 759 1050 906 957 c 0,35,36
 1075 849 1075 849 1075 675 c 2,37,-1
 1075 75 l 2,0,1
925 375 m 256,38,39
 925 446 925 446 857 506 c 0,40,41
 800 556 800 556 722 579 c 0,42,43
 654 600 654 600 575 600 c 0,44,45
 343 600 343 600 252 458 c 0,46,47
 225 416 225 416 225 375 c 256,48,49
 225 334 225 334 252 292 c 0,50,51
 343 150 343 150 575 150 c 0,52,53
 654 150 654 150 722 171 c 0,54,55
 800 194 800 194 857 244 c 0,56,57
 925 304 925 304 925 375 c 256,38,39
EndSplineSet
Validated: 524289
EndChar

StartChar: b
Encoding: 98 98 69
Width: 1200
Flags: W
LayerCount: 2
Fore
SplineSet
1125 525 m 256,0,1
 1125 312 1125 312 982 158 c 0,2,3
 836 0 836 0 625 0 c 256,4,5
 414 0 414 0 268 158 c 0,6,7
 125 312 125 312 125 525 c 2,8,-1
 125 1425 l 2,9,10
 125 1500 125 1500 200 1500 c 256,11,12
 275 1500 275 1500 275 1425 c 2,13,-1
 275 900 l 1,14,15
 420 1050 420 1050 625 1050 c 0,16,17
 836 1050 836 1050 982 892 c 0,18,19
 1125 738 1125 738 1125 525 c 256,0,1
975 525 m 256,20,21
 975 676 975 676 876 786 c 0,22,23
 774 900 774 900 625 900 c 256,24,25
 476 900 476 900 374 786 c 0,26,27
 275 676 275 676 275 525 c 256,28,29
 275 374 275 374 374 264 c 0,30,31
 476 150 476 150 625 150 c 256,32,33
 774 150 774 150 876 264 c 0,34,35
 975 374 975 374 975 525 c 256,20,21
EndSplineSet
Validated: 1
EndChar

StartChar: c
Encoding: 99 99 70
Width: 1200
Flags: W
LayerCount: 2
Fore
SplineSet
1126 845 m 0,0,1
 1126 814 1126 814 1103 790.5 c 128,-1,2
 1080 767 1080 767 1050 767 c 0,3,4
 1029 767 1029 767 1001 786 c 0,5,6
 840 900 840 900 677 900 c 0,7,8
 505 900 505 900 371 800 c 0,9,10
 225 691 225 691 225 525 c 256,11,12
 225 359 225 359 372 250 c 0,13,14
 505 150 505 150 677 150 c 0,15,16
 839 150 839 150 1001 263 c 0,17,18
 1028 282 1028 282 1049 282 c 0,19,20
 1080 282 1080 282 1103 258.5 c 128,-1,21
 1126 235 1126 235 1126 205 c 0,22,23
 1126 176 1126 176 1098 149 c 0,24,25
 1028 79 1028 79 902 38 c 0,26,27
 787 0 787 0 677 0 c 0,28,29
 442 0 442 0 265 143 c 0,30,31
 75 295 75 295 75 525 c 256,32,33
 75 755 75 755 265 907 c 0,34,35
 442 1050 442 1050 677 1050 c 0,36,37
 787 1050 787 1050 902 1012 c 0,38,39
 1029 970 1029 970 1099 900 c 0,40,41
 1126 873 1126 873 1126 845 c 0,0,1
EndSplineSet
Validated: 1
EndChar

StartChar: d
Encoding: 100 100 71
Width: 1200
Flags: W
LayerCount: 2
Fore
SplineSet
1025 75 m 2,0,1
 1025 0 1025 0 950 0 c 0,2,3
 895 0 895 0 881 48 c 0,4,5
 875 69 875 69 875 142 c 1,6,7
 739 0 739 0 550 0 c 0,8,9
 345 0 345 0 207 162 c 0,10,11
 75 317 75 317 75 525 c 256,12,13
 75 733 75 733 207 888 c 0,14,15
 345 1050 345 1050 550 1050 c 0,16,17
 739 1050 739 1050 875 908 c 1,18,-1
 875 1425 l 2,19,20
 875 1500 875 1500 950 1500 c 256,21,22
 1025 1500 1025 1500 1025 1425 c 2,23,-1
 1025 75 l 2,0,1
875 525 m 256,24,25
 875 671 875 671 787 781 c 0,26,27
 692 900 692 900 550 900 c 256,28,29
 408 900 408 900 313 781 c 0,30,31
 225 671 225 671 225 525 c 256,32,33
 225 379 225 379 313 269 c 0,34,35
 408 150 408 150 550 150 c 256,36,37
 692 150 692 150 787 269 c 0,38,39
 875 379 875 379 875 525 c 256,24,25
EndSplineSet
Validated: 1
EndChar

StartChar: e
Encoding: 101 101 72
Width: 1200
Flags: W
LayerCount: 2
Fore
SplineSet
1126 301 m 0,0,1
 1126 282 1126 282 1114 260 c 0,2,3
 1045 140 1045 140 907 69 c 0,4,5
 776 0 776 0 632 0 c 0,6,7
 407 0 407 0 244 149 c 0,8,9
 75 302 75 302 75 525 c 256,10,11
 75 748 75 748 244 901 c 0,12,13
 407 1050 407 1050 632 1050 c 0,14,15
 714 1050 714 1050 803 1021 c 0,16,17
 903 988 903 988 1002 916 c 0,18,19
 1125 826 1125 826 1125 745 c 0,20,21
 1125 705 1125 705 1086 684 c 2,22,-1
 328 276 l 1,23,24
 451 150 451 150 632 150 c 0,25,26
 825 150 825 150 944 284 c 0,27,28
 958 302 958 302 986.5 339 c 128,-1,29
 1015 376 1015 376 1048 376 c 0,30,31
 1078 376 1078 376 1102 354 c 128,-1,32
 1126 332 1126 332 1126 301 c 0,0,1
937 774 m 1,33,34
 815 900 815 900 632 900 c 0,35,36
 470 900 470 900 350 795 c 0,37,38
 225 685 225 685 225 525 c 0,39,40
 225 461 225 461 247 403 c 1,41,-1
 937 774 l 1,33,34
EndSplineSet
Validated: 1
EndChar

StartChar: f
Encoding: 102 102 73
Width: 1200
Flags: W
LayerCount: 2
Fore
SplineSet
1126 1274 m 0,0,1
 1126 1244 1126 1244 1102.5 1221.5 c 128,-1,2
 1079 1199 1079 1199 1048 1199 c 0,3,4
 1023 1199 1023 1199 983 1238 c 0,5,6
 927 1292 927 1292 897 1311 c 0,7,8
 834 1350 834 1350 750 1350 c 0,9,10
 626 1350 626 1350 538 1262 c 128,-1,11
 450 1174 450 1174 450 1050 c 1,12,-1
 825 1050 l 2,13,14
 900 1050 900 1050 900 975 c 256,15,16
 900 900 900 900 825 900 c 2,17,-1
 450 900 l 1,18,-1
 450 75 l 2,19,20
 450 0 450 0 375 0 c 256,21,22
 300 0 300 0 300 75 c 2,23,-1
 300 900 l 1,24,-1
 150 900 l 2,25,26
 75 900 75 900 75 975 c 256,27,28
 75 1050 75 1050 150 1050 c 2,29,-1
 300 1050 l 1,30,31
 300 1236 300 1236 432 1368 c 128,-1,32
 564 1500 564 1500 750 1500 c 0,33,34
 852 1500 852 1500 952 1452 c 0,35,36
 1057 1402 1057 1402 1110 1320 c 0,37,38
 1126 1295 1126 1295 1126 1274 c 0,0,1
EndSplineSet
Validated: 1
EndChar

StartChar: g
Encoding: 103 103 74
Width: 1200
Flags: W
LayerCount: 2
Fore
SplineSet
1125 975 m 0,0,1
 1125 914 1125 914 1060 902 c 0,2,3
 1044 899 1044 899 949 900 c 1,4,5
 1035 802 1035 802 1035 675 c 0,6,7
 1035 495 1035 495 874 384 c 1,8,9
 1125 253 1125 253 1125 0 c 0,10,11
 1125 -198 1125 -198 958 -329 c 0,12,13
 804 -450 804 -450 600 -450 c 256,14,15
 396 -450 396 -450 242 -329 c 0,16,17
 75 -198 75 -198 75 0 c 0,18,19
 75 75 75 75 150 75 c 256,20,21
 225 75 225 75 225 0 c 0,22,23
 225 -135 225 -135 349 -222 c 0,24,25
 460 -300 460 -300 600 -300 c 256,26,27
 740 -300 740 -300 851 -222 c 0,28,29
 975 -135 975 -135 975 0 c 256,30,31
 975 135 975 135 851 222 c 0,32,33
 740 300 740 300 600 300 c 0,34,35
 431 300 431 300 303 401 c 0,36,37
 165 510 165 510 165 675 c 256,38,39
 165 840 165 840 303 949 c 0,40,41
 431 1050 431 1050 600 1050 c 2,42,-1
 1050 1050 l 2,43,44
 1125 1050 1125 1050 1125 975 c 0,0,1
885 675 m 256,45,46
 885 776 885 776 790 842 c 0,47,48
 706 900 706 900 600 900 c 256,49,50
 494 900 494 900 410 842 c 0,51,52
 315 776 315 776 315 675 c 256,53,54
 315 574 315 574 410 508 c 0,55,56
 494 450 494 450 600 450 c 256,57,58
 706 450 706 450 790 508 c 0,59,60
 885 574 885 574 885 675 c 256,45,46
EndSplineSet
Validated: 33
EndChar

StartChar: h
Encoding: 104 104 75
Width: 1200
Flags: W
LayerCount: 2
Fore
SplineSet
1075 75 m 2,0,1
 1075 0 1075 0 1000 0 c 256,2,3
 925 0 925 0 925 75 c 2,4,-1
 925 600 l 2,5,6
 925 724 925 724 837 812 c 128,-1,7
 749 900 749 900 625 900 c 256,8,9
 501 900 501 900 413 812 c 128,-1,10
 325 724 325 724 325 600 c 2,11,-1
 325 75 l 2,12,13
 325 0 325 0 250 0 c 256,14,15
 175 0 175 0 175 75 c 2,16,-1
 175 1425 l 2,17,18
 175 1500 175 1500 250 1500 c 256,19,20
 325 1500 325 1500 325 1425 c 2,21,-1
 325 935 l 1,22,23
 453 1050 453 1050 625 1050 c 0,24,25
 811 1050 811 1050 943 918 c 128,-1,26
 1075 786 1075 786 1075 600 c 2,27,-1
 1075 75 l 2,0,1
EndSplineSet
Validated: 1
EndChar

StartChar: i
Encoding: 105 105 76
Width: 1200
Flags: W
LayerCount: 2
Fore
SplineSet
714 1386 m 256,0,1
 714 1339 714 1339 680.5 1307 c 128,-1,2
 647 1275 647 1275 600 1275 c 256,3,4
 553 1275 553 1275 519.5 1307 c 128,-1,5
 486 1339 486 1339 486 1386 c 256,6,7
 486 1433 486 1433 519.5 1466.5 c 128,-1,8
 553 1500 553 1500 600 1500 c 256,9,10
 647 1500 647 1500 680.5 1466.5 c 128,-1,11
 714 1433 714 1433 714 1386 c 256,0,1
975 75 m 256,12,13
 975 0 975 0 900 0 c 2,14,-1
 600 0 l 2,15,16
 525 0 525 0 525 75 c 2,17,-1
 525 900 l 1,18,-1
 300 900 l 2,19,20
 225 900 225 900 225 975 c 256,21,22
 225 1050 225 1050 300 1050 c 2,23,-1
 601 1050 l 2,24,25
 675 1050 675 1050 675 975 c 2,26,-1
 675 150 l 1,27,-1
 900 150 l 2,28,29
 975 150 975 150 975 75 c 256,12,13
EndSplineSet
Validated: 1
EndChar

StartChar: j
Encoding: 106 106 77
Width: 1200
Flags: W
LayerCount: 2
Fore
SplineSet
1064 1386 m 256,0,1
 1064 1339 1064 1339 1030.5 1307 c 128,-1,2
 997 1275 997 1275 950 1275 c 256,3,4
 903 1275 903 1275 869.5 1307 c 128,-1,5
 836 1339 836 1339 836 1386 c 256,6,7
 836 1433 836 1433 869.5 1466.5 c 128,-1,8
 903 1500 903 1500 950 1500 c 256,9,10
 997 1500 997 1500 1030.5 1466.5 c 128,-1,11
 1064 1433 1064 1433 1064 1386 c 256,0,1
1025 75 m 2,12,13
 1025 -142 1025 -142 871 -296 c 128,-1,14
 717 -450 717 -450 500 -450 c 0,15,16
 386 -450 386 -450 273 -398 c 0,17,18
 154 -344 154 -344 92 -255 c 0,19,20
 74 -229 74 -229 74 -208 c 0,21,22
 74 -177 74 -177 97.5 -154.5 c 128,-1,23
 121 -132 121 -132 152 -132 c 0,24,25
 179 -132 179 -132 208 -160 c 0,26,27
 350 -300 350 -300 500 -300 c 0,28,29
 655 -300 655 -300 765 -190 c 128,-1,30
 875 -80 875 -80 875 75 c 2,31,-1
 875 900 l 1,32,-1
 650 900 l 2,33,34
 575 900 575 900 575 975 c 256,35,36
 575 1050 575 1050 650 1050 c 2,37,-1
 951 1050 l 2,38,39
 1025 1050 1025 1050 1025 976 c 2,40,-1
 1025 75 l 2,12,13
EndSplineSet
Validated: 1
EndChar

StartChar: k
Encoding: 107 107 78
Width: 1200
Flags: W
LayerCount: 2
Fore
SplineSet
1126 77 m 0,0,1
 1126 47 1126 47 1103.5 23 c 128,-1,2
 1081 -1 1081 -1 1051 -1 c 0,3,4
 1028 -1 1028 -1 1007 13 c 2,5,-1
 367 457 l 2,6,7
 330 482 330 482 325 511 c 1,8,-1
 325 75 l 2,9,10
 325 0 325 0 250 0 c 256,11,12
 175 0 175 0 175 75 c 2,13,-1
 175 1425 l 2,14,15
 175 1500 175 1500 250 1500 c 256,16,17
 325 1500 325 1500 325 1425 c 2,18,-1
 325 539 l 1,19,20
 330 568 330 568 367 593 c 2,21,-1
 1007 1037 l 2,22,23
 1028 1051 1028 1051 1051 1051 c 0,24,25
 1081 1051 1081 1051 1103.5 1027 c 128,-1,26
 1126 1003 1126 1003 1126 973 c 0,27,28
 1126 936 1126 936 1093 913 c 2,29,-1
 532 525 l 1,30,-1
 1093 137 l 2,31,32
 1126 114 1126 114 1126 77 c 0,0,1
EndSplineSet
Validated: 1
EndChar

StartChar: l
Encoding: 108 108 79
Width: 1200
Flags: W
LayerCount: 2
Fore
SplineSet
1126 226 m 0,0,1
 1126 205 1126 205 1110 180 c 0,2,3
 1057 99 1057 99 952 48 c 0,4,5
 852 0 852 0 750 0 c 0,6,7
 564 0 564 0 432 132 c 128,-1,8
 300 264 300 264 300 450 c 2,9,-1
 300 1425 l 2,10,11
 300 1500 300 1500 375 1500 c 256,12,13
 450 1500 450 1500 450 1425 c 2,14,-1
 450 450 l 2,15,16
 450 326 450 326 538 238 c 128,-1,17
 626 150 626 150 750 150 c 0,18,19
 859 150 859 150 944.5 225.5 c 128,-1,20
 1030 301 1030 301 1048 301 c 0,21,22
 1079 301 1079 301 1102.5 278.5 c 128,-1,23
 1126 256 1126 256 1126 226 c 0,0,1
EndSplineSet
Validated: 1
EndChar

StartChar: m
Encoding: 109 109 80
Width: 1200
Flags: W
LayerCount: 2
Fore
SplineSet
1125 75 m 2,0,1
 1125 0 1125 0 1050 0 c 256,2,3
 975 0 975 0 975 75 c 2,4,-1
 975 750 l 2,5,6
 975 812 975 812 931 856 c 128,-1,7
 887 900 887 900 825 900 c 256,8,9
 763 900 763 900 719 856 c 128,-1,10
 675 812 675 812 675 750 c 2,11,-1
 675 75 l 2,12,13
 675 0 675 0 600 0 c 256,14,15
 525 0 525 0 525 75 c 2,16,-1
 525 750 l 2,17,18
 525 812 525 812 481 856 c 128,-1,19
 437 900 437 900 375 900 c 256,20,21
 313 900 313 900 269 856 c 128,-1,22
 225 812 225 812 225 750 c 2,23,-1
 225 75 l 2,24,25
 225 0 225 0 150 0 c 256,26,27
 75 0 75 0 75 75 c 2,28,-1
 75 975 l 2,29,30
 75 1050 75 1050 150 1050 c 0,31,32
 201 1050 201 1050 219 1006 c 1,33,34
 291 1050 291 1050 375 1050 c 0,35,36
 510 1050 510 1050 600 948 c 1,37,38
 690 1050 690 1050 825 1050 c 0,39,40
 949 1050 949 1050 1037 962 c 128,-1,41
 1125 874 1125 874 1125 750 c 2,42,-1
 1125 75 l 2,0,1
EndSplineSet
Validated: 1
EndChar

StartChar: n
Encoding: 110 110 81
Width: 1200
Flags: W
LayerCount: 2
Fore
SplineSet
1075 75 m 2,0,1
 1075 0 1075 0 1000 0 c 256,2,3
 925 0 925 0 925 75 c 2,4,-1
 925 600 l 2,5,6
 925 724 925 724 837 812 c 128,-1,7
 749 900 749 900 625 900 c 256,8,9
 501 900 501 900 413 812 c 128,-1,10
 325 724 325 724 325 600 c 2,11,-1
 325 75 l 2,12,13
 325 0 325 0 250 0 c 256,14,15
 175 0 175 0 175 75 c 2,16,-1
 175 975 l 2,17,18
 175 1050 175 1050 250 1050 c 0,19,20
 326 1050 326 1050 325 935 c 1,21,22
 453 1050 453 1050 625 1050 c 0,23,24
 811 1050 811 1050 943 918 c 128,-1,25
 1075 786 1075 786 1075 600 c 2,26,-1
 1075 75 l 2,0,1
EndSplineSet
Validated: 33
EndChar

StartChar: o
Encoding: 111 111 82
Width: 1200
Flags: W
LayerCount: 2
Fore
SplineSet
1125 525 m 256,0,1
 1125 308 1125 308 971 154 c 128,-1,2
 817 0 817 0 600 0 c 256,3,4
 383 0 383 0 229 154 c 128,-1,5
 75 308 75 308 75 525 c 256,6,7
 75 742 75 742 229 896 c 128,-1,8
 383 1050 383 1050 600 1050 c 256,9,10
 817 1050 817 1050 971 896 c 128,-1,11
 1125 742 1125 742 1125 525 c 256,0,1
975 525 m 256,12,13
 975 680 975 680 865 790 c 128,-1,14
 755 900 755 900 600 900 c 256,15,16
 445 900 445 900 335 790 c 128,-1,17
 225 680 225 680 225 525 c 256,18,19
 225 370 225 370 335 260 c 128,-1,20
 445 150 445 150 600 150 c 256,21,22
 755 150 755 150 865 260 c 128,-1,23
 975 370 975 370 975 525 c 256,12,13
EndSplineSet
Validated: 1
EndChar

StartChar: p
Encoding: 112 112 83
Width: 1200
Flags: W
LayerCount: 2
Fore
SplineSet
1125 525 m 256,0,1
 1125 317 1125 317 993 162 c 0,2,3
 855 0 855 0 650 0 c 0,4,5
 461 0 461 0 325 142 c 1,6,-1
 325 -375 l 2,7,8
 325 -450 325 -450 250 -450 c 256,9,10
 175 -450 175 -450 175 -375 c 2,11,-1
 175 975 l 2,12,13
 175 1050 175 1050 250 1050 c 0,14,15
 305 1050 305 1050 319 1002 c 0,16,17
 325 981 325 981 325 908 c 1,18,19
 461 1050 461 1050 650 1050 c 0,20,21
 855 1050 855 1050 993 888 c 0,22,23
 1125 733 1125 733 1125 525 c 256,0,1
975 525 m 256,24,25
 975 671 975 671 887 781 c 0,26,27
 792 900 792 900 650 900 c 256,28,29
 508 900 508 900 413 781 c 0,30,31
 325 671 325 671 325 525 c 256,32,33
 325 379 325 379 413 269 c 0,34,35
 508 150 508 150 650 150 c 256,36,37
 792 150 792 150 887 269 c 0,38,39
 975 379 975 379 975 525 c 256,24,25
EndSplineSet
Validated: 1
EndChar

StartChar: q
Encoding: 113 113 84
Width: 1200
Flags: W
LayerCount: 2
Fore
SplineSet
1025 -375 m 2,0,1
 1025 -450 1025 -450 950 -450 c 256,2,3
 875 -450 875 -450 875 -375 c 2,4,-1
 875 142 l 1,5,6
 739 0 739 0 550 0 c 0,7,8
 345 0 345 0 207 162 c 0,9,10
 75 317 75 317 75 525 c 256,11,12
 75 733 75 733 207 888 c 0,13,14
 345 1050 345 1050 550 1050 c 0,15,16
 739 1050 739 1050 875 908 c 1,17,-1
 875 946 l 2,18,19
 873 1050 873 1050 950 1050 c 0,20,21
 1025 1050 1025 1050 1025 975 c 2,22,-1
 1025 -375 l 2,0,1
875 525 m 256,23,24
 875 671 875 671 787 781 c 0,25,26
 692 900 692 900 550 900 c 256,27,28
 408 900 408 900 313 781 c 0,29,30
 225 671 225 671 225 525 c 256,31,32
 225 379 225 379 313 269 c 0,33,34
 408 150 408 150 550 150 c 256,35,36
 692 150 692 150 787 269 c 0,37,38
 875 379 875 379 875 525 c 256,23,24
EndSplineSet
Validated: 33
EndChar

StartChar: r
Encoding: 114 114 85
Width: 1200
Flags: W
LayerCount: 2
Fore
SplineSet
1126 808 m 0,0,1
 1126 777 1126 777 1102.5 754.5 c 128,-1,2
 1079 732 1079 732 1048 732 c 0,3,4
 1020 732 1020 732 992 761 c 0,5,6
 854 900 854 900 700 900 c 0,7,8
 545 900 545 900 435 790 c 128,-1,9
 325 680 325 680 325 525 c 2,10,-1
 325 75 l 2,11,12
 325 0 325 0 250 0 c 256,13,14
 175 0 175 0 175 75 c 2,15,-1
 175 975 l 2,16,17
 175 1050 175 1050 250 1050 c 0,18,19
 308 1050 308 1050 322 994 c 0,20,21
 326 976 326 976 325 892 c 1,22,23
 479 1050 479 1050 700 1050 c 0,24,25
 814 1050 814 1050 927 998 c 0,26,27
 1046 944 1046 944 1108 855 c 0,28,29
 1126 829 1126 829 1126 808 c 0,0,1
EndSplineSet
Validated: 33
EndChar

StartChar: s
Encoding: 115 115 86
Width: 1200
Flags: W
LayerCount: 2
Fore
SplineSet
1056 338 m 0,0,1
 1056 178 1056 178 895 82 c 0,2,3
 758 0 758 0 587 0 c 0,4,5
 459 0 459 0 342 49 c 0,6,7
 207 106 207 106 154 207 c 0,8,9
 143 228 143 228 143 246 c 0,10,11
 143 276 143 276 167 298 c 128,-1,12
 191 320 191 320 221 320 c 0,13,14
 255 320 255 320 284 281 c 0,15,16
 383 150 383 150 587 150 c 0,17,18
 789 150 789 150 875 261 c 0,19,20
 906 301 906 301 906 338 c 0,21,22
 906 399 906 399 836 451 c 0,23,24
 780 491 780 491 708 509 c 0,25,26
 648 525 648 525 572 525 c 0,27,28
 443 525 443 525 341 590 c 0,29,30
 223 665 223 665 223 788 c 256,31,32
 223 911 223 911 344 986 c 0,33,34
 448 1050 448 1050 580 1050 c 0,35,36
 662 1050 662 1050 743 1021 c 0,37,38
 836 988 836 988 879 931 c 0,39,40
 899 905 899 905 899 882 c 0,41,42
 899 852 899 852 875.5 829 c 128,-1,43
 852 806 852 806 821 806 c 0,44,45
 808 806 808 806 738.5 853 c 128,-1,46
 669 900 669 900 580 900 c 0,47,48
 444 900 444 900 389 826 c 0,49,50
 373 805 373 805 373 788 c 0,51,52
 373 716 373 716 498 685 c 0,53,54
 540 675 540 675 598 675 c 0,55,56
 766 675 766 675 900 592 c 0,57,58
 1056 495 1056 495 1056 338 c 0,0,1
EndSplineSet
Validated: 1
EndChar

StartChar: t
Encoding: 116 116 87
Width: 1200
Flags: W
LayerCount: 2
Fore
SplineSet
1126 226 m 0,0,1
 1126 205 1126 205 1110 180 c 0,2,3
 1057 99 1057 99 952 48 c 0,4,5
 852 0 852 0 750 0 c 0,6,7
 564 0 564 0 432 132 c 128,-1,8
 300 264 300 264 300 450 c 2,9,-1
 300 900 l 1,10,-1
 150 900 l 2,11,12
 75 900 75 900 75 975 c 256,13,14
 75 1050 75 1050 150 1050 c 2,15,-1
 300 1050 l 1,16,-1
 300 1425 l 2,17,18
 300 1500 300 1500 375 1500 c 256,19,20
 450 1500 450 1500 450 1425 c 2,21,-1
 450 1050 l 1,22,-1
 825 1050 l 2,23,24
 900 1050 900 1050 900 975 c 256,25,26
 900 900 900 900 825 900 c 2,27,-1
 450 900 l 1,28,-1
 450 450 l 2,29,30
 450 326 450 326 538 238 c 128,-1,31
 626 150 626 150 750 150 c 0,32,33
 834 150 834 150 897 189 c 0,34,35
 927 208 927 208 983 262 c 0,36,37
 1023 301 1023 301 1048 301 c 0,38,39
 1079 301 1079 301 1102.5 278.5 c 128,-1,40
 1126 256 1126 256 1126 226 c 0,0,1
EndSplineSet
Validated: 1
EndChar

StartChar: u
Encoding: 117 117 88
Width: 1200
Flags: W
LayerCount: 2
Fore
SplineSet
1075 475 m 2,0,1
 1075 278 1075 278 936 139 c 128,-1,2
 797 0 797 0 600 0 c 256,3,4
 403 0 403 0 264 139 c 128,-1,5
 125 278 125 278 125 475 c 2,6,-1
 125 975 l 2,7,8
 125 1050 125 1050 200 1050 c 256,9,10
 275 1050 275 1050 275 975 c 2,11,-1
 275 475 l 2,12,13
 275 341 275 341 370.5 245.5 c 128,-1,14
 466 150 466 150 600 150 c 256,15,16
 734 150 734 150 829.5 245.5 c 128,-1,17
 925 341 925 341 925 475 c 2,18,-1
 925 975 l 2,19,20
 925 1050 925 1050 1000 1050 c 256,21,22
 1075 1050 1075 1050 1075 975 c 2,23,-1
 1075 475 l 2,0,1
EndSplineSet
Validated: 1
EndChar

StartChar: v
Encoding: 118 118 89
Width: 1200
Flags: W
LayerCount: 2
Fore
SplineSet
1126 977 m 0,0,1
 1126 959 1126 959 1117 941 c 2,2,-1
 674 54 l 2,3,4
 646 -1 646 -1 600 -1 c 256,5,6
 554 -1 554 -1 526 54 c 2,7,-1
 83 941 l 2,8,9
 74 959 74 959 74 977 c 0,10,11
 74 1008 74 1008 98 1029.5 c 128,-1,12
 122 1051 122 1051 152 1051 c 0,13,14
 196 1051 196 1051 217 1009 c 2,15,-1
 600 243 l 1,16,-1
 983 1009 l 2,17,18
 1004 1051 1004 1051 1048 1051 c 0,19,20
 1078 1051 1078 1051 1102 1029.5 c 128,-1,21
 1126 1008 1126 1008 1126 977 c 0,0,1
EndSplineSet
Validated: 1
EndChar

StartChar: w
Encoding: 119 119 90
Width: 1200
Flags: W
LayerCount: 2
Fore
SplineSet
1126 978 m 0,0,1
 1126 966 1126 966 1122 953 c 2,2,-1
 855 65 l 2,3,4
 836 0 836 0 780 0 c 256,5,6
 724 0 724 0 705 65 c 2,7,-1
 600 413 l 1,8,-1
 495 65 l 2,9,10
 476 0 476 0 420 0 c 256,11,12
 364 0 364 0 345 65 c 2,13,-1
 78 953 l 2,14,15
 74 966 74 966 74 978 c 0,16,17
 74 1050 74 1050 152 1050 c 0,18,19
 206 1050 206 1050 222 997 c 2,20,-1
 420 336 l 1,21,-1
 522 674 l 1,22,23
 434 966 434 966 434 978 c 0,24,25
 434 1050 434 1050 512 1050 c 0,26,27
 566 1050 566 1050 582 997 c 2,28,-1
 780 336 l 1,29,-1
 978 997 l 2,30,31
 994 1050 994 1050 1048 1050 c 0,32,33
 1126 1050 1126 1050 1126 978 c 0,0,1
EndSplineSet
Validated: 1
EndChar

StartChar: x
Encoding: 120 120 91
Width: 1200
Flags: W
LayerCount: 2
Fore
SplineSet
1126 974 m 0,0,1
 1126 945 1126 945 1103 922 c 2,2,-1
 706 525 l 1,3,-1
 1103 128 l 2,4,5
 1126 105 1126 105 1126 76 c 0,6,7
 1126 45 1126 45 1103 22 c 128,-1,8
 1080 -1 1080 -1 1049 -1 c 0,9,10
 1020 -1 1020 -1 997 22 c 2,11,-1
 600 419 l 1,12,-1
 203 22 l 2,13,14
 180 -1 180 -1 151 -1 c 0,15,16
 120 -1 120 -1 97 22 c 128,-1,17
 74 45 74 45 74 76 c 0,18,19
 74 105 74 105 97 128 c 2,20,-1
 494 525 l 1,21,-1
 97 922 l 2,22,23
 74 945 74 945 74 974 c 0,24,25
 74 1005 74 1005 97 1028 c 128,-1,26
 120 1051 120 1051 151 1051 c 0,27,28
 180 1051 180 1051 203 1028 c 2,29,-1
 600 631 l 1,30,-1
 997 1028 l 2,31,32
 1020 1051 1020 1051 1049 1051 c 0,33,34
 1080 1051 1080 1051 1103 1028 c 128,-1,35
 1126 1005 1126 1005 1126 974 c 0,0,1
EndSplineSet
Validated: 1
EndChar

StartChar: y
Encoding: 121 121 92
Width: 1200
Flags: W
LayerCount: 2
Fore
SplineSet
1025 975 m 2,0,-1
 1025 0 l 2,1,2
 1025 -186 1025 -186 893 -318 c 128,-1,3
 761 -450 761 -450 575 -450 c 0,4,5
 457 -450 457 -450 351 -390 c 0,6,7
 241 -328 241 -328 186 -227 c 0,8,9
 175 -205 175 -205 175 -187 c 0,10,11
 175 -157 175 -157 199 -135 c 128,-1,12
 223 -113 223 -113 253 -113 c 0,13,14
 287 -113 287 -113 316 -151 c 0,15,16
 428 -300 428 -300 575 -300 c 0,17,18
 699 -300 699 -300 787 -212 c 128,-1,19
 875 -124 875 -124 875 0 c 2,20,-1
 875 115 l 1,21,22
 747 0 747 0 575 0 c 0,23,24
 389 0 389 0 257 132 c 128,-1,25
 125 264 125 264 125 450 c 2,26,-1
 125 975 l 2,27,28
 125 1050 125 1050 200 1050 c 256,29,30
 275 1050 275 1050 275 975 c 2,31,-1
 275 450 l 2,32,33
 275 326 275 326 363 238 c 128,-1,34
 451 150 451 150 575 150 c 256,35,36
 699 150 699 150 787 238 c 128,-1,37
 875 326 875 326 875 449 c 2,38,-1
 875 975 l 2,39,40
 875 1050 875 1050 950 1050 c 256,41,42
 1025 1050 1025 1050 1025 975 c 2,0,-1
EndSplineSet
Validated: 1
EndChar

StartChar: z
Encoding: 122 122 93
Width: 1200
Flags: W
LayerCount: 2
Fore
SplineSet
1126 974 m 0,0,1
 1126 945 1126 945 1093 912 c 2,2,-1
 331 150 l 1,3,-1
 1050 150 l 2,4,5
 1125 150 1125 150 1125 75 c 256,6,7
 1125 0 1125 0 1050 0 c 2,8,-1
 152 -1 l 2,9,10
 74 -1 74 -1 74 76 c 0,11,12
 74 105 74 105 107 138 c 2,13,-1
 869 900 l 1,14,-1
 150 900 l 2,15,16
 75 900 75 900 75 975 c 256,17,18
 75 1050 75 1050 150 1050 c 2,19,-1
 1048 1051 l 2,20,21
 1126 1051 1126 1051 1126 974 c 0,0,1
EndSplineSet
Validated: 1
EndChar

StartChar: braceleft
Encoding: 123 123 94
Width: 1200
Flags: W
LayerCount: 2
Fore
SplineSet
900 -375 m 256,0,1
 900 -450 900 -450 825 -450 c 0,2,3
 701 -450 701 -450 613 -362 c 128,-1,4
 525 -274 525 -274 525 -150 c 2,5,-1
 525 300 l 2,6,7
 525 362 525 362 481 406 c 128,-1,8
 437 450 437 450 375 450 c 0,9,10
 300 450 300 450 300 525 c 256,11,12
 300 600 300 600 375 600 c 0,13,14
 437 600 437 600 481 644 c 128,-1,15
 525 688 525 688 525 750 c 2,16,-1
 525 1200 l 2,17,18
 525 1324 525 1324 613 1412 c 128,-1,19
 701 1500 701 1500 825 1500 c 0,20,21
 900 1500 900 1500 900 1425 c 256,22,23
 900 1350 900 1350 825 1350 c 0,24,25
 763 1350 763 1350 719 1306 c 128,-1,26
 675 1262 675 1262 675 1200 c 2,27,-1
 675 750 l 2,28,29
 675 615 675 615 573 525 c 1,30,31
 675 435 675 435 675 300 c 2,32,-1
 675 -150 l 2,33,34
 675 -212 675 -212 719 -256 c 128,-1,35
 763 -300 763 -300 825 -300 c 0,36,37
 900 -300 900 -300 900 -375 c 256,0,1
EndSplineSet
Validated: 1
EndChar

StartChar: bar
Encoding: 124 124 95
Width: 1200
Flags: W
LayerCount: 2
Fore
SplineSet
675 -375 m 2,0,1
 675 -450 675 -450 600 -450 c 256,2,3
 525 -450 525 -450 525 -375 c 2,4,-1
 525 1425 l 2,5,6
 525 1500 525 1500 600 1500 c 256,7,8
 675 1500 675 1500 675 1425 c 2,9,-1
 675 -375 l 2,0,1
EndSplineSet
Validated: 1
EndChar

StartChar: braceright
Encoding: 125 125 96
Width: 1200
Flags: W
LayerCount: 2
Fore
SplineSet
900 525 m 256,0,1
 900 450 900 450 825 450 c 0,2,3
 763 450 763 450 719 406 c 128,-1,4
 675 362 675 362 675 300 c 2,5,-1
 675 -150 l 2,6,7
 675 -274 675 -274 587 -362 c 128,-1,8
 499 -450 499 -450 375 -450 c 0,9,10
 300 -450 300 -450 300 -375 c 256,11,12
 300 -300 300 -300 375 -300 c 0,13,14
 437 -300 437 -300 481 -256 c 128,-1,15
 525 -212 525 -212 525 -150 c 2,16,-1
 525 300 l 2,17,18
 525 435 525 435 627 525 c 1,19,20
 525 615 525 615 525 750 c 2,21,-1
 525 1200 l 2,22,23
 525 1262 525 1262 481 1306 c 128,-1,24
 437 1350 437 1350 375 1350 c 0,25,26
 300 1350 300 1350 300 1425 c 256,27,28
 300 1500 300 1500 375 1500 c 0,29,30
 499 1500 499 1500 587 1412 c 128,-1,31
 675 1324 675 1324 675 1200 c 2,32,-1
 675 750 l 2,33,34
 675 688 675 688 719 644 c 128,-1,35
 763 600 763 600 825 600 c 0,36,37
 900 600 900 600 900 525 c 256,0,1
EndSplineSet
Validated: 1
EndChar

StartChar: asciitilde
Encoding: 126 126 97
Width: 1200
Flags: W
LayerCount: 2
Fore
SplineSet
976 528 m 0,0,1
 976 504 976 504 958 474 c 0,2,3
 900 375 900 375 750 375 c 0,4,5
 665 375 665 375 573.5 450 c 128,-1,6
 482 525 482 525 450 525 c 0,7,8
 399 525 399 525 371 501 c 1,9,10
 354 450 354 450 302 450 c 0,11,12
 224 450 224 450 224 522 c 0,13,14
 224 546 224 546 242 576 c 0,15,16
 300 675 300 675 450 675 c 0,17,18
 535 675 535 675 626.5 600 c 128,-1,19
 718 525 718 525 750 525 c 0,20,21
 811 525 811 525 836.5 562.5 c 128,-1,22
 862 600 862 600 898 600 c 0,23,24
 976 600 976 600 976 528 c 0,0,1
EndSplineSet
Validated: 1
EndChar

StartChar: exclamdown
Encoding: 161 161 98
Width: 1200
Flags: W
LayerCount: 2
Fore
SplineSet
714 936 m 256,0,1
 714 889 714 889 680.5 857 c 128,-1,2
 647 825 647 825 600 825 c 256,3,4
 553 825 553 825 519.5 857 c 128,-1,5
 486 889 486 889 486 936 c 256,6,7
 486 983 486 983 519.5 1016.5 c 128,-1,8
 553 1050 553 1050 600 1050 c 256,9,10
 647 1050 647 1050 680.5 1016.5 c 128,-1,11
 714 983 714 983 714 936 c 256,0,1
675 -375 m 2,12,13
 675 -450 675 -450 600 -450 c 256,14,15
 525 -450 525 -450 525 -375 c 2,16,-1
 525 600 l 2,17,18
 525 675 525 675 600 675 c 256,19,20
 675 675 675 675 675 600 c 2,21,-1
 675 -375 l 2,12,13
EndSplineSet
Validated: 1
EndChar

StartChar: cent
Encoding: 162 162 99
Width: 1200
Flags: W
LayerCount: 2
Fore
SplineSet
1126 845 m 0,0,1
 1126 814 1126 814 1103 790.5 c 128,-1,2
 1080 767 1080 767 1050 767 c 0,3,4
 1029 767 1029 767 1001 786 c 0,5,6
 869 879 869 879 752 895 c 1,7,-1
 752 155 l 1,8,9
 869 171 869 171 1001 263 c 0,10,11
 1028 282 1028 282 1049 282 c 0,12,13
 1080 282 1080 282 1103 258.5 c 128,-1,14
 1126 235 1126 235 1126 205 c 0,15,16
 1126 176 1126 176 1098 149 c 0,17,18
 974 28 974 28 752 4 c 1,19,-1
 752 -175 l 2,20,21
 752 -250 752 -250 677 -250 c 256,22,23
 602 -250 602 -250 602 -175 c 2,24,-1
 602 4 l 1,25,26
 388 28 388 28 237 167 c 0,27,28
 75 316 75 316 75 525 c 256,29,30
 75 734 75 734 237 883 c 0,31,32
 388 1022 388 1022 602 1046 c 1,33,-1
 602 1225 l 2,34,35
 602 1300 602 1300 677 1300 c 256,36,37
 752 1300 752 1300 752 1225 c 2,38,-1
 752 1046 l 1,39,40
 975 1022 975 1022 1099 900 c 0,41,42
 1126 873 1126 873 1126 845 c 0,0,1
602 155 m 1,43,-1
 602 895 l 1,44,45
 451 874 451 874 343 777 c 0,46,47
 225 671 225 671 225 525 c 256,48,49
 225 379 225 379 343 273 c 0,50,51
 451 176 451 176 602 155 c 1,43,-1
EndSplineSet
Validated: 1
EndChar

StartChar: sterling
Encoding: 163 163 100
Width: 1200
Flags: W
LayerCount: 2
Fore
SplineSet
1125 75 m 256,0,1
 1125 0 1125 0 1050 0 c 2,2,-1
 150 0 l 2,3,4
 72 0 72 0 72 75 c 256,5,6
 72 150 72 150 150 150 c 0,7,8
 212 150 212 150 256 194 c 128,-1,9
 300 238 300 238 300 300 c 2,10,-1
 300 600 l 1,11,-1
 150 600 l 2,12,13
 75 600 75 600 75 675 c 256,14,15
 75 750 75 750 150 750 c 2,16,-1
 300 750 l 1,17,-1
 300 900 l 1,18,-1
 150 900 l 2,19,20
 75 900 75 900 75 975 c 256,21,22
 75 1050 75 1050 150 1050 c 2,23,-1
 300 1050 l 1,24,-1
 300 1200 l 2,25,26
 300 1324 300 1324 388 1412 c 128,-1,27
 476 1500 476 1500 600 1500 c 0,28,29
 685 1500 685 1500 746 1469 c 0,30,31
 825 1430 825 1430 825 1354 c 0,32,33
 825 1276 825 1276 765 1276 c 0,34,35
 743 1276 743 1276 697 1313 c 128,-1,36
 651 1350 651 1350 600 1350 c 0,37,38
 538 1350 538 1350 494 1306 c 128,-1,39
 450 1262 450 1262 450 1200 c 2,40,-1
 450 1050 l 1,41,-1
 600 1050 l 2,42,43
 675 1050 675 1050 675 975 c 256,44,45
 675 900 675 900 600 900 c 2,46,-1
 450 900 l 1,47,-1
 450 750 l 1,48,-1
 600 750 l 2,49,50
 675 750 675 750 675 675 c 256,51,52
 675 600 675 600 600 600 c 2,53,-1
 450 600 l 1,54,-1
 450 300 l 2,55,56
 450 219 450 219 410 150 c 1,57,-1
 1050 150 l 2,58,59
 1125 150 1125 150 1125 75 c 256,0,1
EndSplineSet
Validated: 1
EndChar

StartChar: currency
Encoding: 164 164 101
Width: 1200
Flags: W
LayerCount: 2
Fore
SplineSet
1126 974 m 0,0,1
 1126 944 1126 944 1020 839 c 1,2,3
 1125 700 1125 700 1125 525 c 256,4,5
 1125 350 1125 350 1020 211 c 1,6,7
 1126 106 1126 106 1126 76 c 0,8,9
 1126 45 1126 45 1103 22 c 128,-1,10
 1080 -1 1080 -1 1049 -1 c 0,11,12
 1019 -1 1019 -1 914 105 c 1,13,14
 775 0 775 0 600 0 c 256,15,16
 425 0 425 0 286 105 c 1,17,18
 181 -1 181 -1 151 -1 c 0,19,20
 120 -1 120 -1 97 22 c 128,-1,21
 74 45 74 45 74 76 c 0,22,23
 74 106 74 106 180 211 c 1,24,25
 75 350 75 350 75 525 c 256,26,27
 75 700 75 700 180 839 c 1,28,29
 74 944 74 944 74 974 c 0,30,31
 74 1005 74 1005 97 1028 c 128,-1,32
 120 1051 120 1051 151 1051 c 0,33,34
 181 1051 181 1051 286 945 c 1,35,36
 425 1050 425 1050 600 1050 c 256,37,38
 775 1050 775 1050 914 945 c 1,39,40
 1019 1051 1019 1051 1049 1051 c 0,41,42
 1080 1051 1080 1051 1103 1028 c 128,-1,43
 1126 1005 1126 1005 1126 974 c 0,0,1
975 525 m 256,44,45
 975 680 975 680 865 790 c 128,-1,46
 755 900 755 900 600 900 c 256,47,48
 445 900 445 900 335 790 c 128,-1,49
 225 680 225 680 225 525 c 256,50,51
 225 370 225 370 335 260 c 128,-1,52
 445 150 445 150 600 150 c 256,53,54
 755 150 755 150 865 260 c 128,-1,55
 975 370 975 370 975 525 c 256,44,45
EndSplineSet
Validated: 1
EndChar

StartChar: yen
Encoding: 165 165 102
Width: 1200
Flags: W
LayerCount: 2
Fore
SplineSet
1126 1426 m 0,0,1
 1126 1404 1126 1404 1112 1383 c 2,2,-1
 740 825 l 1,3,-1
 900 825 l 2,4,5
 975 825 975 825 975 750 c 256,6,7
 975 675 975 675 900 675 c 2,8,-1
 675 675 l 1,9,-1
 675 525 l 1,10,-1
 900 525 l 2,11,12
 975 525 975 525 975 450 c 256,13,14
 975 375 975 375 900 375 c 2,15,-1
 675 375 l 1,16,-1
 675 75 l 2,17,18
 675 0 675 0 600 0 c 256,19,20
 525 0 525 0 525 75 c 2,21,-1
 525 375 l 1,22,-1
 300 375 l 2,23,24
 225 375 225 375 225 450 c 256,25,26
 225 525 225 525 300 525 c 2,27,-1
 525 525 l 1,28,-1
 525 675 l 1,29,-1
 300 675 l 2,30,31
 225 675 225 675 225 750 c 256,32,33
 225 825 225 825 300 825 c 2,34,-1
 460 825 l 1,35,-1
 88 1383 l 2,36,37
 74 1404 74 1404 74 1426 c 0,38,39
 74 1456 74 1456 98 1478.5 c 128,-1,40
 122 1501 122 1501 152 1501 c 0,41,42
 189 1501 189 1501 212 1467 c 2,43,-1
 600 885 l 1,44,-1
 988 1467 l 2,45,46
 1011 1501 1011 1501 1048 1501 c 0,47,48
 1078 1501 1078 1501 1102 1478.5 c 128,-1,49
 1126 1456 1126 1456 1126 1426 c 0,0,1
EndSplineSet
Validated: 1
EndChar

StartChar: brokenbar
Encoding: 166 166 103
Width: 1200
Flags: W
LayerCount: 2
Fore
SplineSet
675 675 m 2,0,1
 675 600 675 600 600 600 c 256,2,3
 525 600 525 600 525 675 c 2,4,-1
 525 1425 l 2,5,6
 525 1500 525 1500 600 1500 c 256,7,8
 675 1500 675 1500 675 1425 c 2,9,-1
 675 675 l 2,0,1
675 -375 m 2,10,11
 675 -450 675 -450 600 -450 c 256,12,13
 525 -450 525 -450 525 -375 c 2,14,-1
 525 375 l 2,15,16
 525 450 525 450 600 450 c 256,17,18
 675 450 675 450 675 375 c 2,19,-1
 675 -375 l 2,10,11
EndSplineSet
Validated: 1
EndChar

StartChar: section
Encoding: 167 167 104
Width: 1200
Flags: W
LayerCount: 2
Fore
SplineSet
1125 -75 m 0,0,1
 1125 -252 1125 -252 944 -359 c 0,2,3
 790 -450 790 -450 600 -450 c 0,4,5
 476 -450 476 -450 356 -407 c 0,6,7
 219 -359 219 -359 152 -273 c 0,8,9
 133 -248 133 -248 133 -224 c 0,10,11
 133 -194 133 -194 156.5 -171 c 128,-1,12
 180 -148 180 -148 211 -148 c 0,13,14
 236 -148 236 -148 266 -175 c 0,15,16
 405 -300 405 -300 600 -300 c 0,17,18
 851 -300 851 -300 947 -156 c 0,19,20
 975 -114 975 -114 975 -75 c 256,21,22
 975 -36 975 -36 947 6 c 0,23,24
 851 150 851 150 600 150 c 0,25,26
 410 150 410 150 256 241 c 0,27,28
 75 348 75 348 75 525 c 0,29,30
 75 715 75 715 284 825 c 1,31,32
 75 935 75 935 75 1125 c 0,33,34
 75 1302 75 1302 256 1409 c 0,35,36
 410 1500 410 1500 600 1500 c 0,37,38
 724 1500 724 1500 844 1457 c 0,39,40
 981 1409 981 1409 1048 1323 c 0,41,42
 1067 1298 1067 1298 1067 1274 c 0,43,44
 1067 1244 1067 1244 1043.5 1221 c 128,-1,45
 1020 1198 1020 1198 989 1198 c 0,46,47
 964 1198 964 1198 934 1225 c 0,48,49
 795 1350 795 1350 600 1350 c 0,50,51
 349 1350 349 1350 253 1206 c 0,52,53
 225 1164 225 1164 225 1125 c 256,54,55
 225 1086 225 1086 253 1044 c 0,56,57
 349 900 349 900 600 900 c 0,58,59
 790 900 790 900 944 809 c 0,60,61
 1125 702 1125 702 1125 525 c 0,62,63
 1125 335 1125 335 916 225 c 1,64,65
 1125 115 1125 115 1125 -75 c 0,0,1
975 525 m 256,66,67
 975 596 975 596 900 657 c 0,68,69
 839 706 839 706 759 729 c 0,70,71
 685 750 685 750 600 750 c 256,72,73
 515 750 515 750 441 729 c 0,74,75
 361 706 361 706 300 657 c 0,76,77
 225 596 225 596 225 525 c 256,78,79
 225 454 225 454 300 393 c 0,80,81
 361 344 361 344 441 321 c 0,82,83
 515 300 515 300 600 300 c 256,84,85
 685 300 685 300 759 321 c 0,86,87
 839 344 839 344 900 393 c 0,88,89
 975 454 975 454 975 525 c 256,66,67
EndSplineSet
Validated: 1
EndChar

StartChar: dieresis
Encoding: 168 168 105
Width: 1200
Flags: W
LayerCount: 2
Fore
SplineSet
938 1313 m 256,0,1
 938 1266 938 1266 904.5 1233 c 128,-1,2
 871 1200 871 1200 825 1200 c 0,3,4
 778 1200 778 1200 745.5 1233 c 128,-1,5
 713 1266 713 1266 713 1313 c 256,6,7
 713 1360 713 1360 745.5 1392.5 c 128,-1,8
 778 1425 778 1425 825 1425 c 256,9,10
 872 1425 872 1425 905 1392.5 c 128,-1,11
 938 1360 938 1360 938 1313 c 256,0,1
488 1313 m 256,12,13
 488 1266 488 1266 454.5 1233 c 128,-1,14
 421 1200 421 1200 375 1200 c 0,15,16
 328 1200 328 1200 295.5 1233 c 128,-1,17
 263 1266 263 1266 263 1313 c 256,18,19
 263 1360 263 1360 295.5 1392.5 c 128,-1,20
 328 1425 328 1425 375 1425 c 256,21,22
 422 1425 422 1425 455 1392.5 c 128,-1,23
 488 1360 488 1360 488 1313 c 256,12,13
EndSplineSet
Validated: 1
EndChar

StartChar: copyright
Encoding: 169 169 106
Width: 1200
Flags: W
LayerCount: 2
Fore
SplineSet
1125 750 m 256,0,1
 1125 481 1125 481 999 261 c 0,2,3
 849 0 849 0 600 0 c 256,4,5
 351 0 351 0 201 261 c 0,6,7
 75 481 75 481 75 750 c 256,8,9
 75 1019 75 1019 201 1239 c 0,10,11
 351 1500 351 1500 600 1500 c 256,12,13
 849 1500 849 1500 999 1239 c 0,14,15
 1125 1019 1125 1019 1125 750 c 256,0,1
975 750 m 256,16,17
 975 881 975 881 942 996 c 0,18,19
 903 1132 903 1132 822 1230 c 0,20,21
 722 1350 722 1350 600 1350 c 256,22,23
 478 1350 478 1350 378 1230 c 0,24,25
 297 1132 297 1132 258 996 c 0,26,27
 225 881 225 881 225 750 c 256,28,29
 225 619 225 619 258 504 c 0,30,31
 297 368 297 368 378 270 c 0,32,33
 478 150 478 150 600 150 c 256,34,35
 722 150 722 150 822 270 c 0,36,37
 903 368 903 368 942 504 c 0,38,39
 975 619 975 619 975 750 c 256,16,17
835 512 m 0,40,41
 835 493 835 493 821 470 c 0,42,43
 744 338 744 338 600 338 c 0,44,45
 459 338 459 338 373 478 c 0,46,47
 300 599 300 599 300 750 c 256,48,49
 300 901 300 901 373 1022 c 0,50,51
 459 1163 459 1163 600 1163 c 0,52,53
 744 1163 744 1163 821 1030 c 0,54,55
 835 1007 835 1007 835 988 c 0,56,57
 835 957 835 957 811 935 c 128,-1,58
 787 913 787 913 757 913 c 0,59,60
 725 913 725 913 683.5 963 c 128,-1,61
 642 1013 642 1013 600 1013 c 0,62,63
 574 1013 574 1013 544 990 c 0,64,65
 450 920 450 920 450 750 c 256,66,67
 450 580 450 580 544 510 c 0,68,69
 574 488 574 488 600 488 c 0,70,71
 642 488 642 488 683.5 537.5 c 128,-1,72
 725 587 725 587 757 587 c 0,73,74
 787 587 787 587 811 565 c 128,-1,75
 835 543 835 543 835 512 c 0,40,41
EndSplineSet
Validated: 1
EndChar

StartChar: ordfeminine
Encoding: 170 170 107
Width: 1200
Flags: W
LayerCount: 2
Fore
SplineSet
1013 795 m 2,0,1
 1013 720 1013 720 938 720 c 0,2,3
 870 720 870 720 863 784 c 1,4,5
 746 720 746 720 600 720 c 0,6,7
 451 720 451 720 331 787 c 0,8,9
 188 868 188 868 188 1005 c 256,10,11
 188 1142 188 1142 331 1223 c 0,12,13
 451 1290 451 1290 600 1290 c 0,14,15
 745 1290 745 1290 861 1227 c 1,16,17
 844 1289 844 1289 752 1323 c 0,18,19
 679 1350 679 1350 600 1350 c 0,20,21
 500 1350 500 1350 401 1300 c 0,22,23
 376 1287 376 1287 360 1287 c 0,24,25
 329 1287 329 1287 307 1311 c 128,-1,26
 285 1335 285 1335 285 1366 c 0,27,28
 285 1431 285 1431 415 1471 c 0,29,30
 512 1500 512 1500 600 1500 c 0,31,32
 749 1500 749 1500 869 1433 c 0,33,34
 1013 1352 1013 1352 1013 1215 c 2,35,-1
 1013 795 l 2,0,1
1012 525 m 256,36,37
 1012 450 1012 450 937 450 c 2,38,-1
 262 450 l 2,39,40
 187 450 187 450 187 525 c 256,41,42
 187 600 187 600 262 600 c 2,43,-1
 937 600 l 2,44,45
 1012 600 1012 600 1012 525 c 256,36,37
863 1005 m 256,46,47
 863 1029 863 1029 837 1058 c 0,48,49
 765 1140 765 1140 600 1140 c 0,50,51
 423 1140 423 1140 355 1049 c 0,52,53
 338 1024 338 1024 338 1005 c 0,54,55
 338 975 338 975 374 940 c 0,56,57
 450 870 450 870 600 870 c 0,58,59
 766 870 766 870 838 953 c 0,60,61
 863 981 863 981 863 1005 c 256,46,47
EndSplineSet
Validated: 1
EndChar

StartChar: guillemotleft
Encoding: 171 171 108
Width: 1200
Flags: W
LayerCount: 2
Fore
SplineSet
1051 73 m 0,0,1
 1051 42 1051 42 1027 20.5 c 128,-1,2
 1003 -1 1003 -1 973 -1 c 0,3,4
 929 -1 929 -1 908 41 c 2,5,-1
 688 482 l 2,6,7
 674 509 674 509 674 525 c 256,8,9
 674 541 674 541 688 568 c 2,10,-1
 908 1009 l 2,11,12
 929 1051 929 1051 973 1051 c 0,13,14
 1003 1051 1003 1051 1027 1029.5 c 128,-1,15
 1051 1008 1051 1008 1051 977 c 0,16,17
 1051 959 1051 959 1042 941 c 2,18,-1
 834 525 l 1,19,-1
 1042 109 l 2,20,21
 1051 91 1051 91 1051 73 c 0,0,1
526 73 m 0,22,23
 526 42 526 42 502 20.5 c 128,-1,24
 478 -1 478 -1 448 -1 c 0,25,26
 404 -1 404 -1 383 41 c 2,27,-1
 163 482 l 2,28,29
 149 509 149 509 149 525 c 256,30,31
 149 541 149 541 163 568 c 2,32,-1
 383 1009 l 2,33,34
 404 1051 404 1051 448 1051 c 0,35,36
 478 1051 478 1051 502 1029.5 c 128,-1,37
 526 1008 526 1008 526 977 c 0,38,39
 526 959 526 959 517 941 c 2,40,-1
 309 525 l 1,41,-1
 517 109 l 2,42,43
 526 91 526 91 526 73 c 0,22,23
EndSplineSet
Validated: 1
EndChar

StartChar: logicalnot
Encoding: 172 172 109
Width: 1200
Flags: W
LayerCount: 2
Fore
SplineSet
1025 75 m 2,0,1
 1025 0 1025 0 950 0 c 256,2,3
 875 0 875 0 875 75 c 2,4,-1
 875 450 l 1,5,-1
 150 450 l 2,6,7
 75 450 75 450 75 525 c 256,8,9
 75 600 75 600 150 600 c 2,10,-1
 950 600 l 2,11,12
 980 600 980 600 1002.5 577.5 c 128,-1,13
 1025 555 1025 555 1025 525 c 2,14,-1
 1025 75 l 2,0,1
EndSplineSet
Validated: 1
EndChar

StartChar: registered
Encoding: 174 174 111
Width: 1200
Flags: W
LayerCount: 2
Fore
SplineSet
1125 750 m 256,0,1
 1125 481 1125 481 999 261 c 0,2,3
 849 0 849 0 600 0 c 256,4,5
 351 0 351 0 201 261 c 0,6,7
 75 481 75 481 75 750 c 256,8,9
 75 1019 75 1019 201 1239 c 0,10,11
 351 1500 351 1500 600 1500 c 256,12,13
 849 1500 849 1500 999 1239 c 0,14,15
 1125 1019 1125 1019 1125 750 c 256,0,1
975 750 m 256,16,17
 975 881 975 881 942 996 c 0,18,19
 903 1132 903 1132 822 1230 c 0,20,21
 722 1350 722 1350 600 1350 c 256,22,23
 478 1350 478 1350 378 1230 c 0,24,25
 297 1132 297 1132 258 996 c 0,26,27
 225 881 225 881 225 750 c 256,28,29
 225 619 225 619 258 504 c 0,30,31
 297 368 297 368 378 270 c 0,32,33
 478 150 478 150 600 150 c 256,34,35
 722 150 722 150 822 270 c 0,36,37
 903 368 903 368 942 504 c 0,38,39
 975 619 975 619 975 750 c 256,16,17
901 413 m 0,40,41
 901 383 901 383 878 359.5 c 128,-1,42
 855 336 855 336 824 336 c 0,43,44
 795 336 795 336 772 359 c 2,45,-1
 525 606 l 1,46,-1
 525 413 l 2,47,48
 525 338 525 338 450 338 c 256,49,50
 375 338 375 338 375 413 c 2,51,-1
 375 1088 l 2,52,53
 375 1117 375 1117 397.5 1140 c 128,-1,54
 420 1163 420 1163 450 1163 c 2,55,-1
 638 1163 l 2,56,57
 746 1163 746 1163 823 1085.5 c 128,-1,58
 900 1008 900 1008 900 900 c 0,59,60
 900 809 900 809 843.5 737.5 c 128,-1,61
 787 666 787 666 699 645 c 1,62,-1
 878 466 l 2,63,64
 901 442 901 442 901 413 c 0,40,41
750 900 m 256,65,66
 750 946 750 946 717 979.5 c 128,-1,67
 684 1013 684 1013 638 1013 c 2,68,-1
 525 1013 l 1,69,-1
 525 788 l 1,70,-1
 638 788 l 2,71,72
 684 788 684 788 717 821 c 128,-1,73
 750 854 750 854 750 900 c 256,65,66
EndSplineSet
Validated: 1
EndChar

StartChar: overscore
Encoding: 65540 -1 112
Width: 1200
Flags: W
LayerCount: 2
Fore
SplineSet
1125 1875 m 256,0,1
 1125 1800 1125 1800 1050 1800 c 2,2,-1
 150 1800 l 2,3,4
 75 1800 75 1800 75 1875 c 256,5,6
 75 1950 75 1950 150 1950 c 2,7,-1
 1050 1950 l 2,8,9
 1125 1950 1125 1950 1125 1875 c 256,0,1
EndSplineSet
Validated: 1
EndChar

StartChar: degree
Encoding: 176 176 113
Width: 1200
Flags: W
LayerCount: 2
Fore
SplineSet
975 1125 m 256,0,1
 975 970 975 970 865 860 c 128,-1,2
 755 750 755 750 600 750 c 256,3,4
 445 750 445 750 335 860 c 128,-1,5
 225 970 225 970 225 1125 c 256,6,7
 225 1280 225 1280 335 1390 c 128,-1,8
 445 1500 445 1500 600 1500 c 256,9,10
 755 1500 755 1500 865 1390 c 128,-1,11
 975 1280 975 1280 975 1125 c 256,0,1
825 1125 m 256,12,13
 825 1218 825 1218 759 1284 c 128,-1,14
 693 1350 693 1350 600 1350 c 256,15,16
 507 1350 507 1350 441 1284 c 128,-1,17
 375 1218 375 1218 375 1125 c 256,18,19
 375 1032 375 1032 441 966 c 128,-1,20
 507 900 507 900 600 900 c 256,21,22
 693 900 693 900 759 966 c 128,-1,23
 825 1032 825 1032 825 1125 c 256,12,13
EndSplineSet
Validated: 1
EndChar

StartChar: plusminus
Encoding: 177 177 114
Width: 1200
Flags: W
LayerCount: 2
Fore
SplineSet
1125 825 m 256,0,1
 1125 750 1125 750 1050 750 c 2,2,-1
 675 750 l 1,3,-1
 675 375 l 2,4,5
 675 300 675 300 600 300 c 256,6,7
 525 300 525 300 525 375 c 2,8,-1
 525 750 l 1,9,-1
 150 750 l 2,10,11
 75 750 75 750 75 825 c 256,12,13
 75 900 75 900 150 900 c 2,14,-1
 525 900 l 1,15,-1
 525 1275 l 2,16,17
 525 1350 525 1350 600 1350 c 256,18,19
 675 1350 675 1350 675 1275 c 2,20,-1
 675 900 l 1,21,-1
 1050 900 l 2,22,23
 1125 900 1125 900 1125 825 c 256,0,1
1125 75 m 256,24,25
 1125 0 1125 0 1050 0 c 2,26,-1
 150 0 l 2,27,28
 75 0 75 0 75 75 c 256,29,30
 75 150 75 150 150 150 c 2,31,-1
 1050 150 l 2,32,33
 1125 150 1125 150 1125 75 c 256,24,25
EndSplineSet
Validated: 1
EndChar

StartChar: twosuperior
Encoding: 178 178 115
Width: 1200
Flags: W
LayerCount: 2
Fore
SplineSet
956 637 m 256,0,1
 956 562 956 562 881 562 c 2,2,-1
 319 562 l 2,3,4
 232 562 232 562 232 629 c 0,5,6
 232 664 232 664 275 699 c 1,7,8
 322 722 322 722 410 768 c 0,9,10
 806 982 806 982 806 1162 c 0,11,12
 806 1243 806 1243 743 1298 c 0,13,14
 682 1350 682 1350 600 1350 c 256,15,16
 518 1350 518 1350 457 1298 c 0,17,18
 394 1243 394 1243 394 1162 c 0,19,20
 394 1087 394 1087 319 1087 c 256,21,22
 244 1087 244 1087 244 1162 c 0,23,24
 244 1305 244 1305 351 1404 c 0,25,26
 456 1500 456 1500 600 1500 c 256,27,28
 744 1500 744 1500 849 1404 c 0,29,30
 956 1305 956 1305 956 1162 c 0,31,32
 956 1010 956 1010 818 892 c 1,33,34
 686 802 686 802 555 713 c 1,35,-1
 881 712 l 2,36,37
 956 712 956 712 956 637 c 256,0,1
EndSplineSet
Validated: 1
EndChar

StartChar: threesuperior
Encoding: 179 179 116
Width: 1200
Flags: W
LayerCount: 2
Fore
SplineSet
974 1435 m 0,0,1
 974 1399 974 1399 938 1368 c 2,2,-1
 654 1126 l 1,3,4
 786 1101 786 1101 875 1001 c 128,-1,5
 964 901 964 901 964 769 c 0,6,7
 964 615 964 615 848 508 c 0,8,9
 735 405 735 405 579 405 c 0,10,11
 482 405 482 405 390 453 c 0,12,13
 292 503 292 503 248 585 c 0,14,15
 235 608 235 608 235 626 c 0,16,17
 235 656 235 656 259 678 c 128,-1,18
 283 700 283 700 314 700 c 0,19,20
 338 700 338 700 407.5 627.5 c 128,-1,21
 477 555 477 555 579 555 c 0,22,23
 672 555 672 555 743 616 c 128,-1,24
 814 677 814 677 814 769 c 0,25,26
 814 860 814 860 741 923 c 0,27,28
 672 982 672 982 579 982 c 0,29,30
 510 982 510 982 442.5 939 c 128,-1,31
 375 896 375 896 357 896 c 0,32,33
 327 896 327 896 305 918.5 c 128,-1,34
 283 941 283 941 283 971 c 0,35,36
 283 1005 283 1005 312 1030 c 2,37,-1
 686 1350 l 1,38,-1
 311 1350 l 2,39,40
 236 1350 236 1350 236 1425 c 256,41,42
 236 1500 236 1500 311 1500 c 2,43,-1
 889 1500 l 2,44,45
 974 1500 974 1500 974 1435 c 0,0,1
EndSplineSet
Validated: 1
EndChar

StartChar: acute
Encoding: 180 180 117
Width: 1200
Flags: W
LayerCount: 2
Fore
SplineSet
826 1423 m 0,0,1
 826 1379 826 1379 784 1358 c 2,2,-1
 484 1208 l 2,3,4
 466 1199 466 1199 448 1199 c 0,5,6
 417 1199 417 1199 395.5 1223 c 128,-1,7
 374 1247 374 1247 374 1277 c 0,8,9
 374 1321 374 1321 416 1342 c 2,10,-1
 716 1492 l 2,11,12
 734 1501 734 1501 752 1501 c 0,13,14
 783 1501 783 1501 804.5 1477 c 128,-1,15
 826 1453 826 1453 826 1423 c 0,0,1
EndSplineSet
Validated: 1
EndChar

StartChar: mu1
Encoding: 181 181 118
Width: 1200
Flags: W
LayerCount: 2
Fore
SplineSet
1025 75 m 2,0,1
 1025 0 1025 0 950 0 c 0,2,3
 874 0 874 0 875 101 c 1,4,5
 756 0 756 0 600 0 c 256,6,7
 444 0 444 0 325 101 c 1,8,-1
 325 -375 l 2,9,10
 325 -450 325 -450 250 -450 c 256,11,12
 175 -450 175 -450 175 -375 c 2,13,-1
 175 975 l 2,14,15
 175 1050 175 1050 250 1050 c 256,16,17
 325 1050 325 1050 325 975 c 2,18,-1
 325 425 l 2,19,20
 325 311 325 311 405.5 230.5 c 128,-1,21
 486 150 486 150 600 150 c 0,22,23
 713 150 713 150 794 230.5 c 128,-1,24
 875 311 875 311 875 424 c 2,25,-1
 875 975 l 2,26,27
 875 1050 875 1050 950 1050 c 256,28,29
 1025 1050 1025 1050 1025 975 c 2,30,-1
 1025 75 l 2,0,1
EndSplineSet
Validated: 33
EndChar

StartChar: paragraph
Encoding: 182 182 119
Width: 1200
Flags: W
LayerCount: 2
Fore
SplineSet
1075 75 m 2,0,1
 1075 0 1075 0 1000 0 c 256,2,3
 925 0 925 0 925 75 c 2,4,-1
 925 1350 l 1,5,-1
 625 1350 l 1,6,-1
 625 75 l 2,7,8
 625 0 625 0 550 0 c 256,9,10
 475 0 475 0 475 75 c 2,11,-1
 475 750 l 1,12,-1
 450 750 l 2,13,14
 295 750 295 750 185 860 c 128,-1,15
 75 970 75 970 75 1125 c 256,16,17
 75 1280 75 1280 185 1390 c 128,-1,18
 295 1500 295 1500 450 1500 c 2,19,-1
 1000 1500 l 2,20,21
 1030 1500 1030 1500 1052.5 1477.5 c 128,-1,22
 1075 1455 1075 1455 1075 1425 c 2,23,-1
 1075 75 l 2,0,1
475 900 m 1,24,-1
 475 1350 l 1,25,-1
 450 1350 l 2,26,27
 357 1350 357 1350 291 1284 c 128,-1,28
 225 1218 225 1218 225 1125 c 256,29,30
 225 1032 225 1032 291 966 c 128,-1,31
 357 900 357 900 450 900 c 2,32,-1
 475 900 l 1,24,-1
EndSplineSet
Validated: 1
EndChar

StartChar: middot
Encoding: 183 183 120
Width: 1200
Flags: W
LayerCount: 2
Fore
SplineSet
714 638 m 0,0,1
 714 591 714 591 680.5 557.5 c 128,-1,2
 647 524 647 524 600 524 c 256,3,4
 553 524 553 524 519.5 557.5 c 128,-1,5
 486 591 486 591 486 638 c 0,6,7
 486 684 486 684 519.5 716.5 c 128,-1,8
 553 749 553 749 600 749 c 256,9,10
 647 749 647 749 680.5 716.5 c 128,-1,11
 714 684 714 684 714 638 c 0,0,1
EndSplineSet
Validated: 1
EndChar

StartChar: cedilla
Encoding: 184 184 121
Width: 1200
Flags: W
LayerCount: 2
Fore
SplineSet
885 -150 m 256,0,1
 885 -274 885 -274 797 -362 c 128,-1,2
 709 -450 709 -450 585 -450 c 0,3,4
 507 -450 507 -450 435 -409 c 0,5,6
 360 -367 360 -367 325 -299 c 0,7,8
 314 -278 314 -278 314 -260 c 0,9,10
 314 -230 314 -230 338 -208 c 128,-1,11
 362 -186 362 -186 392 -186 c 256,12,13
 422 -186 422 -186 470 -243 c 128,-1,14
 518 -300 518 -300 585 -300 c 0,15,16
 647 -300 647 -300 691 -256 c 128,-1,17
 735 -212 735 -212 735 -150 c 256,18,19
 735 -88 735 -88 691 -44 c 128,-1,20
 647 0 647 0 585 0 c 0,21,22
 510 0 510 0 510 75 c 256,23,24
 510 150 510 150 585 150 c 0,25,26
 709 150 709 150 797 62 c 128,-1,27
 885 -26 885 -26 885 -150 c 256,0,1
EndSplineSet
Validated: 1
EndChar

StartChar: onesuperior
Encoding: 185 185 122
Width: 1200
Flags: W
LayerCount: 2
Fore
SplineSet
863 637 m 0,0,1
 863 562 863 562 788 562 c 2,2,-1
 488 562 l 2,3,4
 413 562 413 562 413 637 c 0,5,6
 413 695 413 695 465 708 c 0,7,8
 482 713 482 713 563 713 c 1,9,-1
 563 1252 l 1,10,-1
 464 1160 l 2,11,12
 441 1139 441 1139 413 1139 c 0,13,14
 382 1139 382 1139 359 1162.5 c 128,-1,15
 336 1186 336 1186 336 1216 c 256,16,17
 336 1246 336 1246 361 1270 c 2,18,-1
 576 1470 l 2,19,20
 609 1501 609 1501 637 1501 c 0,21,22
 713 1501 713 1501 713 1411 c 2,23,-1
 713 713 l 1,24,25
 720 713 720 713 735.5 713 c 128,-1,26
 751 713 751 713 758 713 c 0,27,28
 863 713 863 713 863 637 c 0,0,1
EndSplineSet
Validated: 1
EndChar

StartChar: ordmasculine
Encoding: 186 186 123
Width: 1200
Flags: W
LayerCount: 2
Fore
SplineSet
1013 1110 m 256,0,1
 1013 945 1013 945 888 831 c 0,2,3
 767 720 767 720 600 720 c 256,4,5
 433 720 433 720 312 831 c 0,6,7
 188 945 188 945 188 1110 c 256,8,9
 188 1275 188 1275 312 1389 c 0,10,11
 433 1500 433 1500 600 1500 c 256,12,13
 767 1500 767 1500 888 1389 c 0,14,15
 1013 1275 1013 1275 1013 1110 c 256,0,1
1012 525 m 256,16,17
 1012 450 1012 450 938 450 c 2,18,-1
 263 450 l 2,19,20
 188 450 188 450 188 525 c 256,21,22
 188 600 188 600 263 600 c 2,23,-1
 938 600 l 2,24,25
 1012 600 1012 600 1012 525 c 256,16,17
863 1110 m 256,26,27
 863 1213 863 1213 782 1283 c 0,28,29
 704 1350 704 1350 600 1350 c 256,30,31
 496 1350 496 1350 418 1283 c 0,32,33
 338 1213 338 1213 338 1110 c 256,34,35
 338 1007 338 1007 417 938.5 c 128,-1,36
 496 870 496 870 600 870 c 256,37,38
 704 870 704 870 783.5 938.5 c 128,-1,39
 863 1007 863 1007 863 1110 c 256,26,27
EndSplineSet
Validated: 1
EndChar

StartChar: guillemotright
Encoding: 187 187 124
Width: 1200
Flags: W
LayerCount: 2
Fore
SplineSet
1051 525 m 256,0,1
 1051 509 1051 509 1037 482 c 2,2,-1
 817 41 l 2,3,4
 796 -1 796 -1 752 -1 c 0,5,6
 722 -1 722 -1 698 20.5 c 128,-1,7
 674 42 674 42 674 73 c 0,8,9
 674 91 674 91 683 109 c 2,10,-1
 891 525 l 1,11,-1
 683 941 l 2,12,13
 674 959 674 959 674 977 c 0,14,15
 674 1008 674 1008 698 1029.5 c 128,-1,16
 722 1051 722 1051 752 1051 c 0,17,18
 796 1051 796 1051 817 1009 c 2,19,-1
 1037 568 l 2,20,21
 1051 541 1051 541 1051 525 c 256,0,1
526 525 m 256,22,23
 526 509 526 509 512 482 c 2,24,-1
 292 41 l 2,25,26
 271 -1 271 -1 227 -1 c 0,27,28
 197 -1 197 -1 173 20.5 c 128,-1,29
 149 42 149 42 149 73 c 0,30,31
 149 91 149 91 158 109 c 2,32,-1
 366 525 l 1,33,-1
 158 941 l 2,34,35
 149 959 149 959 149 977 c 0,36,37
 149 1008 149 1008 173 1029.5 c 128,-1,38
 197 1051 197 1051 227 1051 c 0,39,40
 271 1051 271 1051 292 1009 c 2,41,-1
 512 568 l 2,42,43
 526 541 526 541 526 525 c 256,22,23
EndSplineSet
Validated: 1
EndChar

StartChar: onequarter
Encoding: 188 188 125
Width: 1200
Flags: W
LayerCount: 2
Fore
SplineSet
506 937 m 0,0,1
 506 862 506 862 431 862 c 2,2,-1
 206 862 l 2,3,4
 131 862 131 862 131 937 c 0,5,6
 131 1013 131 1013 244 1013 c 1,7,-1
 244 1512 l 1,8,9
 186 1439 186 1439 152 1439 c 0,10,11
 121 1439 121 1439 97.5 1461.5 c 128,-1,12
 74 1484 74 1484 74 1515 c 0,13,14
 74 1540 74 1540 92 1562 c 2,15,-1
 252 1762 l 2,16,17
 283 1801 283 1801 317 1801 c 0,18,19
 394 1801 394 1801 394 1712 c 2,20,-1
 394 1013 l 1,21,22
 506 1013 506 1013 506 937 c 0,0,1
1126 1426 m 0,23,24
 1126 1404 1126 1404 1112 1383 c 2,25,-1
 212 33 l 2,26,27
 189 -1 189 -1 152 -1 c 0,28,29
 122 -1 122 -1 98 21.5 c 128,-1,30
 74 44 74 44 74 74 c 0,31,32
 74 96 74 96 88 117 c 2,33,-1
 988 1467 l 2,34,35
 1011 1501 1011 1501 1048 1501 c 0,36,37
 1078 1501 1078 1501 1102 1478.5 c 128,-1,38
 1126 1456 1126 1456 1126 1426 c 0,23,24
1125 -60 m 0,39,40
 1125 -120 1125 -120 1064 -133 c 0,41,42
 1054 -135 1054 -135 956 -135 c 1,43,-1
 956 -375 l 2,44,45
 956 -450 956 -450 881 -450 c 256,46,47
 806 -450 806 -450 806 -375 c 2,48,-1
 806 -135 l 1,49,-1
 544 -135 l 2,50,51
 465 -135 465 -135 465 -71 c 0,52,53
 465 -49 465 -49 478 -25 c 2,54,-1
 815 605 l 2,55,56
 843 657 843 657 888 657 c 0,57,58
 956 657 956 657 956 570 c 2,59,-1
 956 15 l 1,60,61
 966 15 966 15 987 16 c 128,-1,62
 1008 17 1008 17 1018 17 c 0,63,64
 1125 17 1125 17 1125 -60 c 0,39,40
806 15 m 1,65,-1
 806 271 l 1,66,-1
 669 15 l 1,67,-1
 806 15 l 1,65,-1
EndSplineSet
Validated: 1
EndChar

StartChar: onehalf
Encoding: 189 189 126
Width: 1200
Flags: W
LayerCount: 2
Fore
SplineSet
506 937 m 0,0,1
 506 862 506 862 431 862 c 2,2,-1
 206 862 l 2,3,4
 131 862 131 862 131 937 c 0,5,6
 131 1013 131 1013 244 1013 c 1,7,-1
 244 1512 l 1,8,9
 186 1439 186 1439 152 1439 c 0,10,11
 121 1439 121 1439 97.5 1461.5 c 128,-1,12
 74 1484 74 1484 74 1515 c 0,13,14
 74 1540 74 1540 92 1562 c 2,15,-1
 252 1762 l 2,16,17
 283 1801 283 1801 317 1801 c 0,18,19
 394 1801 394 1801 394 1712 c 2,20,-1
 394 1013 l 1,21,22
 506 1013 506 1013 506 937 c 0,0,1
1126 1426 m 0,23,24
 1126 1404 1126 1404 1112 1383 c 2,25,-1
 212 33 l 2,26,27
 189 -1 189 -1 152 -1 c 0,28,29
 122 -1 122 -1 98 21.5 c 128,-1,30
 74 44 74 44 74 74 c 0,31,32
 74 96 74 96 88 117 c 2,33,-1
 988 1467 l 2,34,35
 1011 1501 1011 1501 1048 1501 c 0,36,37
 1078 1501 1078 1501 1102 1478.5 c 128,-1,38
 1126 1456 1126 1456 1126 1426 c 0,23,24
1125 300 m 0,39,40
 1125 155 1125 155 1025 42 c 1,41,42
 921 -54 921 -54 817 -150 c 1,43,-1
 1050 -150 l 2,44,45
 1125 -150 1125 -150 1125 -225 c 256,46,47
 1125 -300 1125 -300 1050 -300 c 2,48,-1
 628 -300 l 2,49,50
 543 -300 543 -300 543 -236 c 0,51,52
 543 -192 543 -192 655 -105 c 0,53,54
 820 23 820 23 863 68 c 0,55,56
 975 185 975 185 975 300 c 0,57,58
 975 367 975 367 941 423 c 0,59,60
 902 487 902 487 839 487 c 256,61,62
 776 487 776 487 737 423 c 0,63,64
 703 367 703 367 703 300 c 0,65,66
 703 225 703 225 628 225 c 256,67,68
 553 225 553 225 553 300 c 0,69,70
 553 431 553 431 629 530 c 0,71,72
 712 637 712 637 839 637 c 256,73,74
 966 637 966 637 1049 530 c 0,75,76
 1125 431 1125 431 1125 300 c 0,39,40
EndSplineSet
Validated: 1
EndChar

StartChar: threequarters
Encoding: 190 190 127
Width: 1200
Flags: W
LayerCount: 2
Fore
SplineSet
1126 1426 m 0,0,1
 1126 1404 1126 1404 1112 1383 c 2,2,-1
 212 33 l 2,3,4
 189 -1 189 -1 152 -1 c 0,5,6
 122 -1 122 -1 98 21.5 c 128,-1,7
 74 44 74 44 74 74 c 0,8,9
 74 96 74 96 88 117 c 2,10,-1
 518 763 l 1,11,12
 444 705 444 705 351 705 c 0,13,14
 266 705 266 705 191 758.5 c 128,-1,15
 116 812 116 812 82 893 c 0,16,17
 74 912 74 912 74 927 c 0,18,19
 74 957 74 957 98 978.5 c 128,-1,20
 122 1000 122 1000 153 1000 c 0,21,22
 189 1000 189 1000 237 927.5 c 128,-1,23
 285 855 285 855 351 855 c 0,24,25
 423 855 423 855 469 928 c 0,26,27
 508 992 508 992 508 1069 c 256,28,29
 508 1146 508 1146 469 1209 c 0,30,31
 423 1283 423 1283 351 1283 c 0,32,33
 304 1283 304 1283 259 1239 c 128,-1,34
 214 1195 214 1195 185 1195 c 0,35,36
 155 1195 155 1195 132 1217.5 c 128,-1,37
 109 1240 109 1240 109 1270 c 0,38,39
 109 1298 109 1298 131 1323 c 2,40,-1
 418 1650 l 1,41,-1
 150 1650 l 2,42,43
 75 1650 75 1650 75 1725 c 256,44,45
 75 1800 75 1800 150 1800 c 2,46,-1
 583 1800 l 2,47,48
 665 1800 665 1800 665 1751 c 0,49,50
 665 1697 665 1697 564 1581 c 0,51,52
 492 1502 492 1502 419 1424 c 1,53,54
 529 1395 529 1395 596 1288 c 0,55,56
 658 1188 658 1188 658 1069 c 0,57,58
 658 1005 658 1005 639 944 c 1,59,-1
 988 1467 l 2,60,61
 1011 1501 1011 1501 1048 1501 c 0,62,63
 1078 1501 1078 1501 1102 1478.5 c 128,-1,64
 1126 1456 1126 1456 1126 1426 c 0,0,1
1125 -60 m 0,65,66
 1125 -120 1125 -120 1064 -133 c 0,67,68
 1054 -135 1054 -135 956 -135 c 1,69,-1
 956 -375 l 2,70,71
 956 -450 956 -450 881 -450 c 256,72,73
 806 -450 806 -450 806 -375 c 2,74,-1
 806 -135 l 1,75,-1
 544 -135 l 2,76,77
 465 -135 465 -135 465 -71 c 0,78,79
 465 -49 465 -49 478 -25 c 2,80,-1
 815 605 l 2,81,82
 843 657 843 657 888 657 c 0,83,84
 956 657 956 657 956 570 c 2,85,-1
 956 15 l 1,86,87
 966 15 966 15 987 16 c 128,-1,88
 1008 17 1008 17 1018 17 c 0,89,90
 1125 17 1125 17 1125 -60 c 0,65,66
806 15 m 1,91,-1
 806 271 l 1,92,-1
 669 15 l 1,93,-1
 806 15 l 1,91,-1
EndSplineSet
Validated: 1
EndChar

StartChar: questiondown
Encoding: 191 191 128
Width: 1200
Flags: W
LayerCount: 2
Fore
SplineSet
714 936 m 256,0,1
 714 889 714 889 680.5 857 c 128,-1,2
 647 825 647 825 600 825 c 256,3,4
 553 825 553 825 519.5 857 c 128,-1,5
 486 889 486 889 486 936 c 256,6,7
 486 983 486 983 519.5 1016.5 c 128,-1,8
 553 1050 553 1050 600 1050 c 256,9,10
 647 1050 647 1050 680.5 1016.5 c 128,-1,11
 714 983 714 983 714 936 c 256,0,1
1125 -75 m 0,12,13
 1125 -252 1125 -252 944 -359 c 0,14,15
 790 -450 790 -450 600 -450 c 256,16,17
 410 -450 410 -450 256 -359 c 0,18,19
 75 -252 75 -252 75 -75 c 256,20,21
 75 102 75 102 256 209 c 0,22,23
 410 300 410 300 600 300 c 0,24,25
 736 300 736 300 792 376 c 0,26,27
 806 395 806 395 806 413 c 0,28,29
 806 437 806 437 778 465 c 0,30,31
 719 525 719 525 600 525 c 0,32,33
 567 525 567 525 518.5 512 c 128,-1,34
 470 499 470 499 456 499 c 0,35,36
 426 499 426 499 404.5 522.5 c 128,-1,37
 383 546 383 546 383 577 c 0,38,39
 383 675 383 675 600 675 c 0,40,41
 731 675 731 675 835 611 c 0,42,43
 956 536 956 536 956 413 c 0,44,45
 956 289 956 289 835 214 c 0,46,47
 731 150 731 150 600 150 c 0,48,49
 353 150 353 150 255 9 c 0,50,51
 225 -34 225 -34 225 -75 c 256,52,53
 225 -116 225 -116 255 -159 c 0,54,55
 353 -300 353 -300 600 -300 c 256,56,57
 847 -300 847 -300 945 -159 c 0,58,59
 975 -116 975 -116 975 -75 c 0,60,61
 975 0 975 0 1050 0 c 256,62,63
 1125 0 1125 0 1125 -75 c 0,12,13
EndSplineSet
Validated: 1
EndChar

StartChar: Agrave
Encoding: 192 192 129
Width: 1200
Flags: W
LayerCount: 2
Fore
SplineSet
826 1727 m 0,0,1
 826 1697 826 1697 804.5 1673 c 128,-1,2
 783 1649 783 1649 752 1649 c 0,3,4
 734 1649 734 1649 716 1658 c 2,5,-1
 416 1808 l 2,6,7
 374 1829 374 1829 374 1873 c 0,8,9
 374 1903 374 1903 395.5 1927 c 128,-1,10
 417 1951 417 1951 448 1951 c 0,11,12
 466 1951 466 1951 484 1942 c 2,13,-1
 784 1792 l 2,14,15
 826 1771 826 1771 826 1727 c 0,0,1
1126 72 m 0,16,17
 1126 0 1126 0 1048 0 c 0,18,19
 996 0 996 0 979 51 c 2,20,-1
 846 450 l 1,21,-1
 354 450 l 1,22,-1
 221 51 l 2,23,24
 204 0 204 0 152 0 c 0,25,26
 74 0 74 0 74 72 c 0,27,28
 74 85 74 85 79 99 c 2,29,-1
 525 1437 l 2,30,31
 546 1500 546 1500 600 1500 c 256,32,33
 654 1500 654 1500 675 1437 c 2,34,-1
 1121 99 l 2,35,36
 1126 85 1126 85 1126 72 c 0,16,17
796 600 m 1,37,-1
 600 1188 l 1,38,-1
 404 600 l 1,39,-1
 796 600 l 1,37,-1
EndSplineSet
Validated: 1
EndChar

StartChar: Aacute
Encoding: 193 193 130
Width: 1200
Flags: W
LayerCount: 2
Fore
SplineSet
841 1873 m 0,0,1
 841 1829 841 1829 799 1808 c 2,2,-1
 499 1658 l 2,3,4
 481 1649 481 1649 463 1649 c 0,5,6
 432 1649 432 1649 410.5 1673 c 128,-1,7
 389 1697 389 1697 389 1727 c 0,8,9
 389 1771 389 1771 431 1792 c 2,10,-1
 731 1942 l 2,11,12
 749 1951 749 1951 767 1951 c 0,13,14
 798 1951 798 1951 819.5 1927 c 128,-1,15
 841 1903 841 1903 841 1873 c 0,0,1
1126 72 m 0,16,17
 1126 0 1126 0 1048 0 c 0,18,19
 996 0 996 0 979 51 c 2,20,-1
 846 450 l 1,21,-1
 354 450 l 1,22,-1
 221 51 l 2,23,24
 204 0 204 0 152 0 c 0,25,26
 74 0 74 0 74 72 c 0,27,28
 74 85 74 85 79 99 c 2,29,-1
 525 1437 l 2,30,31
 546 1500 546 1500 600 1500 c 256,32,33
 654 1500 654 1500 675 1437 c 2,34,-1
 1121 99 l 2,35,36
 1126 85 1126 85 1126 72 c 0,16,17
796 600 m 1,37,-1
 600 1188 l 1,38,-1
 404 600 l 1,39,-1
 796 600 l 1,37,-1
EndSplineSet
Validated: 1
EndChar

StartChar: Acircumflex
Encoding: 194 194 131
Width: 1200
Flags: W
LayerCount: 2
Fore
SplineSet
901 1727 m 0,0,1
 901 1697 901 1697 878.5 1673 c 128,-1,2
 856 1649 856 1649 826 1649 c 0,3,4
 804 1649 804 1649 783 1663 c 2,5,-1
 600 1785 l 1,6,-1
 417 1663 l 2,7,8
 396 1649 396 1649 374 1649 c 0,9,10
 344 1649 344 1649 321.5 1673 c 128,-1,11
 299 1697 299 1697 299 1727 c 0,12,13
 299 1764 299 1764 333 1787 c 2,14,-1
 552 1933 l 2,15,16
 579 1951 579 1951 600 1951 c 256,17,18
 621 1951 621 1951 648 1933 c 2,19,-1
 867 1787 l 2,20,21
 901 1764 901 1764 901 1727 c 0,0,1
1126 72 m 0,22,23
 1126 0 1126 0 1048 0 c 0,24,25
 996 0 996 0 979 51 c 2,26,-1
 846 450 l 1,27,-1
 354 450 l 1,28,-1
 221 51 l 2,29,30
 204 0 204 0 152 0 c 0,31,32
 74 0 74 0 74 72 c 0,33,34
 74 85 74 85 79 99 c 2,35,-1
 525 1437 l 2,36,37
 546 1500 546 1500 600 1500 c 256,38,39
 654 1500 654 1500 675 1437 c 2,40,-1
 1121 99 l 2,41,42
 1126 85 1126 85 1126 72 c 0,22,23
796 600 m 1,43,-1
 600 1188 l 1,44,-1
 404 600 l 1,45,-1
 796 600 l 1,43,-1
EndSplineSet
Validated: 1
EndChar

StartChar: Atilde
Encoding: 195 195 132
Width: 1200
Flags: W
LayerCount: 2
Fore
SplineSet
991 1803 m 0,0,1
 991 1779 991 1779 973 1749 c 0,2,3
 915 1650 915 1650 765 1650 c 0,4,5
 680 1650 680 1650 588.5 1725 c 128,-1,6
 497 1800 497 1800 465 1800 c 0,7,8
 414 1800 414 1800 386 1776 c 1,9,10
 369 1725 369 1725 317 1725 c 0,11,12
 239 1725 239 1725 239 1797 c 0,13,14
 239 1821 239 1821 257 1851 c 0,15,16
 315 1950 315 1950 465 1950 c 0,17,18
 550 1950 550 1950 641.5 1875 c 128,-1,19
 733 1800 733 1800 765 1800 c 0,20,21
 826 1800 826 1800 851.5 1837.5 c 128,-1,22
 877 1875 877 1875 913 1875 c 0,23,24
 991 1875 991 1875 991 1803 c 0,0,1
1126 72 m 0,25,26
 1126 0 1126 0 1048 0 c 0,27,28
 996 0 996 0 979 51 c 2,29,-1
 846 450 l 1,30,-1
 354 450 l 1,31,-1
 221 51 l 2,32,33
 204 0 204 0 152 0 c 0,34,35
 74 0 74 0 74 72 c 0,36,37
 74 85 74 85 79 99 c 2,38,-1
 525 1437 l 2,39,40
 546 1500 546 1500 600 1500 c 256,41,42
 654 1500 654 1500 675 1437 c 2,43,-1
 1121 99 l 2,44,45
 1126 85 1126 85 1126 72 c 0,25,26
796 600 m 1,46,-1
 600 1188 l 1,47,-1
 404 600 l 1,48,-1
 796 600 l 1,46,-1
EndSplineSet
Validated: 1
EndChar

StartChar: Adieresis
Encoding: 196 196 133
Width: 1200
Flags: W
LayerCount: 2
Fore
SplineSet
938 1763 m 256,0,1
 938 1716 938 1716 905 1683 c 128,-1,2
 872 1650 872 1650 825 1650 c 256,3,4
 778 1650 778 1650 745.5 1683 c 128,-1,5
 713 1716 713 1716 713 1763 c 256,6,7
 713 1810 713 1810 745.5 1842.5 c 128,-1,8
 778 1875 778 1875 825 1875 c 256,9,10
 872 1875 872 1875 905 1842.5 c 128,-1,11
 938 1810 938 1810 938 1763 c 256,0,1
488 1763 m 256,12,13
 488 1716 488 1716 455 1683 c 128,-1,14
 422 1650 422 1650 375 1650 c 256,15,16
 328 1650 328 1650 295.5 1683 c 128,-1,17
 263 1716 263 1716 263 1763 c 256,18,19
 263 1810 263 1810 295.5 1842.5 c 128,-1,20
 328 1875 328 1875 375 1875 c 256,21,22
 422 1875 422 1875 455 1842.5 c 128,-1,23
 488 1810 488 1810 488 1763 c 256,12,13
1126 72 m 0,24,25
 1126 0 1126 0 1048 0 c 0,26,27
 996 0 996 0 979 51 c 2,28,-1
 846 450 l 1,29,-1
 354 450 l 1,30,-1
 221 51 l 2,31,32
 204 0 204 0 152 0 c 0,33,34
 74 0 74 0 74 72 c 0,35,36
 74 85 74 85 79 99 c 2,37,-1
 525 1437 l 2,38,39
 546 1500 546 1500 600 1500 c 256,40,41
 654 1500 654 1500 675 1437 c 2,42,-1
 1121 99 l 2,43,44
 1126 85 1126 85 1126 72 c 0,24,25
796 600 m 1,45,-1
 600 1188 l 1,46,-1
 404 600 l 1,47,-1
 796 600 l 1,45,-1
EndSplineSet
Validated: 1
EndChar

StartChar: Aring
Encoding: 197 197 134
Width: 1200
Flags: W
LayerCount: 2
Fore
SplineSet
818 1731 m 0,0,1
 818 1641 818 1641 754 1579 c 128,-1,2
 690 1517 690 1517 600 1517 c 256,3,4
 510 1517 510 1517 446.5 1579 c 128,-1,5
 383 1641 383 1641 383 1731 c 0,6,7
 383 1820 383 1820 446.5 1884 c 128,-1,8
 510 1948 510 1948 600 1948 c 256,9,10
 690 1948 690 1948 754 1884 c 128,-1,11
 818 1820 818 1820 818 1731 c 0,0,1
1126 72 m 0,12,13
 1126 0 1126 0 1048 0 c 0,14,15
 996 0 996 0 979 51 c 2,16,-1
 846 450 l 1,17,-1
 354 450 l 1,18,-1
 221 51 l 2,19,20
 204 0 204 0 152 0 c 0,21,22
 74 0 74 0 74 72 c 0,23,24
 74 85 74 85 79 99 c 2,25,-1
 525 1437 l 2,26,27
 546 1500 546 1500 600 1500 c 256,28,29
 654 1500 654 1500 675 1437 c 2,30,-1
 1121 99 l 2,31,32
 1126 85 1126 85 1126 72 c 0,12,13
668 1731 m 0,33,34
 668 1798 668 1798 600 1798 c 0,35,36
 533 1798 533 1798 533 1731 c 0,37,38
 533 1667 533 1667 600 1667 c 0,39,40
 668 1667 668 1667 668 1731 c 0,33,34
796 600 m 1,41,-1
 600 1188 l 1,42,-1
 404 600 l 1,43,-1
 796 600 l 1,41,-1
EndSplineSet
Validated: 1
EndChar

StartChar: AE
Encoding: 198 198 135
Width: 1200
Flags: W
LayerCount: 2
Fore
SplineSet
1125 750 m 256,0,1
 1125 675 1125 675 1050 675 c 2,2,-1
 765 675 l 1,3,-1
 765 150 l 1,4,-1
 1050 150 l 2,5,6
 1125 150 1125 150 1125 75 c 256,7,8
 1125 0 1125 0 1050 0 c 2,9,-1
 690 0 l 2,10,11
 615 0 615 0 615 75 c 2,12,-1
 615 450 l 1,13,-1
 381 450 l 1,14,-1
 220 47 l 2,15,16
 201 -1 201 -1 152 -1 c 0,17,18
 122 -1 122 -1 98 20.5 c 128,-1,19
 74 42 74 42 74 72 c 0,20,21
 74 87 74 87 80 103 c 2,22,-1
 617 1445 l 2,23,24
 627 1470 627 1470 640 1483 c 2,25,-1
 636 1479 l 2,26,27
 659 1501 659 1501 688 1501 c 2,28,-1
 1050 1500 l 2,29,30
 1125 1500 1125 1500 1125 1425 c 256,31,32
 1125 1350 1125 1350 1050 1350 c 2,33,-1
 765 1350 l 1,34,-1
 765 825 l 1,35,-1
 1050 825 l 2,36,37
 1125 825 1125 825 1125 750 c 256,0,1
647 1488 m 2,38,39
 645 1487 645 1487 640 1483 c 2,40,-1
 647 1488 l 2,38,39
636 1479 m 1024,41,-1
615 600 m 1,42,-1
 615 1036 l 1,43,-1
 441 600 l 1,44,-1
 615 600 l 1,42,-1
EndSplineSet
Validated: 5
EndChar

StartChar: Ccedilla
Encoding: 199 199 136
Width: 1200
Flags: W
LayerCount: 2
Fore
SplineSet
1126 273 m 0,0,1
 1126 225 1126 225 1036 147 c 0,2,3
 962 84 962 84 899 52 c 1,4,5
 977 -34 977 -34 977 -150 c 0,6,7
 977 -274 977 -274 889 -362 c 128,-1,8
 801 -450 801 -450 677 -450 c 0,9,10
 500 -450 500 -450 417 -299 c 0,11,12
 406 -279 406 -279 406 -260 c 0,13,14
 406 -230 406 -230 430 -208 c 128,-1,15
 454 -186 454 -186 485 -186 c 0,16,17
 514 -186 514 -186 562.5 -243 c 128,-1,18
 611 -300 611 -300 677 -300 c 0,19,20
 739 -300 739 -300 783 -256 c 128,-1,21
 827 -212 827 -212 827 -150 c 256,22,23
 827 -88 827 -88 783 -44 c 128,-1,24
 739 0 739 0 677 0 c 0,25,26
 406 0 406 0 231 246 c 0,27,28
 75 467 75 467 75 750 c 256,29,30
 75 1033 75 1033 231 1254 c 0,31,32
 406 1500 406 1500 677 1500 c 0,33,34
 800 1500 800 1500 919.5 1437 c 128,-1,35
 1039 1374 1039 1374 1109 1274 c 0,36,37
 1126 1249 1126 1249 1126 1227 c 0,38,39
 1126 1197 1126 1197 1102.5 1174 c 128,-1,40
 1079 1151 1079 1151 1048 1151 c 0,41,42
 1020 1151 1020 1151 991 1181 c 0,43,44
 977 1198 977 1198 947 1231 c 0,45,46
 829 1350 829 1350 677 1350 c 0,47,48
 536 1350 536 1350 419 1241 c 0,49,50
 315 1144 315 1144 265 998 c 0,51,52
 225 881 225 881 225 750 c 256,53,54
 225 619 225 619 265 502 c 0,55,56
 315 356 315 356 419 259 c 0,57,58
 536 150 536 150 677 150 c 0,59,60
 829 150 829 150 947 269 c 0,61,62
 961 286 961 286 991 319 c 0,63,64
 1020 349 1020 349 1048 349 c 0,65,66
 1079 349 1079 349 1102.5 326 c 128,-1,67
 1126 303 1126 303 1126 273 c 0,0,1
EndSplineSet
Validated: 1
EndChar

StartChar: Egrave
Encoding: 200 200 137
Width: 1200
Flags: W
LayerCount: 2
Fore
SplineSet
901 1727 m 0,0,1
 901 1697 901 1697 879.5 1673 c 128,-1,2
 858 1649 858 1649 827 1649 c 0,3,4
 809 1649 809 1649 791 1658 c 2,5,-1
 491 1808 l 2,6,7
 449 1829 449 1829 449 1873 c 0,8,9
 449 1903 449 1903 470.5 1927 c 128,-1,10
 492 1951 492 1951 523 1951 c 0,11,12
 541 1951 541 1951 559 1942 c 2,13,-1
 859 1792 l 2,14,15
 901 1771 901 1771 901 1727 c 0,0,1
1125 75 m 256,16,17
 1125 0 1125 0 1050 0 c 2,18,-1
 250 0 l 2,19,20
 220 0 220 0 197.5 22.5 c 128,-1,21
 175 45 175 45 175 75 c 2,22,-1
 175 1425 l 2,23,24
 175 1455 175 1455 197.5 1477.5 c 128,-1,25
 220 1500 220 1500 250 1500 c 2,26,-1
 1050 1500 l 2,27,28
 1125 1500 1125 1500 1125 1425 c 256,29,30
 1125 1350 1125 1350 1050 1350 c 2,31,-1
 325 1350 l 1,32,-1
 325 825 l 1,33,-1
 1050 825 l 2,34,35
 1125 825 1125 825 1125 750 c 256,36,37
 1125 675 1125 675 1050 675 c 2,38,-1
 325 675 l 1,39,-1
 325 150 l 1,40,-1
 1050 150 l 2,41,42
 1125 150 1125 150 1125 75 c 256,16,17
EndSplineSet
Validated: 1
EndChar

StartChar: Eacute
Encoding: 201 201 138
Width: 1200
Flags: W
LayerCount: 2
Fore
SplineSet
901 1873 m 0,0,1
 901 1829 901 1829 859 1808 c 2,2,-1
 559 1658 l 2,3,4
 541 1649 541 1649 523 1649 c 0,5,6
 492 1649 492 1649 470.5 1673 c 128,-1,7
 449 1697 449 1697 449 1727 c 0,8,9
 449 1771 449 1771 491 1792 c 2,10,-1
 791 1942 l 2,11,12
 809 1951 809 1951 827 1951 c 0,13,14
 858 1951 858 1951 879.5 1927 c 128,-1,15
 901 1903 901 1903 901 1873 c 0,0,1
1125 75 m 256,16,17
 1125 0 1125 0 1050 0 c 2,18,-1
 250 0 l 2,19,20
 220 0 220 0 197.5 22.5 c 128,-1,21
 175 45 175 45 175 75 c 2,22,-1
 175 1425 l 2,23,24
 175 1455 175 1455 197.5 1477.5 c 128,-1,25
 220 1500 220 1500 250 1500 c 2,26,-1
 1050 1500 l 2,27,28
 1125 1500 1125 1500 1125 1425 c 256,29,30
 1125 1350 1125 1350 1050 1350 c 2,31,-1
 325 1350 l 1,32,-1
 325 825 l 1,33,-1
 1050 825 l 2,34,35
 1125 825 1125 825 1125 750 c 256,36,37
 1125 675 1125 675 1050 675 c 2,38,-1
 325 675 l 1,39,-1
 325 150 l 1,40,-1
 1050 150 l 2,41,42
 1125 150 1125 150 1125 75 c 256,16,17
EndSplineSet
Validated: 1
EndChar

StartChar: Ecircumflex
Encoding: 202 202 139
Width: 1200
Flags: W
LayerCount: 2
Fore
SplineSet
976 1727 m 0,0,1
 976 1697 976 1697 953.5 1673 c 128,-1,2
 931 1649 931 1649 901 1649 c 0,3,4
 879 1649 879 1649 858 1663 c 2,5,-1
 675 1785 l 1,6,-1
 492 1663 l 2,7,8
 471 1649 471 1649 449 1649 c 0,9,10
 419 1649 419 1649 396.5 1673 c 128,-1,11
 374 1697 374 1697 374 1727 c 0,12,13
 374 1764 374 1764 408 1787 c 2,14,-1
 627 1933 l 2,15,16
 654 1951 654 1951 675 1951 c 256,17,18
 696 1951 696 1951 723 1933 c 2,19,-1
 942 1787 l 2,20,21
 976 1764 976 1764 976 1727 c 0,0,1
1125 75 m 256,22,23
 1125 0 1125 0 1050 0 c 2,24,-1
 250 0 l 2,25,26
 220 0 220 0 197.5 22.5 c 128,-1,27
 175 45 175 45 175 75 c 2,28,-1
 175 1425 l 2,29,30
 175 1455 175 1455 197.5 1477.5 c 128,-1,31
 220 1500 220 1500 250 1500 c 2,32,-1
 1050 1500 l 2,33,34
 1125 1500 1125 1500 1125 1425 c 256,35,36
 1125 1350 1125 1350 1050 1350 c 2,37,-1
 325 1350 l 1,38,-1
 325 825 l 1,39,-1
 1050 825 l 2,40,41
 1125 825 1125 825 1125 750 c 256,42,43
 1125 675 1125 675 1050 675 c 2,44,-1
 325 675 l 1,45,-1
 325 150 l 1,46,-1
 1050 150 l 2,47,48
 1125 150 1125 150 1125 75 c 256,22,23
EndSplineSet
Validated: 1
EndChar

StartChar: Edieresis
Encoding: 203 203 140
Width: 1200
Flags: W
LayerCount: 2
Fore
SplineSet
1012 1763 m 256,0,1
 1012 1716 1012 1716 979 1683 c 128,-1,2
 946 1650 946 1650 899 1650 c 0,3,4
 853 1650 853 1650 820 1683 c 128,-1,5
 787 1716 787 1716 787 1763 c 256,6,7
 787 1810 787 1810 820 1842.5 c 128,-1,8
 853 1875 853 1875 899 1875 c 0,9,10
 946 1875 946 1875 979 1842.5 c 128,-1,11
 1012 1810 1012 1810 1012 1763 c 256,0,1
562 1763 m 256,12,13
 562 1716 562 1716 529 1683 c 128,-1,14
 496 1650 496 1650 449 1650 c 0,15,16
 403 1650 403 1650 370 1683 c 128,-1,17
 337 1716 337 1716 337 1763 c 256,18,19
 337 1810 337 1810 370 1842.5 c 128,-1,20
 403 1875 403 1875 449 1875 c 0,21,22
 496 1875 496 1875 529 1842.5 c 128,-1,23
 562 1810 562 1810 562 1763 c 256,12,13
1125 75 m 256,24,25
 1125 0 1125 0 1050 0 c 2,26,-1
 250 0 l 2,27,28
 220 0 220 0 197.5 22.5 c 128,-1,29
 175 45 175 45 175 75 c 2,30,-1
 175 1425 l 2,31,32
 175 1455 175 1455 197.5 1477.5 c 128,-1,33
 220 1500 220 1500 250 1500 c 2,34,-1
 1050 1500 l 2,35,36
 1125 1500 1125 1500 1125 1425 c 256,37,38
 1125 1350 1125 1350 1050 1350 c 2,39,-1
 325 1350 l 1,40,-1
 325 825 l 1,41,-1
 1050 825 l 2,42,43
 1125 825 1125 825 1125 750 c 256,44,45
 1125 675 1125 675 1050 675 c 2,46,-1
 325 675 l 1,47,-1
 325 150 l 1,48,-1
 1050 150 l 2,49,50
 1125 150 1125 150 1125 75 c 256,24,25
EndSplineSet
Validated: 1
EndChar

StartChar: Igrave
Encoding: 204 204 141
Width: 1200
Flags: W
LayerCount: 2
Fore
SplineSet
826 1727 m 0,0,1
 826 1697 826 1697 804.5 1673 c 128,-1,2
 783 1649 783 1649 752 1649 c 0,3,4
 734 1649 734 1649 716 1658 c 2,5,-1
 416 1808 l 2,6,7
 374 1829 374 1829 374 1873 c 0,8,9
 374 1903 374 1903 395.5 1927 c 128,-1,10
 417 1951 417 1951 448 1951 c 0,11,12
 466 1951 466 1951 484 1942 c 2,13,-1
 784 1792 l 2,14,15
 826 1771 826 1771 826 1727 c 0,0,1
975 75 m 256,16,17
 975 0 975 0 900 0 c 2,18,-1
 300 0 l 2,19,20
 225 0 225 0 225 75 c 256,21,22
 225 150 225 150 300 150 c 2,23,-1
 522 150 l 1,24,-1
 522 1350 l 1,25,-1
 300 1350 l 2,26,27
 225 1350 225 1350 225 1425 c 256,28,29
 225 1500 225 1500 300 1500 c 2,30,-1
 900 1500 l 2,31,32
 975 1500 975 1500 975 1425 c 256,33,34
 975 1350 975 1350 900 1350 c 2,35,-1
 672 1350 l 1,36,-1
 672 150 l 1,37,-1
 900 150 l 2,38,39
 975 150 975 150 975 75 c 256,16,17
EndSplineSet
Validated: 1
EndChar

StartChar: Iacute
Encoding: 205 205 142
Width: 1200
Flags: W
LayerCount: 2
Fore
SplineSet
826 1873 m 0,0,1
 826 1829 826 1829 784 1808 c 2,2,-1
 484 1658 l 2,3,4
 466 1649 466 1649 448 1649 c 0,5,6
 417 1649 417 1649 395.5 1673 c 128,-1,7
 374 1697 374 1697 374 1727 c 0,8,9
 374 1771 374 1771 416 1792 c 2,10,-1
 716 1942 l 2,11,12
 734 1951 734 1951 752 1951 c 0,13,14
 783 1951 783 1951 804.5 1927 c 128,-1,15
 826 1903 826 1903 826 1873 c 0,0,1
975 75 m 256,16,17
 975 0 975 0 900 0 c 2,18,-1
 300 0 l 2,19,20
 225 0 225 0 225 75 c 256,21,22
 225 150 225 150 300 150 c 2,23,-1
 522 150 l 1,24,-1
 522 1350 l 1,25,-1
 300 1350 l 2,26,27
 225 1350 225 1350 225 1425 c 256,28,29
 225 1500 225 1500 300 1500 c 2,30,-1
 900 1500 l 2,31,32
 975 1500 975 1500 975 1425 c 256,33,34
 975 1350 975 1350 900 1350 c 2,35,-1
 672 1350 l 1,36,-1
 672 150 l 1,37,-1
 900 150 l 2,38,39
 975 150 975 150 975 75 c 256,16,17
EndSplineSet
Validated: 1
EndChar

StartChar: Icircumflex
Encoding: 206 206 143
Width: 1200
Flags: W
LayerCount: 2
Fore
SplineSet
901 1727 m 0,0,1
 901 1697 901 1697 878.5 1673 c 128,-1,2
 856 1649 856 1649 826 1649 c 0,3,4
 804 1649 804 1649 783 1663 c 2,5,-1
 600 1785 l 1,6,-1
 417 1663 l 2,7,8
 396 1649 396 1649 374 1649 c 0,9,10
 344 1649 344 1649 321.5 1673 c 128,-1,11
 299 1697 299 1697 299 1727 c 0,12,13
 299 1764 299 1764 333 1787 c 2,14,-1
 552 1933 l 2,15,16
 579 1951 579 1951 600 1951 c 256,17,18
 621 1951 621 1951 648 1933 c 2,19,-1
 867 1787 l 2,20,21
 901 1764 901 1764 901 1727 c 0,0,1
975 75 m 256,22,23
 975 0 975 0 900 0 c 2,24,-1
 300 0 l 2,25,26
 225 0 225 0 225 75 c 256,27,28
 225 150 225 150 300 150 c 2,29,-1
 525 150 l 1,30,-1
 525 1350 l 1,31,-1
 300 1350 l 2,32,33
 225 1350 225 1350 225 1425 c 256,34,35
 225 1500 225 1500 300 1500 c 2,36,-1
 900 1500 l 2,37,38
 975 1500 975 1500 975 1425 c 256,39,40
 975 1350 975 1350 900 1350 c 2,41,-1
 675 1350 l 1,42,-1
 675 150 l 1,43,-1
 900 150 l 2,44,45
 975 150 975 150 975 75 c 256,22,23
EndSplineSet
Validated: 1
EndChar

StartChar: Idieresis
Encoding: 207 207 144
Width: 1200
Flags: W
LayerCount: 2
Fore
SplineSet
938 1763 m 256,0,1
 938 1716 938 1716 904.5 1683 c 128,-1,2
 871 1650 871 1650 825 1650 c 0,3,4
 778 1650 778 1650 745.5 1683 c 128,-1,5
 713 1716 713 1716 713 1763 c 256,6,7
 713 1810 713 1810 745.5 1842.5 c 128,-1,8
 778 1875 778 1875 825 1875 c 0,9,10
 871 1875 871 1875 904.5 1842.5 c 128,-1,11
 938 1810 938 1810 938 1763 c 256,0,1
488 1763 m 256,12,13
 488 1716 488 1716 454.5 1683 c 128,-1,14
 421 1650 421 1650 375 1650 c 0,15,16
 328 1650 328 1650 295.5 1683 c 128,-1,17
 263 1716 263 1716 263 1763 c 256,18,19
 263 1810 263 1810 295.5 1842.5 c 128,-1,20
 328 1875 328 1875 375 1875 c 0,21,22
 421 1875 421 1875 454.5 1842.5 c 128,-1,23
 488 1810 488 1810 488 1763 c 256,12,13
975 75 m 256,24,25
 975 0 975 0 900 0 c 2,26,-1
 300 0 l 2,27,28
 225 0 225 0 225 75 c 256,29,30
 225 150 225 150 300 150 c 2,31,-1
 525 150 l 1,32,-1
 525 1350 l 1,33,-1
 300 1350 l 2,34,35
 225 1350 225 1350 225 1425 c 256,36,37
 225 1500 225 1500 300 1500 c 2,38,-1
 900 1500 l 2,39,40
 975 1500 975 1500 975 1425 c 256,41,42
 975 1350 975 1350 900 1350 c 2,43,-1
 675 1350 l 1,44,-1
 675 150 l 1,45,-1
 900 150 l 2,46,47
 975 150 975 150 975 75 c 256,24,25
EndSplineSet
Validated: 1
EndChar

StartChar: Eth
Encoding: 208 208 145
Width: 1200
Flags: W
LayerCount: 2
Fore
SplineSet
1125 750 m 256,0,1
 1125 440 1125 440 905 220 c 128,-1,2
 685 0 685 0 375 0 c 0,3,4
 345 0 345 0 322.5 22.5 c 128,-1,5
 300 45 300 45 300 75 c 2,6,-1
 300 675 l 1,7,-1
 150 675 l 2,8,9
 75 675 75 675 75 750 c 256,10,11
 75 825 75 825 150 825 c 2,12,-1
 300 825 l 1,13,-1
 300 1425 l 2,14,15
 300 1455 300 1455 322.5 1477.5 c 128,-1,16
 345 1500 345 1500 375 1500 c 0,17,18
 685 1500 685 1500 905 1280 c 128,-1,19
 1125 1060 1125 1060 1125 750 c 256,0,1
975 750 m 256,20,21
 975 976 975 976 825 1146.5 c 128,-1,22
 675 1317 675 1317 450 1345 c 1,23,-1
 450 825 l 1,24,-1
 600 825 l 2,25,26
 675 825 675 825 675 750 c 256,27,28
 675 675 675 675 600 675 c 2,29,-1
 450 675 l 1,30,-1
 450 155 l 1,31,32
 675 183 675 183 825 353.5 c 128,-1,33
 975 524 975 524 975 750 c 256,20,21
EndSplineSet
Validated: 1
EndChar

StartChar: Ntilde
Encoding: 209 209 146
Width: 1200
Flags: W
LayerCount: 2
Fore
SplineSet
976 1803 m 0,0,1
 976 1779 976 1779 958 1749 c 0,2,3
 900 1650 900 1650 750 1650 c 0,4,5
 665 1650 665 1650 573.5 1725 c 128,-1,6
 482 1800 482 1800 450 1800 c 0,7,8
 399 1800 399 1800 371 1776 c 1,9,10
 354 1725 354 1725 302 1725 c 0,11,12
 224 1725 224 1725 224 1797 c 0,13,14
 224 1821 224 1821 242 1851 c 0,15,16
 300 1950 300 1950 450 1950 c 0,17,18
 535 1950 535 1950 626.5 1875 c 128,-1,19
 718 1800 718 1800 750 1800 c 0,20,21
 811 1800 811 1800 836.5 1837.5 c 128,-1,22
 862 1875 862 1875 898 1875 c 0,23,24
 976 1875 976 1875 976 1803 c 0,0,1
1026 74 m 2,25,26
 1026 -1 1026 -1 948 -1 c 0,27,28
 905 -1 905 -1 879 50 c 2,29,-1
 325 1117 l 1,30,-1
 325 75 l 2,31,32
 325 0 325 0 250 0 c 256,33,34
 175 0 175 0 175 75 c 2,35,-1
 174 1426 l 2,36,37
 174 1501 174 1501 252 1501 c 0,38,39
 295 1501 295 1501 321 1450 c 2,40,-1
 875 383 l 1,41,-1
 875 1425 l 2,42,43
 875 1500 875 1500 950 1500 c 256,44,45
 1025 1500 1025 1500 1025 1425 c 2,46,-1
 1026 74 l 2,25,26
EndSplineSet
Validated: 1
EndChar

StartChar: Ograve
Encoding: 210 210 147
Width: 1200
Flags: W
LayerCount: 2
Fore
SplineSet
841 1727 m 0,0,1
 841 1697 841 1697 819.5 1673 c 128,-1,2
 798 1649 798 1649 767 1649 c 0,3,4
 749 1649 749 1649 731 1658 c 2,5,-1
 431 1808 l 2,6,7
 389 1829 389 1829 389 1873 c 0,8,9
 389 1903 389 1903 410.5 1927 c 128,-1,10
 432 1951 432 1951 463 1951 c 0,11,12
 481 1951 481 1951 499 1942 c 2,13,-1
 799 1792 l 2,14,15
 841 1771 841 1771 841 1727 c 0,0,1
1125 750 m 256,16,17
 1125 481 1125 481 999 261 c 0,18,19
 849 0 849 0 600 0 c 256,20,21
 351 0 351 0 201 261 c 0,22,23
 75 481 75 481 75 750 c 256,24,25
 75 1019 75 1019 201 1239 c 0,26,27
 351 1500 351 1500 600 1500 c 256,28,29
 849 1500 849 1500 999 1239 c 0,30,31
 1125 1019 1125 1019 1125 750 c 256,16,17
975 750 m 256,32,33
 975 881 975 881 942 996 c 0,34,35
 903 1132 903 1132 822 1230 c 0,36,37
 722 1350 722 1350 600 1350 c 256,38,39
 478 1350 478 1350 378 1230 c 0,40,41
 297 1132 297 1132 258 996 c 0,42,43
 225 881 225 881 225 750 c 256,44,45
 225 619 225 619 258 504 c 0,46,47
 297 368 297 368 378 270 c 0,48,49
 478 150 478 150 600 150 c 256,50,51
 722 150 722 150 822 270 c 0,52,53
 903 368 903 368 942 504 c 0,54,55
 975 619 975 619 975 750 c 256,32,33
EndSplineSet
Validated: 1
EndChar

StartChar: Oacute
Encoding: 211 211 148
Width: 1200
Flags: W
LayerCount: 2
Fore
SplineSet
841 1873 m 0,0,1
 841 1829 841 1829 799 1808 c 2,2,-1
 499 1658 l 2,3,4
 481 1649 481 1649 463 1649 c 0,5,6
 432 1649 432 1649 410.5 1673 c 128,-1,7
 389 1697 389 1697 389 1727 c 0,8,9
 389 1771 389 1771 431 1792 c 2,10,-1
 731 1942 l 2,11,12
 749 1951 749 1951 767 1951 c 0,13,14
 798 1951 798 1951 819.5 1927 c 128,-1,15
 841 1903 841 1903 841 1873 c 0,0,1
1125 750 m 256,16,17
 1125 481 1125 481 999 261 c 0,18,19
 849 0 849 0 600 0 c 256,20,21
 351 0 351 0 201 261 c 0,22,23
 75 481 75 481 75 750 c 256,24,25
 75 1019 75 1019 201 1239 c 0,26,27
 351 1500 351 1500 600 1500 c 256,28,29
 849 1500 849 1500 999 1239 c 0,30,31
 1125 1019 1125 1019 1125 750 c 256,16,17
975 750 m 256,32,33
 975 881 975 881 942 996 c 0,34,35
 903 1132 903 1132 822 1230 c 0,36,37
 722 1350 722 1350 600 1350 c 256,38,39
 478 1350 478 1350 378 1230 c 0,40,41
 297 1132 297 1132 258 996 c 0,42,43
 225 881 225 881 225 750 c 256,44,45
 225 619 225 619 258 504 c 0,46,47
 297 368 297 368 378 270 c 0,48,49
 478 150 478 150 600 150 c 256,50,51
 722 150 722 150 822 270 c 0,52,53
 903 368 903 368 942 504 c 0,54,55
 975 619 975 619 975 750 c 256,32,33
EndSplineSet
Validated: 1
EndChar

StartChar: Ocircumflex
Encoding: 212 212 149
Width: 1200
Flags: W
LayerCount: 2
Fore
SplineSet
901 1727 m 0,0,1
 901 1697 901 1697 878.5 1673 c 128,-1,2
 856 1649 856 1649 826 1649 c 0,3,4
 804 1649 804 1649 783 1663 c 2,5,-1
 600 1785 l 1,6,-1
 417 1663 l 2,7,8
 396 1649 396 1649 374 1649 c 0,9,10
 344 1649 344 1649 321.5 1673 c 128,-1,11
 299 1697 299 1697 299 1727 c 0,12,13
 299 1764 299 1764 333 1787 c 2,14,-1
 552 1933 l 2,15,16
 579 1951 579 1951 600 1951 c 256,17,18
 621 1951 621 1951 648 1933 c 2,19,-1
 867 1787 l 2,20,21
 901 1764 901 1764 901 1727 c 0,0,1
1125 750 m 256,22,23
 1125 481 1125 481 999 261 c 0,24,25
 849 0 849 0 600 0 c 256,26,27
 351 0 351 0 201 261 c 0,28,29
 75 481 75 481 75 750 c 256,30,31
 75 1019 75 1019 201 1239 c 0,32,33
 351 1500 351 1500 600 1500 c 256,34,35
 849 1500 849 1500 999 1239 c 0,36,37
 1125 1019 1125 1019 1125 750 c 256,22,23
975 750 m 256,38,39
 975 881 975 881 942 996 c 0,40,41
 903 1132 903 1132 822 1230 c 0,42,43
 722 1350 722 1350 600 1350 c 256,44,45
 478 1350 478 1350 378 1230 c 0,46,47
 297 1132 297 1132 258 996 c 0,48,49
 225 881 225 881 225 750 c 256,50,51
 225 619 225 619 258 504 c 0,52,53
 297 368 297 368 378 270 c 0,54,55
 478 150 478 150 600 150 c 256,56,57
 722 150 722 150 822 270 c 0,58,59
 903 368 903 368 942 504 c 0,60,61
 975 619 975 619 975 750 c 256,38,39
EndSplineSet
Validated: 1
EndChar

StartChar: Otilde
Encoding: 213 213 150
Width: 1200
Flags: W
LayerCount: 2
Fore
SplineSet
991 1803 m 0,0,1
 991 1779 991 1779 973 1749 c 0,2,3
 915 1650 915 1650 765 1650 c 0,4,5
 680 1650 680 1650 588.5 1725 c 128,-1,6
 497 1800 497 1800 465 1800 c 0,7,8
 414 1800 414 1800 386 1776 c 1,9,10
 369 1725 369 1725 317 1725 c 0,11,12
 239 1725 239 1725 239 1797 c 0,13,14
 239 1821 239 1821 257 1851 c 0,15,16
 315 1950 315 1950 465 1950 c 0,17,18
 550 1950 550 1950 641.5 1875 c 128,-1,19
 733 1800 733 1800 765 1800 c 0,20,21
 826 1800 826 1800 851.5 1837.5 c 128,-1,22
 877 1875 877 1875 913 1875 c 0,23,24
 991 1875 991 1875 991 1803 c 0,0,1
1125 750 m 256,25,26
 1125 481 1125 481 999 261 c 0,27,28
 849 0 849 0 600 0 c 256,29,30
 351 0 351 0 201 261 c 0,31,32
 75 481 75 481 75 750 c 256,33,34
 75 1019 75 1019 201 1239 c 0,35,36
 351 1500 351 1500 600 1500 c 256,37,38
 849 1500 849 1500 999 1239 c 0,39,40
 1125 1019 1125 1019 1125 750 c 256,25,26
975 750 m 256,41,42
 975 881 975 881 942 996 c 0,43,44
 903 1132 903 1132 822 1230 c 0,45,46
 722 1350 722 1350 600 1350 c 256,47,48
 478 1350 478 1350 378 1230 c 0,49,50
 297 1132 297 1132 258 996 c 0,51,52
 225 881 225 881 225 750 c 256,53,54
 225 619 225 619 258 504 c 0,55,56
 297 368 297 368 378 270 c 0,57,58
 478 150 478 150 600 150 c 256,59,60
 722 150 722 150 822 270 c 0,61,62
 903 368 903 368 942 504 c 0,63,64
 975 619 975 619 975 750 c 256,41,42
EndSplineSet
Validated: 1
EndChar

StartChar: Odieresis
Encoding: 214 214 151
Width: 1200
Flags: W
LayerCount: 2
Fore
SplineSet
938 1763 m 256,0,1
 938 1716 938 1716 905 1683 c 128,-1,2
 872 1650 872 1650 825 1650 c 256,3,4
 778 1650 778 1650 745.5 1683 c 128,-1,5
 713 1716 713 1716 713 1763 c 256,6,7
 713 1810 713 1810 745.5 1842.5 c 128,-1,8
 778 1875 778 1875 825 1875 c 256,9,10
 872 1875 872 1875 905 1842.5 c 128,-1,11
 938 1810 938 1810 938 1763 c 256,0,1
488 1763 m 256,12,13
 488 1716 488 1716 455 1683 c 128,-1,14
 422 1650 422 1650 375 1650 c 256,15,16
 328 1650 328 1650 295.5 1683 c 128,-1,17
 263 1716 263 1716 263 1763 c 256,18,19
 263 1810 263 1810 295.5 1842.5 c 128,-1,20
 328 1875 328 1875 375 1875 c 256,21,22
 422 1875 422 1875 455 1842.5 c 128,-1,23
 488 1810 488 1810 488 1763 c 256,12,13
1125 750 m 256,24,25
 1125 481 1125 481 999 261 c 0,26,27
 849 0 849 0 600 0 c 256,28,29
 351 0 351 0 201 261 c 0,30,31
 75 481 75 481 75 750 c 256,32,33
 75 1019 75 1019 201 1239 c 0,34,35
 351 1500 351 1500 600 1500 c 256,36,37
 849 1500 849 1500 999 1239 c 0,38,39
 1125 1019 1125 1019 1125 750 c 256,24,25
975 750 m 256,40,41
 975 881 975 881 942 996 c 0,42,43
 903 1132 903 1132 822 1230 c 0,44,45
 722 1350 722 1350 600 1350 c 256,46,47
 478 1350 478 1350 378 1230 c 0,48,49
 297 1132 297 1132 258 996 c 0,50,51
 225 881 225 881 225 750 c 256,52,53
 225 619 225 619 258 504 c 0,54,55
 297 368 297 368 378 270 c 0,56,57
 478 150 478 150 600 150 c 256,58,59
 722 150 722 150 822 270 c 0,60,61
 903 368 903 368 942 504 c 0,62,63
 975 619 975 619 975 750 c 256,40,41
EndSplineSet
Validated: 1
EndChar

StartChar: multiply
Encoding: 215 215 152
Width: 1200
Flags: W
LayerCount: 2
Fore
SplineSet
995 207 m 256,0,1
 995 177 995 177 971.5 153.5 c 128,-1,2
 948 130 948 130 918 130 c 256,3,4
 888 130 888 130 865 154 c 2,5,-1
 600 419 l 1,6,-1
 335 154 l 2,7,8
 312 130 312 130 282 130 c 256,9,10
 252 130 252 130 228.5 153.5 c 128,-1,11
 205 177 205 177 205 207 c 256,12,13
 205 237 205 237 229 260 c 2,14,-1
 494 525 l 1,15,-1
 229 790 l 2,16,17
 205 813 205 813 205 843 c 256,18,19
 205 873 205 873 228.5 896.5 c 128,-1,20
 252 920 252 920 282 920 c 256,21,22
 312 920 312 920 335 896 c 2,23,-1
 600 631 l 1,24,-1
 865 896 l 2,25,26
 888 920 888 920 918 920 c 256,27,28
 948 920 948 920 971.5 896.5 c 128,-1,29
 995 873 995 873 995 843 c 256,30,31
 995 813 995 813 971 790 c 2,32,-1
 706 525 l 1,33,-1
 971 260 l 2,34,35
 995 237 995 237 995 207 c 256,0,1
EndSplineSet
Validated: 1
EndChar

StartChar: Oslash
Encoding: 216 216 153
Width: 1200
Flags: W
LayerCount: 2
Fore
SplineSet
1126 1426 m 0,0,1
 1126 1401 1126 1401 1007 1225 c 1,2,3
 1125 1016 1125 1016 1125 750 c 0,4,5
 1125 481 1125 481 999 261 c 0,6,7
 849 0 849 0 600 0 c 0,8,9
 423 0 423 0 287 145 c 1,10,-1
 212 33 l 2,11,12
 189 -1 189 -1 152 -1 c 0,13,14
 122 -1 122 -1 98 21 c 128,-1,15
 74 43 74 43 74 74 c 0,16,17
 74 99 74 99 193 275 c 1,18,19
 75 484 75 484 75 750 c 0,20,21
 75 1019 75 1019 201 1239 c 0,22,23
 351 1500 351 1500 600 1500 c 0,24,25
 777 1500 777 1500 913 1355 c 1,26,-1
 988 1467 l 2,27,28
 1011 1501 1011 1501 1048 1501 c 0,29,30
 1078 1501 1078 1501 1102 1479 c 128,-1,31
 1126 1457 1126 1457 1126 1426 c 0,0,1
826 1225 m 1,32,33
 723 1350 723 1350 600 1350 c 0,34,35
 482 1350 482 1350 384 1237 c 0,36,37
 304 1144 304 1144 263 1013 c 0,38,39
 225 891 225 891 225 750 c 0,40,41
 225 566 225 566 288 418 c 1,42,-1
 826 1225 l 1,32,33
975 750 m 0,43,44
 975 934 975 934 912 1082 c 1,45,-1
 374 275 l 1,46,47
 477 150 477 150 600 150 c 0,48,49
 718 150 718 150 816 264 c 0,50,51
 896 356 896 356 937 487 c 0,52,53
 975 609 975 609 975 750 c 0,43,44
EndSplineSet
Validated: 1
EndChar

StartChar: Ugrave
Encoding: 217 217 154
Width: 1200
Flags: W
LayerCount: 2
Fore
SplineSet
826 1727 m 0,0,1
 826 1697 826 1697 804.5 1673 c 128,-1,2
 783 1649 783 1649 752 1649 c 0,3,4
 734 1649 734 1649 716 1658 c 2,5,-1
 416 1808 l 2,6,7
 374 1829 374 1829 374 1873 c 0,8,9
 374 1903 374 1903 395.5 1927 c 128,-1,10
 417 1951 417 1951 448 1951 c 0,11,12
 466 1951 466 1951 484 1942 c 2,13,-1
 784 1792 l 2,14,15
 826 1771 826 1771 826 1727 c 0,0,1
1075 475 m 2,16,17
 1075 278 1075 278 936 139 c 128,-1,18
 797 0 797 0 600 0 c 256,19,20
 403 0 403 0 264 139 c 128,-1,21
 125 278 125 278 125 475 c 2,22,-1
 125 1425 l 2,23,24
 125 1500 125 1500 200 1500 c 256,25,26
 275 1500 275 1500 275 1425 c 2,27,-1
 275 475 l 2,28,29
 275 341 275 341 370.5 245.5 c 128,-1,30
 466 150 466 150 600 150 c 256,31,32
 734 150 734 150 829.5 245.5 c 128,-1,33
 925 341 925 341 925 475 c 2,34,-1
 925 1425 l 2,35,36
 925 1500 925 1500 1000 1500 c 256,37,38
 1075 1500 1075 1500 1075 1425 c 2,39,-1
 1075 475 l 2,16,17
EndSplineSet
Validated: 1
EndChar

StartChar: Uacute
Encoding: 218 218 155
Width: 1200
Flags: W
LayerCount: 2
Fore
SplineSet
826 1873 m 0,0,1
 826 1829 826 1829 784 1808 c 2,2,-1
 484 1658 l 2,3,4
 466 1649 466 1649 448 1649 c 0,5,6
 417 1649 417 1649 395.5 1673 c 128,-1,7
 374 1697 374 1697 374 1727 c 0,8,9
 374 1771 374 1771 416 1792 c 2,10,-1
 716 1942 l 2,11,12
 734 1951 734 1951 752 1951 c 0,13,14
 783 1951 783 1951 804.5 1927 c 128,-1,15
 826 1903 826 1903 826 1873 c 0,0,1
1075 475 m 2,16,17
 1075 278 1075 278 936 139 c 128,-1,18
 797 0 797 0 600 0 c 256,19,20
 403 0 403 0 264 139 c 128,-1,21
 125 278 125 278 125 475 c 2,22,-1
 125 1425 l 2,23,24
 125 1500 125 1500 200 1500 c 256,25,26
 275 1500 275 1500 275 1425 c 2,27,-1
 275 475 l 2,28,29
 275 341 275 341 370.5 245.5 c 128,-1,30
 466 150 466 150 600 150 c 256,31,32
 734 150 734 150 829.5 245.5 c 128,-1,33
 925 341 925 341 925 475 c 2,34,-1
 925 1425 l 2,35,36
 925 1500 925 1500 1000 1500 c 256,37,38
 1075 1500 1075 1500 1075 1425 c 2,39,-1
 1075 475 l 2,16,17
EndSplineSet
Validated: 1
EndChar

StartChar: Ucircumflex
Encoding: 219 219 156
Width: 1200
Flags: W
LayerCount: 2
Fore
SplineSet
901 1727 m 0,0,1
 901 1697 901 1697 878.5 1673 c 128,-1,2
 856 1649 856 1649 826 1649 c 0,3,4
 804 1649 804 1649 783 1663 c 2,5,-1
 600 1785 l 1,6,-1
 417 1663 l 2,7,8
 396 1649 396 1649 374 1649 c 0,9,10
 344 1649 344 1649 321.5 1673 c 128,-1,11
 299 1697 299 1697 299 1727 c 0,12,13
 299 1764 299 1764 333 1787 c 2,14,-1
 552 1933 l 2,15,16
 579 1951 579 1951 600 1951 c 256,17,18
 621 1951 621 1951 648 1933 c 2,19,-1
 867 1787 l 2,20,21
 901 1764 901 1764 901 1727 c 0,0,1
1075 475 m 2,22,23
 1075 278 1075 278 936 139 c 128,-1,24
 797 0 797 0 600 0 c 256,25,26
 403 0 403 0 264 139 c 128,-1,27
 125 278 125 278 125 475 c 2,28,-1
 125 1425 l 2,29,30
 125 1500 125 1500 200 1500 c 256,31,32
 275 1500 275 1500 275 1425 c 2,33,-1
 275 475 l 2,34,35
 275 341 275 341 370.5 245.5 c 128,-1,36
 466 150 466 150 600 150 c 256,37,38
 734 150 734 150 829.5 245.5 c 128,-1,39
 925 341 925 341 925 475 c 2,40,-1
 925 1425 l 2,41,42
 925 1500 925 1500 1000 1500 c 256,43,44
 1075 1500 1075 1500 1075 1425 c 2,45,-1
 1075 475 l 2,22,23
EndSplineSet
Validated: 1
EndChar

StartChar: Udieresis
Encoding: 220 220 157
Width: 1200
Flags: W
LayerCount: 2
Fore
SplineSet
938 1763 m 256,0,1
 938 1716 938 1716 905 1683 c 128,-1,2
 872 1650 872 1650 825 1650 c 256,3,4
 778 1650 778 1650 745.5 1683 c 128,-1,5
 713 1716 713 1716 713 1763 c 256,6,7
 713 1810 713 1810 745.5 1842.5 c 128,-1,8
 778 1875 778 1875 825 1875 c 256,9,10
 872 1875 872 1875 905 1842.5 c 128,-1,11
 938 1810 938 1810 938 1763 c 256,0,1
488 1763 m 256,12,13
 488 1716 488 1716 455 1683 c 128,-1,14
 422 1650 422 1650 375 1650 c 256,15,16
 328 1650 328 1650 295.5 1683 c 128,-1,17
 263 1716 263 1716 263 1763 c 256,18,19
 263 1810 263 1810 295.5 1842.5 c 128,-1,20
 328 1875 328 1875 375 1875 c 256,21,22
 422 1875 422 1875 455 1842.5 c 128,-1,23
 488 1810 488 1810 488 1763 c 256,12,13
1075 475 m 2,24,25
 1075 278 1075 278 936 139 c 128,-1,26
 797 0 797 0 600 0 c 256,27,28
 403 0 403 0 264 139 c 128,-1,29
 125 278 125 278 125 475 c 2,30,-1
 125 1425 l 2,31,32
 125 1500 125 1500 200 1500 c 256,33,34
 275 1500 275 1500 275 1425 c 2,35,-1
 275 475 l 2,36,37
 275 341 275 341 370.5 245.5 c 128,-1,38
 466 150 466 150 600 150 c 256,39,40
 734 150 734 150 829.5 245.5 c 128,-1,41
 925 341 925 341 925 475 c 2,42,-1
 925 1425 l 2,43,44
 925 1500 925 1500 1000 1500 c 256,45,46
 1075 1500 1075 1500 1075 1425 c 2,47,-1
 1075 475 l 2,24,25
EndSplineSet
Validated: 1
EndChar

StartChar: Yacute
Encoding: 221 221 158
Width: 1200
Flags: W
LayerCount: 2
Fore
SplineSet
826 1873 m 0,0,1
 826 1829 826 1829 784 1808 c 2,2,-1
 484 1658 l 2,3,4
 466 1649 466 1649 448 1649 c 0,5,6
 417 1649 417 1649 395.5 1673 c 128,-1,7
 374 1697 374 1697 374 1727 c 0,8,9
 374 1771 374 1771 416 1792 c 2,10,-1
 716 1942 l 2,11,12
 734 1951 734 1951 752 1951 c 0,13,14
 783 1951 783 1951 804.5 1927 c 128,-1,15
 826 1903 826 1903 826 1873 c 0,0,1
1126 1426 m 0,16,17
 1126 1404 1126 1404 1112 1383 c 2,18,-1
 675 727 l 1,19,-1
 675 75 l 2,20,21
 675 0 675 0 600 0 c 256,22,23
 525 0 525 0 525 75 c 2,24,-1
 525 727 l 1,25,-1
 88 1383 l 2,26,27
 74 1404 74 1404 74 1426 c 0,28,29
 74 1456 74 1456 98 1478.5 c 128,-1,30
 122 1501 122 1501 152 1501 c 0,31,32
 189 1501 189 1501 212 1467 c 2,33,-1
 600 885 l 1,34,-1
 988 1467 l 2,35,36
 1011 1501 1011 1501 1048 1501 c 0,37,38
 1078 1501 1078 1501 1102 1478.5 c 128,-1,39
 1126 1456 1126 1456 1126 1426 c 0,16,17
EndSplineSet
Validated: 1
EndChar

StartChar: Thorn
Encoding: 222 222 159
Width: 1200
Flags: W
LayerCount: 2
Fore
SplineSet
1125 750 m 256,0,1
 1125 533 1125 533 971 379 c 128,-1,2
 817 225 817 225 600 225 c 2,3,-1
 325 225 l 1,4,-1
 325 75 l 2,5,6
 325 0 325 0 250 0 c 256,7,8
 175 0 175 0 175 75 c 2,9,-1
 175 1425 l 2,10,11
 175 1500 175 1500 250 1500 c 256,12,13
 325 1500 325 1500 325 1425 c 2,14,-1
 325 1275 l 1,15,-1
 600 1275 l 2,16,17
 817 1275 817 1275 971 1121 c 128,-1,18
 1125 967 1125 967 1125 750 c 256,0,1
975 750 m 256,19,20
 975 905 975 905 865 1015 c 128,-1,21
 755 1125 755 1125 600 1125 c 2,22,-1
 325 1125 l 1,23,-1
 325 375 l 1,24,-1
 600 375 l 2,25,26
 755 375 755 375 865 485 c 128,-1,27
 975 595 975 595 975 750 c 256,19,20
EndSplineSet
Validated: 1
EndChar

StartChar: germandbls
Encoding: 223 223 160
Width: 1200
Flags: W
LayerCount: 2
Fore
SplineSet
1125 338 m 0,0,1
 1125 198 1125 198 1026 99 c 128,-1,2
 927 0 927 0 788 0 c 0,3,4
 683 0 683 0 596 60 c 128,-1,5
 509 120 509 120 472 217 c 0,6,7
 466 233 466 233 466 247 c 0,8,9
 466 277 466 277 490 298.5 c 128,-1,10
 514 320 514 320 545 320 c 0,11,12
 580 320 580 320 609 276 c 0,13,14
 656 205 656 205 667 194 c 0,15,16
 713 150 713 150 788 150 c 0,17,18
 865 150 865 150 920 205 c 128,-1,19
 975 260 975 260 975 338 c 0,20,21
 975 415 975 415 920 470 c 128,-1,22
 865 525 865 525 788 525 c 0,23,24
 679 525 679 525 602 602 c 128,-1,25
 525 679 525 679 525 788 c 256,26,27
 525 897 525 897 621.5 986.5 c 128,-1,28
 718 1076 718 1076 718 1167 c 0,29,30
 718 1243 718 1243 664 1296.5 c 128,-1,31
 610 1350 610 1350 535 1350 c 0,32,33
 447 1350 447 1350 384.5 1287.5 c 128,-1,34
 322 1225 322 1225 322 1137 c 2,35,-1
 322 75 l 2,36,37
 322 0 322 0 247 0 c 256,38,39
 172 0 172 0 172 75 c 2,40,-1
 172 1137 l 2,41,42
 172 1287 172 1287 278.5 1393.5 c 128,-1,43
 385 1500 385 1500 535 1500 c 0,44,45
 672 1500 672 1500 770 1402.5 c 128,-1,46
 868 1305 868 1305 868 1167 c 0,47,48
 868 998 868 998 728 883 c 0,49,50
 675 840 675 840 675 788 c 0,51,52
 675 741 675 741 708 708 c 128,-1,53
 741 675 741 675 788 675 c 0,54,55
 927 675 927 675 1026 576 c 128,-1,56
 1125 477 1125 477 1125 338 c 0,0,1
EndSplineSet
Validated: 1
EndChar

StartChar: agrave
Encoding: 224 224 161
Width: 1200
Flags: W
LayerCount: 2
Fore
SplineSet
801 1277 m 0,0,1
 801 1247 801 1247 779.5 1223 c 128,-1,2
 758 1199 758 1199 727 1199 c 0,3,4
 709 1199 709 1199 691 1208 c 2,5,-1
 391 1358 l 2,6,7
 349 1379 349 1379 349 1423 c 0,8,9
 349 1453 349 1453 370.5 1477 c 128,-1,10
 392 1501 392 1501 423 1501 c 0,11,12
 441 1501 441 1501 459 1492 c 2,13,-1
 759 1342 l 2,14,15
 801 1321 801 1321 801 1277 c 0,0,1
1075 75 m 2,16,17
 1075 0 1075 0 1000 0 c 0,18,19
 923 0 923 0 925 106 c 1,20,21
 777 0 777 0 575 0 c 0,22,23
 390 0 390 0 244 93 c 0,24,25
 75 201 75 201 75 375 c 256,26,27
 75 549 75 549 244 657 c 0,28,29
 391 750 391 750 575 750 c 0,30,31
 777 750 777 750 925 644 c 1,32,-1
 925 675 l 2,33,34
 925 719 925 719 894 764 c 0,35,36
 802 900 802 900 575 900 c 0,37,38
 445 900 445 900 318 826 c 0,39,40
 292 811 292 811 273 811 c 0,41,42
 243 811 243 811 220.5 834.5 c 128,-1,43
 198 858 198 858 198 889 c 0,44,45
 198 963 198 963 355 1012 c 0,46,47
 477 1050 477 1050 575 1050 c 0,48,49
 759 1050 759 1050 906 957 c 0,50,51
 1075 849 1075 849 1075 675 c 2,52,-1
 1075 75 l 2,16,17
925 375 m 256,53,54
 925 446 925 446 857 506 c 0,55,56
 800 556 800 556 722 579 c 0,57,58
 654 600 654 600 575 600 c 0,59,60
 343 600 343 600 252 458 c 0,61,62
 225 416 225 416 225 375 c 256,63,64
 225 334 225 334 252 292 c 0,65,66
 343 150 343 150 575 150 c 0,67,68
 654 150 654 150 722 171 c 0,69,70
 800 194 800 194 857 244 c 0,71,72
 925 304 925 304 925 375 c 256,53,54
EndSplineSet
Validated: 33
EndChar

StartChar: aacute
Encoding: 225 225 162
Width: 1200
Flags: W
LayerCount: 2
Fore
SplineSet
801 1423 m 0,0,1
 801 1379 801 1379 759 1358 c 2,2,-1
 459 1208 l 2,3,4
 441 1199 441 1199 423 1199 c 0,5,6
 392 1199 392 1199 370.5 1223 c 128,-1,7
 349 1247 349 1247 349 1277 c 0,8,9
 349 1321 349 1321 391 1342 c 2,10,-1
 691 1492 l 2,11,12
 709 1501 709 1501 727 1501 c 0,13,14
 758 1501 758 1501 779.5 1477 c 128,-1,15
 801 1453 801 1453 801 1423 c 0,0,1
1075 75 m 2,16,17
 1075 0 1075 0 1000 0 c 0,18,19
 923 0 923 0 925 106 c 1,20,21
 777 0 777 0 575 0 c 0,22,23
 390 0 390 0 244 93 c 0,24,25
 75 201 75 201 75 375 c 256,26,27
 75 549 75 549 244 657 c 0,28,29
 391 750 391 750 575 750 c 0,30,31
 777 750 777 750 925 644 c 1,32,-1
 925 675 l 2,33,34
 925 719 925 719 894 764 c 0,35,36
 802 900 802 900 575 900 c 0,37,38
 445 900 445 900 318 826 c 0,39,40
 292 811 292 811 273 811 c 0,41,42
 243 811 243 811 220.5 834.5 c 128,-1,43
 198 858 198 858 198 889 c 0,44,45
 198 963 198 963 355 1012 c 0,46,47
 477 1050 477 1050 575 1050 c 0,48,49
 759 1050 759 1050 906 957 c 0,50,51
 1075 849 1075 849 1075 675 c 2,52,-1
 1075 75 l 2,16,17
925 375 m 256,53,54
 925 446 925 446 857 506 c 0,55,56
 800 556 800 556 722 579 c 0,57,58
 654 600 654 600 575 600 c 0,59,60
 343 600 343 600 252 458 c 0,61,62
 225 416 225 416 225 375 c 256,63,64
 225 334 225 334 252 292 c 0,65,66
 343 150 343 150 575 150 c 0,67,68
 654 150 654 150 722 171 c 0,69,70
 800 194 800 194 857 244 c 0,71,72
 925 304 925 304 925 375 c 256,53,54
EndSplineSet
Validated: 33
EndChar

StartChar: acircumflex
Encoding: 226 226 163
Width: 1200
Flags: W
LayerCount: 2
Fore
SplineSet
876 1277 m 0,0,1
 876 1247 876 1247 853.5 1223 c 128,-1,2
 831 1199 831 1199 801 1199 c 0,3,4
 779 1199 779 1199 758 1213 c 2,5,-1
 575 1335 l 1,6,-1
 392 1213 l 2,7,8
 371 1199 371 1199 349 1199 c 0,9,10
 319 1199 319 1199 296.5 1223 c 128,-1,11
 274 1247 274 1247 274 1277 c 0,12,13
 274 1314 274 1314 308 1337 c 2,14,-1
 527 1483 l 2,15,16
 554 1501 554 1501 575 1501 c 256,17,18
 596 1501 596 1501 623 1483 c 2,19,-1
 842 1337 l 2,20,21
 876 1314 876 1314 876 1277 c 0,0,1
1075 75 m 2,22,23
 1075 0 1075 0 1000 0 c 0,24,25
 923 0 923 0 925 106 c 1,26,27
 777 0 777 0 575 0 c 0,28,29
 390 0 390 0 244 93 c 0,30,31
 75 201 75 201 75 375 c 256,32,33
 75 549 75 549 244 657 c 0,34,35
 391 750 391 750 575 750 c 0,36,37
 777 750 777 750 925 644 c 1,38,-1
 925 675 l 2,39,40
 925 719 925 719 894 764 c 0,41,42
 802 900 802 900 575 900 c 0,43,44
 445 900 445 900 318 826 c 0,45,46
 292 811 292 811 273 811 c 0,47,48
 243 811 243 811 220.5 834.5 c 128,-1,49
 198 858 198 858 198 889 c 0,50,51
 198 963 198 963 355 1012 c 0,52,53
 477 1050 477 1050 575 1050 c 0,54,55
 759 1050 759 1050 906 957 c 0,56,57
 1075 849 1075 849 1075 675 c 2,58,-1
 1075 75 l 2,22,23
925 375 m 256,59,60
 925 446 925 446 857 506 c 0,61,62
 800 556 800 556 722 579 c 0,63,64
 654 600 654 600 575 600 c 0,65,66
 343 600 343 600 252 458 c 0,67,68
 225 416 225 416 225 375 c 256,69,70
 225 334 225 334 252 292 c 0,71,72
 343 150 343 150 575 150 c 0,73,74
 654 150 654 150 722 171 c 0,75,76
 800 194 800 194 857 244 c 0,77,78
 925 304 925 304 925 375 c 256,59,60
EndSplineSet
Validated: 33
EndChar

StartChar: atilde
Encoding: 227 227 164
Width: 1200
Flags: W
LayerCount: 2
Fore
SplineSet
951 1353 m 0,0,1
 951 1329 951 1329 933 1299 c 0,2,3
 875 1200 875 1200 725 1200 c 0,4,5
 640 1200 640 1200 548.5 1275 c 128,-1,6
 457 1350 457 1350 425 1350 c 0,7,8
 374 1350 374 1350 346 1326 c 1,9,10
 329 1275 329 1275 277 1275 c 0,11,12
 199 1275 199 1275 199 1347 c 0,13,14
 199 1371 199 1371 217 1401 c 0,15,16
 275 1500 275 1500 425 1500 c 0,17,18
 510 1500 510 1500 601.5 1425 c 128,-1,19
 693 1350 693 1350 725 1350 c 0,20,21
 786 1350 786 1350 811.5 1387.5 c 128,-1,22
 837 1425 837 1425 873 1425 c 0,23,24
 951 1425 951 1425 951 1353 c 0,0,1
1075 75 m 2,25,26
 1075 0 1075 0 1000 0 c 0,27,28
 923 0 923 0 925 106 c 1,29,30
 777 0 777 0 575 0 c 0,31,32
 390 0 390 0 244 93 c 0,33,34
 75 201 75 201 75 375 c 256,35,36
 75 549 75 549 244 657 c 0,37,38
 391 750 391 750 575 750 c 0,39,40
 777 750 777 750 925 644 c 1,41,-1
 925 675 l 2,42,43
 925 719 925 719 894 764 c 0,44,45
 802 900 802 900 575 900 c 0,46,47
 445 900 445 900 318 826 c 0,48,49
 292 811 292 811 273 811 c 0,50,51
 243 811 243 811 220.5 834.5 c 128,-1,52
 198 858 198 858 198 889 c 0,53,54
 198 963 198 963 355 1012 c 0,55,56
 477 1050 477 1050 575 1050 c 0,57,58
 759 1050 759 1050 906 957 c 0,59,60
 1075 849 1075 849 1075 675 c 2,61,-1
 1075 75 l 2,25,26
925 375 m 256,62,63
 925 446 925 446 857 506 c 0,64,65
 800 556 800 556 722 579 c 0,66,67
 654 600 654 600 575 600 c 0,68,69
 343 600 343 600 252 458 c 0,70,71
 225 416 225 416 225 375 c 256,72,73
 225 334 225 334 252 292 c 0,74,75
 343 150 343 150 575 150 c 0,76,77
 654 150 654 150 722 171 c 0,78,79
 800 194 800 194 857 244 c 0,80,81
 925 304 925 304 925 375 c 256,62,63
EndSplineSet
Validated: 33
EndChar

StartChar: adieresis
Encoding: 228 228 165
Width: 1200
Flags: W
LayerCount: 2
Fore
SplineSet
913 1313 m 256,0,1
 913 1266 913 1266 879.5 1233 c 128,-1,2
 846 1200 846 1200 800 1200 c 0,3,4
 753 1200 753 1200 720.5 1233 c 128,-1,5
 688 1266 688 1266 688 1313 c 256,6,7
 688 1360 688 1360 720.5 1392.5 c 128,-1,8
 753 1425 753 1425 800 1425 c 0,9,10
 846 1425 846 1425 879.5 1392.5 c 128,-1,11
 913 1360 913 1360 913 1313 c 256,0,1
463 1313 m 256,12,13
 463 1266 463 1266 429.5 1233 c 128,-1,14
 396 1200 396 1200 350 1200 c 0,15,16
 303 1200 303 1200 270.5 1233 c 128,-1,17
 238 1266 238 1266 238 1313 c 256,18,19
 238 1360 238 1360 270.5 1392.5 c 128,-1,20
 303 1425 303 1425 350 1425 c 0,21,22
 396 1425 396 1425 429.5 1392.5 c 128,-1,23
 463 1360 463 1360 463 1313 c 256,12,13
1075 75 m 2,24,25
 1075 0 1075 0 1000 0 c 0,26,27
 923 0 923 0 925 106 c 1,28,29
 777 0 777 0 575 0 c 0,30,31
 390 0 390 0 244 93 c 0,32,33
 75 201 75 201 75 375 c 256,34,35
 75 549 75 549 244 657 c 0,36,37
 391 750 391 750 575 750 c 0,38,39
 777 750 777 750 925 644 c 1,40,-1
 925 675 l 2,41,42
 925 719 925 719 894 764 c 0,43,44
 802 900 802 900 575 900 c 0,45,46
 445 900 445 900 318 826 c 0,47,48
 292 811 292 811 273 811 c 0,49,50
 243 811 243 811 220.5 834.5 c 128,-1,51
 198 858 198 858 198 889 c 0,52,53
 198 963 198 963 355 1012 c 0,54,55
 477 1050 477 1050 575 1050 c 0,56,57
 759 1050 759 1050 906 957 c 0,58,59
 1075 849 1075 849 1075 675 c 2,60,-1
 1075 75 l 2,24,25
925 375 m 256,61,62
 925 446 925 446 857 506 c 0,63,64
 800 556 800 556 722 579 c 0,65,66
 654 600 654 600 575 600 c 0,67,68
 343 600 343 600 252 458 c 0,69,70
 225 416 225 416 225 375 c 256,71,72
 225 334 225 334 252 292 c 0,73,74
 343 150 343 150 575 150 c 0,75,76
 654 150 654 150 722 171 c 0,77,78
 800 194 800 194 857 244 c 0,79,80
 925 304 925 304 925 375 c 256,61,62
EndSplineSet
Validated: 33
EndChar

StartChar: aring
Encoding: 229 229 166
Width: 1200
Flags: W
LayerCount: 2
Fore
SplineSet
793 1311 m 0,0,1
 793 1221 793 1221 729 1159 c 128,-1,2
 665 1097 665 1097 575 1097 c 256,3,4
 485 1097 485 1097 421.5 1159 c 128,-1,5
 358 1221 358 1221 358 1311 c 0,6,7
 358 1400 358 1400 421.5 1464 c 128,-1,8
 485 1528 485 1528 575 1528 c 256,9,10
 665 1528 665 1528 729 1464 c 128,-1,11
 793 1400 793 1400 793 1311 c 0,0,1
1075 75 m 2,12,13
 1075 0 1075 0 1000 0 c 0,14,15
 923 0 923 0 925 106 c 1,16,17
 777 0 777 0 575 0 c 0,18,19
 390 0 390 0 244 93 c 0,20,21
 75 201 75 201 75 375 c 256,22,23
 75 549 75 549 244 657 c 0,24,25
 391 750 391 750 575 750 c 0,26,27
 777 750 777 750 925 644 c 1,28,-1
 925 675 l 2,29,30
 925 719 925 719 894 764 c 0,31,32
 802 900 802 900 575 900 c 0,33,34
 445 900 445 900 318 826 c 0,35,36
 292 811 292 811 273 811 c 0,37,38
 243 811 243 811 220.5 834.5 c 128,-1,39
 198 858 198 858 198 889 c 0,40,41
 198 963 198 963 355 1012 c 0,42,43
 477 1050 477 1050 575 1050 c 0,44,45
 759 1050 759 1050 906 957 c 0,46,47
 1075 849 1075 849 1075 675 c 2,48,-1
 1075 75 l 2,12,13
643 1311 m 0,49,50
 643 1378 643 1378 575 1378 c 0,51,52
 508 1378 508 1378 508 1311 c 0,53,54
 508 1247 508 1247 575 1247 c 0,55,56
 643 1247 643 1247 643 1311 c 0,49,50
925 375 m 256,57,58
 925 446 925 446 857 506 c 0,59,60
 800 556 800 556 722 579 c 0,61,62
 654 600 654 600 575 600 c 0,63,64
 343 600 343 600 252 458 c 0,65,66
 225 416 225 416 225 375 c 256,67,68
 225 334 225 334 252 292 c 0,69,70
 343 150 343 150 575 150 c 0,71,72
 654 150 654 150 722 171 c 0,73,74
 800 194 800 194 857 244 c 0,75,76
 925 304 925 304 925 375 c 256,57,58
EndSplineSet
Validated: 33
EndChar

StartChar: ae
Encoding: 230 230 167
Width: 1200
Flags: W
LayerCount: 2
Fore
SplineSet
1126 758 m 0,0,1
 1126 725 1126 725 1105 699 c 0,2,3
 1048 637 1048 637 936 512 c 0,4,5
 868 431 868 431 722 279 c 1,6,7
 770 150 770 150 841 150 c 0,8,9
 907 150 907 150 978 322 c 0,10,11
 1000 375 1000 375 1048 375 c 0,12,13
 1126 375 1126 375 1126 303 c 0,14,15
 1126 291 1126 291 1122 278 c 0,16,17
 1089 167 1089 167 1023 91 c 0,18,19
 943 0 943 0 841 0 c 0,20,21
 701 0 701 0 616 151 c 1,22,23
 528 0 528 0 375 0 c 0,24,25
 239 0 239 0 152 123 c 0,26,27
 75 233 75 233 75 375 c 256,28,29
 75 517 75 517 152 627 c 0,30,31
 239 750 239 750 375 750 c 0,32,33
 457 750 457 750 524 702 c 1,34,35
 519 772 519 772 482 830 c 0,36,37
 438 900 438 900 375 900 c 0,38,39
 330 900 330 900 288.5 855.5 c 128,-1,40
 247 811 247 811 218 811 c 0,41,42
 187 811 187 811 163 833.5 c 128,-1,43
 139 856 139 856 139 886 c 0,44,45
 139 907 139 907 156 932 c 0,46,47
 234 1050 234 1050 375 1050 c 0,48,49
 528 1050 528 1050 616 899 c 1,50,51
 704 1050 704 1050 841 1050 c 0,52,53
 931 1050 931 1050 1028.5 949 c 128,-1,54
 1126 848 1126 848 1126 758 c 0,0,1
964 768 m 1,55,56
 911 900 911 900 841 900 c 0,57,58
 813 900 813 900 780 867 c 0,59,60
 675 762 675 762 675 525 c 0,61,62
 675 497 675 497 679 461 c 1,63,-1
 964 768 l 1,55,56
525 375 m 256,64,65
 525 452 525 452 489 519 c 0,66,67
 445 600 445 600 375 600 c 256,68,69
 305 600 305 600 261 519 c 0,70,71
 225 452 225 452 225 375 c 256,72,73
 225 298 225 298 261 231 c 0,74,75
 305 150 305 150 375 150 c 256,76,77
 445 150 445 150 489 231 c 0,78,79
 525 298 525 298 525 375 c 256,64,65
EndSplineSet
Validated: 1
EndChar

StartChar: ccedilla
Encoding: 231 231 168
Width: 1200
Flags: W
LayerCount: 2
Fore
SplineSet
1126 845 m 0,0,1
 1126 814 1126 814 1103 790.5 c 128,-1,2
 1080 767 1080 767 1050 767 c 0,3,4
 1029 767 1029 767 1001 786 c 0,5,6
 839 900 839 900 677 900 c 0,7,8
 505 900 505 900 371 800 c 0,9,10
 225 691 225 691 225 525 c 256,11,12
 225 359 225 359 371 250 c 0,13,14
 505 150 505 150 677 150 c 0,15,16
 839 150 839 150 1001 263 c 0,17,18
 1028 282 1028 282 1049 282 c 0,19,20
 1080 282 1080 282 1103 258.5 c 128,-1,21
 1126 235 1126 235 1126 205 c 0,22,23
 1126 119 1126 119 909 40 c 1,24,25
 977 -43 977 -43 977 -150 c 0,26,27
 977 -274 977 -274 889 -362 c 128,-1,28
 801 -450 801 -450 677 -450 c 0,29,30
 500 -450 500 -450 417 -299 c 0,31,32
 406 -279 406 -279 406 -260 c 0,33,34
 406 -230 406 -230 430 -208 c 128,-1,35
 454 -186 454 -186 485 -186 c 0,36,37
 515 -186 515 -186 562.5 -243 c 128,-1,38
 610 -300 610 -300 677 -300 c 0,39,40
 739 -300 739 -300 783 -256 c 128,-1,41
 827 -212 827 -212 827 -150 c 256,42,43
 827 -88 827 -88 783 -44 c 128,-1,44
 739 0 739 0 677 0 c 0,45,46
 442 0 442 0 265 143 c 0,47,48
 75 295 75 295 75 525 c 256,49,50
 75 755 75 755 265 907 c 0,51,52
 442 1050 442 1050 677 1050 c 0,53,54
 787 1050 787 1050 902 1012 c 0,55,56
 1031 970 1031 970 1099 900 c 0,57,58
 1126 872 1126 872 1126 845 c 0,0,1
EndSplineSet
Validated: 1
EndChar

StartChar: egrave
Encoding: 232 232 169
Width: 1200
Flags: W
LayerCount: 2
Fore
SplineSet
858 1277 m 0,0,1
 858 1247 858 1247 836.5 1223 c 128,-1,2
 815 1199 815 1199 785 1199 c 0,3,4
 767 1199 767 1199 749 1208 c 2,5,-1
 449 1358 l 2,6,7
 407 1379 407 1379 407 1423 c 0,8,9
 407 1453 407 1453 428.5 1477 c 128,-1,10
 450 1501 450 1501 480 1501 c 0,11,12
 498 1501 498 1501 516 1492 c 2,13,-1
 816 1342 l 2,14,15
 858 1321 858 1321 858 1277 c 0,0,1
1126 301 m 0,16,17
 1126 282 1126 282 1114 260 c 0,18,19
 1045 140 1045 140 907 69 c 0,20,21
 776 0 776 0 632 0 c 0,22,23
 407 0 407 0 244 149 c 0,24,25
 75 302 75 302 75 525 c 256,26,27
 75 748 75 748 244 901 c 0,28,29
 407 1050 407 1050 632 1050 c 0,30,31
 714 1050 714 1050 803 1021 c 0,32,33
 903 988 903 988 1002 916 c 0,34,35
 1125 826 1125 826 1125 745 c 0,36,37
 1125 705 1125 705 1086 684 c 2,38,-1
 328 276 l 1,39,40
 451 150 451 150 632 150 c 0,41,42
 825 150 825 150 944 284 c 0,43,44
 958 302 958 302 986.5 339 c 128,-1,45
 1015 376 1015 376 1048 376 c 0,46,47
 1078 376 1078 376 1102 354 c 128,-1,48
 1126 332 1126 332 1126 301 c 0,16,17
937 774 m 1,49,50
 815 900 815 900 632 900 c 0,51,52
 470 900 470 900 350 795 c 0,53,54
 225 685 225 685 225 525 c 0,55,56
 225 461 225 461 247 403 c 1,57,-1
 937 774 l 1,49,50
EndSplineSet
Validated: 1
EndChar

StartChar: eacute
Encoding: 233 233 170
Width: 1200
Flags: W
LayerCount: 2
Fore
SplineSet
858 1423 m 0,0,1
 858 1379 858 1379 816 1358 c 2,2,-1
 516 1208 l 2,3,4
 498 1199 498 1199 480 1199 c 0,5,6
 450 1199 450 1199 428.5 1223 c 128,-1,7
 407 1247 407 1247 407 1277 c 0,8,9
 407 1321 407 1321 449 1342 c 2,10,-1
 749 1492 l 2,11,12
 767 1501 767 1501 785 1501 c 0,13,14
 815 1501 815 1501 836.5 1477 c 128,-1,15
 858 1453 858 1453 858 1423 c 0,0,1
1126 301 m 0,16,17
 1126 282 1126 282 1114 260 c 0,18,19
 1045 140 1045 140 907 69 c 0,20,21
 776 0 776 0 632 0 c 0,22,23
 407 0 407 0 244 149 c 0,24,25
 75 302 75 302 75 525 c 256,26,27
 75 748 75 748 244 901 c 0,28,29
 407 1050 407 1050 632 1050 c 0,30,31
 714 1050 714 1050 803 1021 c 0,32,33
 903 988 903 988 1002 916 c 0,34,35
 1125 826 1125 826 1125 745 c 0,36,37
 1125 705 1125 705 1086 684 c 2,38,-1
 328 276 l 1,39,40
 451 150 451 150 632 150 c 0,41,42
 825 150 825 150 944 284 c 0,43,44
 958 302 958 302 986.5 339 c 128,-1,45
 1015 376 1015 376 1048 376 c 0,46,47
 1078 376 1078 376 1102 354 c 128,-1,48
 1126 332 1126 332 1126 301 c 0,16,17
937 774 m 1,49,50
 815 900 815 900 632 900 c 0,51,52
 470 900 470 900 350 795 c 0,53,54
 225 685 225 685 225 525 c 0,55,56
 225 461 225 461 247 403 c 1,57,-1
 937 774 l 1,49,50
EndSplineSet
Validated: 1
EndChar

StartChar: ecircumflex
Encoding: 234 234 171
Width: 1200
Flags: W
LayerCount: 2
Fore
SplineSet
933 1277 m 0,0,1
 933 1247 933 1247 911 1223 c 128,-1,2
 889 1199 889 1199 859 1199 c 0,3,4
 837 1199 837 1199 816 1213 c 2,5,-1
 632 1335 l 1,6,-1
 449 1213 l 2,7,8
 428 1199 428 1199 406 1199 c 0,9,10
 376 1199 376 1199 353.5 1223 c 128,-1,11
 331 1247 331 1247 331 1277 c 0,12,13
 331 1314 331 1314 366 1337 c 2,14,-1
 585 1483 l 2,15,16
 612 1501 612 1501 632 1501 c 0,17,18
 653 1501 653 1501 680 1483 c 2,19,-1
 899 1337 l 2,20,21
 933 1314 933 1314 933 1277 c 0,0,1
1126 301 m 0,22,23
 1126 282 1126 282 1114 260 c 0,24,25
 1045 140 1045 140 907 69 c 0,26,27
 776 0 776 0 632 0 c 0,28,29
 407 0 407 0 244 149 c 0,30,31
 75 302 75 302 75 525 c 256,32,33
 75 748 75 748 244 901 c 0,34,35
 407 1050 407 1050 632 1050 c 0,36,37
 714 1050 714 1050 803 1021 c 0,38,39
 903 988 903 988 1002 916 c 0,40,41
 1125 826 1125 826 1125 745 c 0,42,43
 1125 705 1125 705 1086 684 c 2,44,-1
 328 276 l 1,45,46
 451 150 451 150 632 150 c 0,47,48
 825 150 825 150 944 284 c 0,49,50
 958 302 958 302 986.5 339 c 128,-1,51
 1015 376 1015 376 1048 376 c 0,52,53
 1078 376 1078 376 1102 354 c 128,-1,54
 1126 332 1126 332 1126 301 c 0,22,23
937 774 m 1,55,56
 815 900 815 900 632 900 c 0,57,58
 470 900 470 900 350 795 c 0,59,60
 225 685 225 685 225 525 c 0,61,62
 225 461 225 461 247 403 c 1,63,-1
 937 774 l 1,55,56
EndSplineSet
Validated: 1
EndChar

StartChar: edieresis
Encoding: 235 235 172
Width: 1200
Flags: W
LayerCount: 2
Fore
SplineSet
970 1313 m 256,0,1
 970 1266 970 1266 936.5 1233 c 128,-1,2
 903 1200 903 1200 857 1200 c 0,3,4
 810 1200 810 1200 777.5 1233 c 128,-1,5
 745 1266 745 1266 745 1313 c 256,6,7
 745 1360 745 1360 777.5 1392.5 c 128,-1,8
 810 1425 810 1425 857 1425 c 256,9,10
 904 1425 904 1425 937 1392.5 c 128,-1,11
 970 1360 970 1360 970 1313 c 256,0,1
520 1313 m 256,12,13
 520 1266 520 1266 486.5 1233 c 128,-1,14
 453 1200 453 1200 407 1200 c 0,15,16
 360 1200 360 1200 327.5 1233 c 128,-1,17
 295 1266 295 1266 295 1313 c 256,18,19
 295 1360 295 1360 327.5 1392.5 c 128,-1,20
 360 1425 360 1425 407 1425 c 256,21,22
 454 1425 454 1425 487 1392.5 c 128,-1,23
 520 1360 520 1360 520 1313 c 256,12,13
1126 301 m 0,24,25
 1126 282 1126 282 1114 260 c 0,26,27
 1045 140 1045 140 907 69 c 0,28,29
 776 0 776 0 632 0 c 0,30,31
 407 0 407 0 244 149 c 0,32,33
 75 302 75 302 75 525 c 256,34,35
 75 748 75 748 244 901 c 0,36,37
 407 1050 407 1050 632 1050 c 0,38,39
 714 1050 714 1050 803 1021 c 0,40,41
 903 988 903 988 1002 916 c 0,42,43
 1125 826 1125 826 1125 745 c 0,44,45
 1125 705 1125 705 1086 684 c 2,46,-1
 328 276 l 1,47,48
 451 150 451 150 632 150 c 0,49,50
 825 150 825 150 944 284 c 0,51,52
 958 302 958 302 986.5 339 c 128,-1,53
 1015 376 1015 376 1048 376 c 0,54,55
 1078 376 1078 376 1102 354 c 128,-1,56
 1126 332 1126 332 1126 301 c 0,24,25
937 774 m 1,57,58
 815 900 815 900 632 900 c 0,59,60
 470 900 470 900 350 795 c 0,61,62
 225 685 225 685 225 525 c 0,63,64
 225 461 225 461 247 403 c 1,65,-1
 937 774 l 1,57,58
EndSplineSet
Validated: 1
EndChar

StartChar: igrave
Encoding: 236 236 173
Width: 1200
Flags: W
LayerCount: 2
Fore
SplineSet
826 1277 m 0,0,1
 826 1247 826 1247 804.5 1223 c 128,-1,2
 783 1199 783 1199 752 1199 c 0,3,4
 734 1199 734 1199 716 1208 c 2,5,-1
 416 1358 l 2,6,7
 374 1379 374 1379 374 1423 c 0,8,9
 374 1453 374 1453 395.5 1477 c 128,-1,10
 417 1501 417 1501 448 1501 c 0,11,12
 466 1501 466 1501 484 1492 c 2,13,-1
 784 1342 l 2,14,15
 826 1321 826 1321 826 1277 c 0,0,1
975 75 m 256,16,17
 975 0 975 0 900 0 c 2,18,-1
 600 0 l 2,19,20
 525 0 525 0 525 75 c 2,21,-1
 525 900 l 1,22,-1
 300 900 l 2,23,24
 225 900 225 900 225 975 c 256,25,26
 225 1050 225 1050 300 1050 c 2,27,-1
 601 1050 l 2,28,29
 675 1050 675 1050 675 975 c 2,30,-1
 675 150 l 1,31,-1
 900 150 l 2,32,33
 975 150 975 150 975 75 c 256,16,17
EndSplineSet
Validated: 1
EndChar

StartChar: iacute
Encoding: 237 237 174
Width: 1200
Flags: W
LayerCount: 2
Fore
SplineSet
826 1423 m 0,0,1
 826 1379 826 1379 784 1358 c 2,2,-1
 484 1208 l 2,3,4
 466 1199 466 1199 448 1199 c 0,5,6
 417 1199 417 1199 395.5 1223 c 128,-1,7
 374 1247 374 1247 374 1277 c 0,8,9
 374 1321 374 1321 416 1342 c 2,10,-1
 716 1492 l 2,11,12
 734 1501 734 1501 752 1501 c 0,13,14
 783 1501 783 1501 804.5 1477 c 128,-1,15
 826 1453 826 1453 826 1423 c 0,0,1
975 75 m 256,16,17
 975 0 975 0 900 0 c 2,18,-1
 600 0 l 2,19,20
 525 0 525 0 525 75 c 2,21,-1
 525 900 l 1,22,-1
 300 900 l 2,23,24
 225 900 225 900 225 975 c 256,25,26
 225 1050 225 1050 300 1050 c 2,27,-1
 601 1050 l 2,28,29
 675 1050 675 1050 675 975 c 2,30,-1
 675 150 l 1,31,-1
 900 150 l 2,32,33
 975 150 975 150 975 75 c 256,16,17
EndSplineSet
Validated: 1
EndChar

StartChar: icircumflex
Encoding: 238 238 175
Width: 1200
Flags: W
LayerCount: 2
Fore
SplineSet
901 1277 m 0,0,1
 901 1247 901 1247 878.5 1223 c 128,-1,2
 856 1199 856 1199 826 1199 c 0,3,4
 804 1199 804 1199 783 1213 c 2,5,-1
 600 1335 l 1,6,-1
 417 1213 l 2,7,8
 396 1199 396 1199 374 1199 c 0,9,10
 344 1199 344 1199 321.5 1223 c 128,-1,11
 299 1247 299 1247 299 1277 c 0,12,13
 299 1314 299 1314 333 1337 c 2,14,-1
 552 1483 l 2,15,16
 579 1501 579 1501 600 1501 c 256,17,18
 621 1501 621 1501 648 1483 c 2,19,-1
 867 1337 l 2,20,21
 901 1314 901 1314 901 1277 c 0,0,1
975 75 m 256,22,23
 975 0 975 0 900 0 c 2,24,-1
 600 0 l 2,25,26
 525 0 525 0 525 75 c 2,27,-1
 525 900 l 1,28,-1
 300 900 l 2,29,30
 225 900 225 900 225 975 c 256,31,32
 225 1050 225 1050 300 1050 c 2,33,-1
 601 1050 l 2,34,35
 675 1050 675 1050 675 975 c 2,36,-1
 675 150 l 1,37,-1
 900 150 l 2,38,39
 975 150 975 150 975 75 c 256,22,23
EndSplineSet
Validated: 1
EndChar

StartChar: idieresis
Encoding: 239 239 176
Width: 1200
Flags: W
LayerCount: 2
Fore
SplineSet
938 1313 m 256,0,1
 938 1266 938 1266 904.5 1233 c 128,-1,2
 871 1200 871 1200 824 1200 c 0,3,4
 778 1200 778 1200 745.5 1233 c 128,-1,5
 713 1266 713 1266 713 1313 c 256,6,7
 713 1360 713 1360 745.5 1392.5 c 128,-1,8
 778 1425 778 1425 824 1425 c 0,9,10
 871 1425 871 1425 904.5 1392.5 c 128,-1,11
 938 1360 938 1360 938 1313 c 256,0,1
488 1313 m 256,12,13
 488 1266 488 1266 454.5 1233 c 128,-1,14
 421 1200 421 1200 374 1200 c 0,15,16
 328 1200 328 1200 295.5 1233 c 128,-1,17
 263 1266 263 1266 263 1313 c 256,18,19
 263 1360 263 1360 295.5 1392.5 c 128,-1,20
 328 1425 328 1425 374 1425 c 0,21,22
 422 1425 422 1425 455 1392.5 c 128,-1,23
 488 1360 488 1360 488 1313 c 256,12,13
975 75 m 256,24,25
 975 0 975 0 900 0 c 2,26,-1
 600 0 l 2,27,28
 524 0 524 0 524 75 c 2,29,-1
 525 900 l 1,30,-1
 300 900 l 2,31,32
 225 900 225 900 225 975 c 256,33,34
 225 1050 225 1050 300 1050 c 2,35,-1
 600 1050 l 2,36,37
 675 1050 675 1050 675 966 c 2,38,-1
 675 150 l 1,39,-1
 900 150 l 2,40,41
 975 150 975 150 975 75 c 256,24,25
EndSplineSet
Validated: 1
EndChar

StartChar: eth
Encoding: 240 240 177
Width: 1200
Flags: W
LayerCount: 2
Fore
SplineSet
1125 525 m 0,0,1
 1125 308 1125 308 971 154 c 128,-1,2
 817 0 817 0 600 0 c 256,3,4
 383 0 383 0 229 154 c 128,-1,5
 75 308 75 308 75 525 c 0,6,7
 75 743 75 743 232 899.5 c 128,-1,8
 389 1056 389 1056 607 1050 c 1,9,-1
 456 1200 l 1,10,-1
 225 1200 l 2,11,12
 150 1200 150 1200 150 1275 c 0,13,14
 150 1333 150 1333 205 1346 c 0,15,16
 224 1351 224 1351 306 1350 c 1,17,18
 261 1390 261 1390 261 1424 c 0,19,20
 261 1455 261 1455 284 1478 c 128,-1,21
 307 1501 307 1501 338 1501 c 0,22,23
 367 1501 367 1501 390 1478 c 2,24,-1
 518 1350 l 1,25,-1
 975 1350 l 2,26,27
 1050 1350 1050 1350 1050 1275 c 256,28,29
 1050 1200 1050 1200 975 1200 c 2,30,-1
 669 1200 l 1,31,-1
 978 891 l 2,32,33
 1125 744 1125 744 1125 525 c 0,0,1
975 525 m 256,34,35
 975 680 975 680 865 790 c 128,-1,36
 755 900 755 900 600 900 c 256,37,38
 445 900 445 900 335 790 c 128,-1,39
 225 680 225 680 225 525 c 256,40,41
 225 370 225 370 335 260 c 128,-1,42
 445 150 445 150 600 150 c 256,43,44
 755 150 755 150 865 260 c 128,-1,45
 975 370 975 370 975 525 c 256,34,35
EndSplineSet
Validated: 33
EndChar

StartChar: ntilde
Encoding: 241 241 178
Width: 1200
Flags: W
LayerCount: 2
Fore
SplineSet
1001 1353 m 0,0,1
 1001 1329 1001 1329 983 1299 c 0,2,3
 925 1200 925 1200 775 1200 c 0,4,5
 690 1200 690 1200 598.5 1275 c 128,-1,6
 507 1350 507 1350 475 1350 c 0,7,8
 424 1350 424 1350 396 1326 c 1,9,10
 379 1275 379 1275 327 1275 c 0,11,12
 249 1275 249 1275 249 1347 c 0,13,14
 249 1371 249 1371 267 1401 c 0,15,16
 325 1500 325 1500 475 1500 c 0,17,18
 560 1500 560 1500 651.5 1425 c 128,-1,19
 743 1350 743 1350 775 1350 c 0,20,21
 836 1350 836 1350 861.5 1387.5 c 128,-1,22
 887 1425 887 1425 923 1425 c 0,23,24
 1001 1425 1001 1425 1001 1353 c 0,0,1
1075 75 m 2,25,26
 1075 0 1075 0 1000 0 c 256,27,28
 925 0 925 0 925 75 c 2,29,-1
 925 600 l 2,30,31
 925 724 925 724 837 812 c 128,-1,32
 749 900 749 900 625 900 c 256,33,34
 501 900 501 900 413 812 c 128,-1,35
 325 724 325 724 325 600 c 2,36,-1
 325 75 l 2,37,38
 325 0 325 0 250 0 c 256,39,40
 175 0 175 0 175 75 c 2,41,-1
 175 975 l 2,42,43
 175 1050 175 1050 250 1050 c 0,44,45
 326 1050 326 1050 325 935 c 1,46,47
 453 1050 453 1050 625 1050 c 0,48,49
 811 1050 811 1050 943 918 c 128,-1,50
 1075 786 1075 786 1075 600 c 2,51,-1
 1075 75 l 2,25,26
EndSplineSet
Validated: 33
EndChar

StartChar: ograve
Encoding: 242 242 179
Width: 1200
Flags: W
LayerCount: 2
Fore
SplineSet
826 1277 m 0,0,1
 826 1247 826 1247 804.5 1223 c 128,-1,2
 783 1199 783 1199 752 1199 c 0,3,4
 734 1199 734 1199 716 1208 c 2,5,-1
 416 1358 l 2,6,7
 374 1379 374 1379 374 1423 c 0,8,9
 374 1453 374 1453 395.5 1477 c 128,-1,10
 417 1501 417 1501 448 1501 c 0,11,12
 466 1501 466 1501 484 1492 c 2,13,-1
 784 1342 l 2,14,15
 826 1321 826 1321 826 1277 c 0,0,1
1125 525 m 256,16,17
 1125 308 1125 308 971 154 c 128,-1,18
 817 0 817 0 600 0 c 256,19,20
 383 0 383 0 229 154 c 128,-1,21
 75 308 75 308 75 525 c 256,22,23
 75 742 75 742 229 896 c 128,-1,24
 383 1050 383 1050 600 1050 c 256,25,26
 817 1050 817 1050 971 896 c 128,-1,27
 1125 742 1125 742 1125 525 c 256,16,17
975 525 m 256,28,29
 975 680 975 680 865 790 c 128,-1,30
 755 900 755 900 600 900 c 256,31,32
 445 900 445 900 335 790 c 128,-1,33
 225 680 225 680 225 525 c 256,34,35
 225 370 225 370 335 260 c 128,-1,36
 445 150 445 150 600 150 c 256,37,38
 755 150 755 150 865 260 c 128,-1,39
 975 370 975 370 975 525 c 256,28,29
EndSplineSet
Validated: 1
EndChar

StartChar: oacute
Encoding: 243 243 180
Width: 1200
Flags: W
LayerCount: 2
Fore
SplineSet
826 1423 m 0,0,1
 826 1379 826 1379 784 1358 c 2,2,-1
 484 1208 l 2,3,4
 466 1199 466 1199 448 1199 c 0,5,6
 417 1199 417 1199 395.5 1223 c 128,-1,7
 374 1247 374 1247 374 1277 c 0,8,9
 374 1321 374 1321 416 1342 c 2,10,-1
 716 1492 l 2,11,12
 734 1501 734 1501 752 1501 c 0,13,14
 783 1501 783 1501 804.5 1477 c 128,-1,15
 826 1453 826 1453 826 1423 c 0,0,1
1125 525 m 256,16,17
 1125 308 1125 308 971 154 c 128,-1,18
 817 0 817 0 600 0 c 256,19,20
 383 0 383 0 229 154 c 128,-1,21
 75 308 75 308 75 525 c 256,22,23
 75 742 75 742 229 896 c 128,-1,24
 383 1050 383 1050 600 1050 c 256,25,26
 817 1050 817 1050 971 896 c 128,-1,27
 1125 742 1125 742 1125 525 c 256,16,17
975 525 m 256,28,29
 975 680 975 680 865 790 c 128,-1,30
 755 900 755 900 600 900 c 256,31,32
 445 900 445 900 335 790 c 128,-1,33
 225 680 225 680 225 525 c 256,34,35
 225 370 225 370 335 260 c 128,-1,36
 445 150 445 150 600 150 c 256,37,38
 755 150 755 150 865 260 c 128,-1,39
 975 370 975 370 975 525 c 256,28,29
EndSplineSet
Validated: 1
EndChar

StartChar: ocircumflex
Encoding: 244 244 181
Width: 1200
Flags: W
LayerCount: 2
Fore
SplineSet
901 1277 m 0,0,1
 901 1247 901 1247 878.5 1223 c 128,-1,2
 856 1199 856 1199 826 1199 c 0,3,4
 804 1199 804 1199 783 1213 c 2,5,-1
 600 1335 l 1,6,-1
 417 1213 l 2,7,8
 396 1199 396 1199 374 1199 c 0,9,10
 344 1199 344 1199 321.5 1223 c 128,-1,11
 299 1247 299 1247 299 1277 c 0,12,13
 299 1314 299 1314 333 1337 c 2,14,-1
 552 1483 l 2,15,16
 579 1501 579 1501 600 1501 c 256,17,18
 621 1501 621 1501 648 1483 c 2,19,-1
 867 1337 l 2,20,21
 901 1314 901 1314 901 1277 c 0,0,1
1125 525 m 256,22,23
 1125 308 1125 308 971 154 c 128,-1,24
 817 0 817 0 600 0 c 256,25,26
 383 0 383 0 229 154 c 128,-1,27
 75 308 75 308 75 525 c 256,28,29
 75 742 75 742 229 896 c 128,-1,30
 383 1050 383 1050 600 1050 c 256,31,32
 817 1050 817 1050 971 896 c 128,-1,33
 1125 742 1125 742 1125 525 c 256,22,23
975 525 m 256,34,35
 975 680 975 680 865 790 c 128,-1,36
 755 900 755 900 600 900 c 256,37,38
 445 900 445 900 335 790 c 128,-1,39
 225 680 225 680 225 525 c 256,40,41
 225 370 225 370 335 260 c 128,-1,42
 445 150 445 150 600 150 c 256,43,44
 755 150 755 150 865 260 c 128,-1,45
 975 370 975 370 975 525 c 256,34,35
EndSplineSet
Validated: 1
EndChar

StartChar: otilde
Encoding: 245 245 182
Width: 1200
Flags: W
LayerCount: 2
Fore
SplineSet
976 1353 m 0,0,1
 976 1329 976 1329 958 1299 c 0,2,3
 900 1200 900 1200 750 1200 c 0,4,5
 665 1200 665 1200 573.5 1275 c 128,-1,6
 482 1350 482 1350 450 1350 c 0,7,8
 399 1350 399 1350 371 1326 c 1,9,10
 354 1275 354 1275 302 1275 c 0,11,12
 224 1275 224 1275 224 1347 c 0,13,14
 224 1371 224 1371 242 1401 c 0,15,16
 300 1500 300 1500 450 1500 c 0,17,18
 535 1500 535 1500 626.5 1425 c 128,-1,19
 718 1350 718 1350 750 1350 c 0,20,21
 811 1350 811 1350 836.5 1387.5 c 128,-1,22
 862 1425 862 1425 898 1425 c 0,23,24
 976 1425 976 1425 976 1353 c 0,0,1
1125 525 m 256,25,26
 1125 308 1125 308 971 154 c 128,-1,27
 817 0 817 0 600 0 c 256,28,29
 383 0 383 0 229 154 c 128,-1,30
 75 308 75 308 75 525 c 256,31,32
 75 742 75 742 229 896 c 128,-1,33
 383 1050 383 1050 600 1050 c 256,34,35
 817 1050 817 1050 971 896 c 128,-1,36
 1125 742 1125 742 1125 525 c 256,25,26
975 525 m 256,37,38
 975 680 975 680 865 790 c 128,-1,39
 755 900 755 900 600 900 c 256,40,41
 445 900 445 900 335 790 c 128,-1,42
 225 680 225 680 225 525 c 256,43,44
 225 370 225 370 335 260 c 128,-1,45
 445 150 445 150 600 150 c 256,46,47
 755 150 755 150 865 260 c 128,-1,48
 975 370 975 370 975 525 c 256,37,38
EndSplineSet
Validated: 1
EndChar

StartChar: odieresis
Encoding: 246 246 183
Width: 1200
Flags: W
LayerCount: 2
Fore
SplineSet
938 1313 m 256,0,1
 938 1266 938 1266 905 1233 c 128,-1,2
 872 1200 872 1200 825 1200 c 256,3,4
 778 1200 778 1200 745.5 1233 c 128,-1,5
 713 1266 713 1266 713 1313 c 256,6,7
 713 1360 713 1360 745.5 1392.5 c 128,-1,8
 778 1425 778 1425 825 1425 c 256,9,10
 872 1425 872 1425 905 1392.5 c 128,-1,11
 938 1360 938 1360 938 1313 c 256,0,1
488 1313 m 256,12,13
 488 1266 488 1266 455 1233 c 128,-1,14
 422 1200 422 1200 375 1200 c 256,15,16
 328 1200 328 1200 295.5 1233 c 128,-1,17
 263 1266 263 1266 263 1313 c 256,18,19
 263 1360 263 1360 295.5 1392.5 c 128,-1,20
 328 1425 328 1425 375 1425 c 256,21,22
 422 1425 422 1425 455 1392.5 c 128,-1,23
 488 1360 488 1360 488 1313 c 256,12,13
1125 525 m 256,24,25
 1125 308 1125 308 971 154 c 128,-1,26
 817 0 817 0 600 0 c 256,27,28
 383 0 383 0 229 154 c 128,-1,29
 75 308 75 308 75 525 c 256,30,31
 75 742 75 742 229 896 c 128,-1,32
 383 1050 383 1050 600 1050 c 256,33,34
 817 1050 817 1050 971 896 c 128,-1,35
 1125 742 1125 742 1125 525 c 256,24,25
975 525 m 256,36,37
 975 680 975 680 865 790 c 128,-1,38
 755 900 755 900 600 900 c 256,39,40
 445 900 445 900 335 790 c 128,-1,41
 225 680 225 680 225 525 c 256,42,43
 225 370 225 370 335 260 c 128,-1,44
 445 150 445 150 600 150 c 256,45,46
 755 150 755 150 865 260 c 128,-1,47
 975 370 975 370 975 525 c 256,36,37
EndSplineSet
Validated: 1
EndChar

StartChar: divide
Encoding: 247 247 184
Width: 1200
Flags: W
LayerCount: 2
Fore
SplineSet
714 1052 m 0,0,1
 714 1005 714 1005 680.5 971.5 c 128,-1,2
 647 938 647 938 600 938 c 256,3,4
 553 938 553 938 519.5 971.5 c 128,-1,5
 486 1005 486 1005 486 1052 c 0,6,7
 486 1098 486 1098 519.5 1130.5 c 128,-1,8
 553 1163 553 1163 600 1163 c 256,9,10
 647 1163 647 1163 680.5 1130.5 c 128,-1,11
 714 1098 714 1098 714 1052 c 0,0,1
975 638 m 256,12,13
 975 563 975 563 900 563 c 2,14,-1
 300 563 l 2,15,16
 225 563 225 563 225 638 c 256,17,18
 225 713 225 713 300 713 c 2,19,-1
 900 713 l 2,20,21
 975 713 975 713 975 638 c 256,12,13
714 227 m 0,22,23
 714 180 714 180 680.5 146.5 c 128,-1,24
 647 113 647 113 600 113 c 256,25,26
 553 113 553 113 519.5 146.5 c 128,-1,27
 486 180 486 180 486 227 c 0,28,29
 486 273 486 273 519.5 305.5 c 128,-1,30
 553 338 553 338 600 338 c 256,31,32
 647 338 647 338 680.5 305.5 c 128,-1,33
 714 273 714 273 714 227 c 0,22,23
EndSplineSet
Validated: 1
EndChar

StartChar: oslash
Encoding: 248 248 185
Width: 1200
Flags: W
LayerCount: 2
Fore
SplineSet
1126 974 m 0,0,1
 1126 942 1126 942 1020 839 c 1,2,3
 1125 700 1125 700 1125 525 c 0,4,5
 1125 308 1125 308 971 154 c 128,-1,6
 817 0 817 0 600 0 c 0,7,8
 425 0 425 0 286 105 c 1,9,10
 183 -1 183 -1 151 -1 c 0,11,12
 120 -1 120 -1 97 22 c 128,-1,13
 74 45 74 45 74 76 c 0,14,15
 74 108 74 108 180 211 c 1,16,17
 75 350 75 350 75 525 c 0,18,19
 75 742 75 742 229 896 c 128,-1,20
 383 1050 383 1050 600 1050 c 0,21,22
 775 1050 775 1050 914 945 c 1,23,24
 1017 1051 1017 1051 1049 1051 c 0,25,26
 1080 1051 1080 1051 1103 1028 c 128,-1,27
 1126 1005 1126 1005 1126 974 c 0,0,1
807 838 m 1,28,29
 713 900 713 900 600 900 c 0,30,31
 445 900 445 900 335 790 c 128,-1,32
 225 680 225 680 225 525 c 0,33,34
 225 412 225 412 287 318 c 1,35,-1
 807 838 l 1,28,29
975 525 m 0,36,37
 975 638 975 638 913 732 c 1,38,-1
 393 212 l 1,39,40
 487 150 487 150 600 150 c 0,41,42
 755 150 755 150 865 260 c 128,-1,43
 975 370 975 370 975 525 c 0,36,37
EndSplineSet
Validated: 1
EndChar

StartChar: ugrave
Encoding: 249 249 186
Width: 1200
Flags: W
LayerCount: 2
Fore
SplineSet
826 1277 m 0,0,1
 826 1247 826 1247 804.5 1223 c 128,-1,2
 783 1199 783 1199 752 1199 c 0,3,4
 734 1199 734 1199 716 1208 c 2,5,-1
 416 1358 l 2,6,7
 374 1379 374 1379 374 1423 c 0,8,9
 374 1453 374 1453 395.5 1477 c 128,-1,10
 417 1501 417 1501 448 1501 c 0,11,12
 466 1501 466 1501 484 1492 c 2,13,-1
 784 1342 l 2,14,15
 826 1321 826 1321 826 1277 c 0,0,1
1075 475 m 2,16,17
 1075 278 1075 278 936 139 c 128,-1,18
 797 0 797 0 600 0 c 256,19,20
 403 0 403 0 264 139 c 128,-1,21
 125 278 125 278 125 475 c 2,22,-1
 125 975 l 2,23,24
 125 1050 125 1050 200 1050 c 256,25,26
 275 1050 275 1050 275 975 c 2,27,-1
 275 475 l 2,28,29
 275 341 275 341 370.5 245.5 c 128,-1,30
 466 150 466 150 600 150 c 256,31,32
 734 150 734 150 829.5 245.5 c 128,-1,33
 925 341 925 341 925 475 c 2,34,-1
 925 975 l 2,35,36
 925 1050 925 1050 1000 1050 c 256,37,38
 1075 1050 1075 1050 1075 975 c 2,39,-1
 1075 475 l 2,16,17
EndSplineSet
Validated: 1
EndChar

StartChar: uacute
Encoding: 250 250 187
Width: 1200
Flags: W
LayerCount: 2
Fore
SplineSet
826 1423 m 0,0,1
 826 1379 826 1379 784 1358 c 2,2,-1
 484 1208 l 2,3,4
 466 1199 466 1199 448 1199 c 0,5,6
 417 1199 417 1199 395.5 1223 c 128,-1,7
 374 1247 374 1247 374 1277 c 0,8,9
 374 1321 374 1321 416 1342 c 2,10,-1
 716 1492 l 2,11,12
 734 1501 734 1501 752 1501 c 0,13,14
 783 1501 783 1501 804.5 1477 c 128,-1,15
 826 1453 826 1453 826 1423 c 0,0,1
1075 475 m 2,16,17
 1075 278 1075 278 936 139 c 128,-1,18
 797 0 797 0 600 0 c 256,19,20
 403 0 403 0 264 139 c 128,-1,21
 125 278 125 278 125 475 c 2,22,-1
 125 975 l 2,23,24
 125 1050 125 1050 200 1050 c 256,25,26
 275 1050 275 1050 275 975 c 2,27,-1
 275 475 l 2,28,29
 275 341 275 341 370.5 245.5 c 128,-1,30
 466 150 466 150 600 150 c 256,31,32
 734 150 734 150 829.5 245.5 c 128,-1,33
 925 341 925 341 925 475 c 2,34,-1
 925 975 l 2,35,36
 925 1050 925 1050 1000 1050 c 256,37,38
 1075 1050 1075 1050 1075 975 c 2,39,-1
 1075 475 l 2,16,17
EndSplineSet
Validated: 1
EndChar

StartChar: ucircumflex
Encoding: 251 251 188
Width: 1200
Flags: W
LayerCount: 2
Fore
SplineSet
901 1277 m 0,0,1
 901 1247 901 1247 878.5 1223 c 128,-1,2
 856 1199 856 1199 826 1199 c 0,3,4
 804 1199 804 1199 783 1213 c 2,5,-1
 600 1335 l 1,6,-1
 417 1213 l 2,7,8
 396 1199 396 1199 374 1199 c 0,9,10
 344 1199 344 1199 321.5 1223 c 128,-1,11
 299 1247 299 1247 299 1277 c 0,12,13
 299 1314 299 1314 333 1337 c 2,14,-1
 552 1483 l 2,15,16
 579 1501 579 1501 600 1501 c 256,17,18
 621 1501 621 1501 648 1483 c 2,19,-1
 867 1337 l 2,20,21
 901 1314 901 1314 901 1277 c 0,0,1
1075 475 m 2,22,23
 1075 278 1075 278 936 139 c 128,-1,24
 797 0 797 0 600 0 c 256,25,26
 403 0 403 0 264 139 c 128,-1,27
 125 278 125 278 125 475 c 2,28,-1
 125 975 l 2,29,30
 125 1050 125 1050 200 1050 c 256,31,32
 275 1050 275 1050 275 975 c 2,33,-1
 275 475 l 2,34,35
 275 341 275 341 370.5 245.5 c 128,-1,36
 466 150 466 150 600 150 c 256,37,38
 734 150 734 150 829.5 245.5 c 128,-1,39
 925 341 925 341 925 475 c 2,40,-1
 925 975 l 2,41,42
 925 1050 925 1050 1000 1050 c 256,43,44
 1075 1050 1075 1050 1075 975 c 2,45,-1
 1075 475 l 2,22,23
EndSplineSet
Validated: 1
EndChar

StartChar: udieresis
Encoding: 252 252 189
Width: 1200
Flags: W
LayerCount: 2
Fore
SplineSet
938 1313 m 256,0,1
 938 1266 938 1266 905 1233 c 128,-1,2
 872 1200 872 1200 825 1200 c 256,3,4
 778 1200 778 1200 745.5 1233 c 128,-1,5
 713 1266 713 1266 713 1313 c 256,6,7
 713 1360 713 1360 745.5 1392.5 c 128,-1,8
 778 1425 778 1425 825 1425 c 256,9,10
 872 1425 872 1425 905 1392.5 c 128,-1,11
 938 1360 938 1360 938 1313 c 256,0,1
488 1313 m 256,12,13
 488 1266 488 1266 455 1233 c 128,-1,14
 422 1200 422 1200 375 1200 c 256,15,16
 328 1200 328 1200 295.5 1233 c 128,-1,17
 263 1266 263 1266 263 1313 c 256,18,19
 263 1360 263 1360 295.5 1392.5 c 128,-1,20
 328 1425 328 1425 375 1425 c 256,21,22
 422 1425 422 1425 455 1392.5 c 128,-1,23
 488 1360 488 1360 488 1313 c 256,12,13
1075 475 m 2,24,25
 1075 278 1075 278 936 139 c 128,-1,26
 797 0 797 0 600 0 c 256,27,28
 403 0 403 0 264 139 c 128,-1,29
 125 278 125 278 125 475 c 2,30,-1
 125 975 l 2,31,32
 125 1050 125 1050 200 1050 c 256,33,34
 275 1050 275 1050 275 975 c 2,35,-1
 275 475 l 2,36,37
 275 341 275 341 370.5 245.5 c 128,-1,38
 466 150 466 150 600 150 c 256,39,40
 734 150 734 150 829.5 245.5 c 128,-1,41
 925 341 925 341 925 475 c 2,42,-1
 925 975 l 2,43,44
 925 1050 925 1050 1000 1050 c 256,45,46
 1075 1050 1075 1050 1075 975 c 2,47,-1
 1075 475 l 2,24,25
EndSplineSet
Validated: 1
EndChar

StartChar: yacute
Encoding: 253 253 190
Width: 1200
Flags: W
LayerCount: 2
Fore
SplineSet
801 1423 m 0,0,1
 801 1379 801 1379 759 1358 c 2,2,-1
 459 1208 l 2,3,4
 441 1199 441 1199 423 1199 c 0,5,6
 392 1199 392 1199 370.5 1223 c 128,-1,7
 349 1247 349 1247 349 1277 c 0,8,9
 349 1321 349 1321 391 1342 c 2,10,-1
 691 1492 l 2,11,12
 709 1501 709 1501 727 1501 c 0,13,14
 758 1501 758 1501 779.5 1477 c 128,-1,15
 801 1453 801 1453 801 1423 c 0,0,1
1025 975 m 2,16,-1
 1025 0 l 2,17,18
 1025 -186 1025 -186 893 -318 c 128,-1,19
 761 -450 761 -450 575 -450 c 0,20,21
 457 -450 457 -450 351 -390 c 0,22,23
 241 -328 241 -328 186 -227 c 0,24,25
 175 -205 175 -205 175 -187 c 0,26,27
 175 -157 175 -157 199 -135 c 128,-1,28
 223 -113 223 -113 253 -113 c 0,29,30
 287 -113 287 -113 316 -151 c 0,31,32
 428 -300 428 -300 575 -300 c 0,33,34
 699 -300 699 -300 787 -212 c 128,-1,35
 875 -124 875 -124 875 0 c 2,36,-1
 875 115 l 1,37,38
 747 0 747 0 575 0 c 0,39,40
 389 0 389 0 257 132 c 128,-1,41
 125 264 125 264 125 450 c 2,42,-1
 125 975 l 2,43,44
 125 1050 125 1050 200 1050 c 256,45,46
 275 1050 275 1050 275 975 c 2,47,-1
 275 450 l 2,48,49
 275 326 275 326 363 238 c 128,-1,50
 451 150 451 150 575 150 c 256,51,52
 699 150 699 150 787 238 c 128,-1,53
 875 326 875 326 875 449 c 2,54,-1
 875 975 l 2,55,56
 875 1050 875 1050 950 1050 c 256,57,58
 1025 1050 1025 1050 1025 975 c 2,16,-1
EndSplineSet
Validated: 1
EndChar

StartChar: thorn
Encoding: 254 254 191
Width: 1200
Flags: W
LayerCount: 2
Fore
SplineSet
1125 525 m 256,0,1
 1125 317 1125 317 993 162 c 0,2,3
 855 0 855 0 650 0 c 0,4,5
 461 0 461 0 325 142 c 1,6,-1
 325 -375 l 2,7,8
 325 -450 325 -450 250 -450 c 256,9,10
 175 -450 175 -450 175 -375 c 2,11,-1
 175 1425 l 2,12,13
 175 1500 175 1500 250 1500 c 256,14,15
 325 1500 325 1500 325 1425 c 2,16,-1
 325 908 l 1,17,18
 461 1050 461 1050 650 1050 c 0,19,20
 855 1050 855 1050 993 888 c 0,21,22
 1125 733 1125 733 1125 525 c 256,0,1
975 525 m 256,23,24
 975 671 975 671 887 781 c 0,25,26
 792 900 792 900 650 900 c 256,27,28
 508 900 508 900 413 781 c 0,29,30
 325 671 325 671 325 525 c 256,31,32
 325 379 325 379 413 269 c 0,33,34
 508 150 508 150 650 150 c 256,35,36
 792 150 792 150 887 269 c 0,37,38
 975 379 975 379 975 525 c 256,23,24
EndSplineSet
Validated: 1
EndChar

StartChar: ydieresis
Encoding: 255 255 192
Width: 1200
Flags: W
LayerCount: 2
Fore
SplineSet
913 1300 m 256,0,1
 913 1253 913 1253 880 1220 c 128,-1,2
 847 1187 847 1187 800 1187 c 256,3,4
 753 1187 753 1187 720.5 1220 c 128,-1,5
 688 1253 688 1253 688 1300 c 256,6,7
 688 1347 688 1347 720.5 1379.5 c 128,-1,8
 753 1412 753 1412 800 1412 c 256,9,10
 847 1412 847 1412 880 1379.5 c 128,-1,11
 913 1347 913 1347 913 1300 c 256,0,1
463 1300 m 256,12,13
 463 1253 463 1253 430 1220 c 128,-1,14
 397 1187 397 1187 350 1187 c 256,15,16
 303 1187 303 1187 270.5 1220 c 128,-1,17
 238 1253 238 1253 238 1300 c 256,18,19
 238 1347 238 1347 270.5 1379.5 c 128,-1,20
 303 1412 303 1412 350 1412 c 256,21,22
 397 1412 397 1412 430 1379.5 c 128,-1,23
 463 1347 463 1347 463 1300 c 256,12,13
1025 975 m 2,24,-1
 1025 0 l 2,25,26
 1025 -186 1025 -186 893 -318 c 128,-1,27
 761 -450 761 -450 575 -450 c 0,28,29
 457 -450 457 -450 351 -390 c 0,30,31
 241 -328 241 -328 186 -227 c 0,32,33
 175 -205 175 -205 175 -187 c 0,34,35
 175 -157 175 -157 199 -135 c 128,-1,36
 223 -113 223 -113 253 -113 c 0,37,38
 287 -113 287 -113 316 -151 c 0,39,40
 428 -300 428 -300 575 -300 c 0,41,42
 699 -300 699 -300 787 -212 c 128,-1,43
 875 -124 875 -124 875 0 c 2,44,-1
 875 115 l 1,45,46
 747 0 747 0 575 0 c 0,47,48
 389 0 389 0 257 132 c 128,-1,49
 125 264 125 264 125 450 c 2,50,-1
 125 975 l 2,51,52
 125 1050 125 1050 200 1050 c 256,53,54
 275 1050 275 1050 275 975 c 2,55,-1
 275 450 l 2,56,57
 275 326 275 326 363 238 c 128,-1,58
 451 150 451 150 575 150 c 256,59,60
 699 150 699 150 787 238 c 128,-1,61
 875 326 875 326 875 449 c 2,62,-1
 875 975 l 2,63,64
 875 1050 875 1050 950 1050 c 256,65,66
 1025 1050 1025 1050 1025 975 c 2,24,-1
EndSplineSet
Validated: 1
EndChar

StartChar: Amacron
Encoding: 256 256 193
Width: 1200
Flags: W
LayerCount: 2
Fore
SplineSet
1125 1800 m 256,0,1
 1125 1725 1125 1725 1050 1725 c 2,2,-1
 150 1725 l 2,3,4
 75 1725 75 1725 75 1800 c 256,5,6
 75 1875 75 1875 150 1875 c 2,7,-1
 1050 1875 l 2,8,9
 1125 1875 1125 1875 1125 1800 c 256,0,1
1126 72 m 0,10,11
 1126 0 1126 0 1048 0 c 0,12,13
 996 0 996 0 979 51 c 2,14,-1
 846 450 l 1,15,-1
 354 450 l 1,16,-1
 221 51 l 2,17,18
 204 0 204 0 152 0 c 0,19,20
 74 0 74 0 74 72 c 0,21,22
 74 85 74 85 79 99 c 2,23,-1
 525 1437 l 2,24,25
 546 1500 546 1500 600 1500 c 256,26,27
 654 1500 654 1500 675 1437 c 2,28,-1
 1121 99 l 2,29,30
 1126 85 1126 85 1126 72 c 0,10,11
796 600 m 1,31,-1
 600 1188 l 1,32,-1
 404 600 l 1,33,-1
 796 600 l 1,31,-1
EndSplineSet
Validated: 1
EndChar

StartChar: amacron
Encoding: 257 257 194
Width: 1200
Flags: W
LayerCount: 2
Fore
SplineSet
1075 1350 m 256,0,1
 1075 1275 1075 1275 1000 1275 c 2,2,-1
 150 1275 l 2,3,4
 75 1275 75 1275 75 1350 c 256,5,6
 75 1425 75 1425 150 1425 c 2,7,-1
 1000 1425 l 2,8,9
 1075 1425 1075 1425 1075 1350 c 256,0,1
1075 75 m 2,10,11
 1075 0 1075 0 1000 0 c 0,12,13
 923 0 923 0 925 106 c 1,14,15
 777 0 777 0 575 0 c 0,16,17
 390 0 390 0 244 93 c 0,18,19
 75 201 75 201 75 375 c 256,20,21
 75 549 75 549 244 657 c 0,22,23
 391 750 391 750 575 750 c 0,24,25
 777 750 777 750 925 644 c 1,26,-1
 925 675 l 2,27,28
 925 719 925 719 894 764 c 0,29,30
 802 900 802 900 575 900 c 0,31,32
 445 900 445 900 318 826 c 0,33,34
 292 811 292 811 273 811 c 0,35,36
 243 811 243 811 220.5 834.5 c 128,-1,37
 198 858 198 858 198 889 c 0,38,39
 198 963 198 963 355 1012 c 0,40,41
 477 1050 477 1050 575 1050 c 0,42,43
 759 1050 759 1050 906 957 c 0,44,45
 1075 849 1075 849 1075 675 c 2,46,-1
 1075 75 l 2,10,11
925 375 m 256,47,48
 925 446 925 446 857 506 c 0,49,50
 800 556 800 556 722 579 c 0,51,52
 654 600 654 600 575 600 c 0,53,54
 343 600 343 600 252 458 c 0,55,56
 225 416 225 416 225 375 c 256,57,58
 225 334 225 334 252 292 c 0,59,60
 343 150 343 150 575 150 c 0,61,62
 654 150 654 150 722 171 c 0,63,64
 800 194 800 194 857 244 c 0,65,66
 925 304 925 304 925 375 c 256,47,48
EndSplineSet
Validated: 33
EndChar

StartChar: Abreve
Encoding: 258 258 195
Width: 1200
Flags: W
LayerCount: 2
Fore
SplineSet
903 1875 m 0,0,1
 903 1848 903 1848 860 1801 c 0,2,3
 722 1650 722 1650 600 1650 c 0,4,5
 529 1650 529 1650 442 1709 c 0,6,7
 365 1762 365 1762 316 1828 c 0,8,9
 299 1853 299 1853 299 1875 c 0,10,11
 299 1906 299 1906 322.5 1928.5 c 128,-1,12
 346 1951 346 1951 377 1951 c 0,13,14
 406 1951 406 1951 479 1875.5 c 128,-1,15
 552 1800 552 1800 600 1800 c 256,16,17
 648 1800 648 1800 721 1875.5 c 128,-1,18
 794 1951 794 1951 823 1951 c 0,19,20
 854 1951 854 1951 878.5 1928.5 c 128,-1,21
 903 1906 903 1906 903 1875 c 0,0,1
1126 72 m 0,22,23
 1126 0 1126 0 1048 0 c 0,24,25
 996 0 996 0 979 51 c 2,26,-1
 846 450 l 1,27,-1
 354 450 l 1,28,-1
 221 51 l 2,29,30
 204 0 204 0 152 0 c 0,31,32
 74 0 74 0 74 72 c 0,33,34
 74 85 74 85 79 99 c 2,35,-1
 525 1437 l 2,36,37
 546 1500 546 1500 600 1500 c 256,38,39
 654 1500 654 1500 675 1437 c 2,40,-1
 1121 99 l 2,41,42
 1126 85 1126 85 1126 72 c 0,22,23
796 600 m 1,43,-1
 600 1188 l 1,44,-1
 404 600 l 1,45,-1
 796 600 l 1,43,-1
EndSplineSet
Validated: 1
EndChar

StartChar: abreve
Encoding: 259 259 196
Width: 1200
Flags: W
LayerCount: 2
Fore
SplineSet
878 1425 m 0,0,1
 878 1397 878 1397 835 1351 c 0,2,3
 698 1202 698 1202 569 1202 c 0,4,5
 417 1202 417 1202 291 1378 c 0,6,7
 274 1403 274 1403 274 1425 c 0,8,9
 274 1456 274 1456 297.5 1478.5 c 128,-1,10
 321 1501 321 1501 352 1501 c 256,11,12
 383 1501 383 1501 449.5 1426.5 c 128,-1,13
 516 1352 516 1352 574 1352 c 0,14,15
 633 1352 633 1352 700 1426.5 c 128,-1,16
 767 1501 767 1501 798 1501 c 256,17,18
 829 1501 829 1501 853.5 1478.5 c 128,-1,19
 878 1456 878 1456 878 1425 c 0,0,1
1075 75 m 2,20,21
 1075 0 1075 0 1000 0 c 0,22,23
 923 0 923 0 925 106 c 1,24,25
 777 0 777 0 575 0 c 0,26,27
 390 0 390 0 244 93 c 0,28,29
 75 201 75 201 75 375 c 256,30,31
 75 549 75 549 244 657 c 0,32,33
 391 750 391 750 575 750 c 0,34,35
 777 750 777 750 925 644 c 1,36,-1
 925 675 l 2,37,38
 925 719 925 719 894 764 c 0,39,40
 802 900 802 900 575 900 c 0,41,42
 445 900 445 900 318 826 c 0,43,44
 292 811 292 811 273 811 c 0,45,46
 243 811 243 811 220.5 834.5 c 128,-1,47
 198 858 198 858 198 889 c 0,48,49
 198 963 198 963 355 1012 c 0,50,51
 477 1050 477 1050 575 1050 c 0,52,53
 759 1050 759 1050 906 957 c 0,54,55
 1075 849 1075 849 1075 675 c 2,56,-1
 1075 75 l 2,20,21
925 375 m 256,57,58
 925 446 925 446 857 506 c 0,59,60
 800 556 800 556 722 579 c 0,61,62
 654 600 654 600 575 600 c 0,63,64
 343 600 343 600 252 458 c 0,65,66
 225 416 225 416 225 375 c 256,67,68
 225 334 225 334 252 292 c 0,69,70
 343 150 343 150 575 150 c 0,71,72
 654 150 654 150 722 171 c 0,73,74
 800 194 800 194 857 244 c 0,75,76
 925 304 925 304 925 375 c 256,57,58
EndSplineSet
Validated: 33
EndChar

StartChar: Aogonek
Encoding: 260 260 197
Width: 1200
Flags: W
LayerCount: 2
Fore
SplineSet
1126 68 m 0,0,1
 1126 0 1126 0 1050 0 c 0,2,3
 988 0 988 0 944 -44 c 128,-1,4
 900 -88 900 -88 900 -150 c 256,5,6
 900 -212 900 -212 944 -256 c 128,-1,7
 988 -300 988 -300 1050 -300 c 0,8,9
 1125 -300 1125 -300 1125 -375 c 256,10,11
 1125 -450 1125 -450 1050 -450 c 0,12,13
 926 -450 926 -450 838 -362 c 128,-1,14
 750 -274 750 -274 750 -150 c 0,15,16
 750 -55 750 -55 805.5 23.5 c 128,-1,17
 861 102 861 102 951 133 c 1,18,-1
 846 450 l 1,19,-1
 354 450 l 1,20,-1
 221 51 l 2,21,22
 204 0 204 0 152 0 c 0,23,24
 74 0 74 0 74 72 c 0,25,26
 74 99 74 99 416 1113 c 0,27,28
 450 1222 450 1222 525 1437 c 0,29,30
 550 1500 550 1500 600 1500 c 0,31,32
 651 1500 651 1500 675 1437 c 0,33,34
 675 1436 675 1436 785 1111 c 0,35,36
 1126 99 1126 99 1126 68 c 0,0,1
796 600 m 1,37,-1
 600 1188 l 1,38,-1
 404 600 l 1,39,-1
 796 600 l 1,37,-1
EndSplineSet
Validated: 1
EndChar

StartChar: aogonek
Encoding: 261 261 198
Width: 1200
Flags: W
LayerCount: 2
Fore
SplineSet
1138 -386 m 0,0,1
 1138 -450 1138 -450 998 -450 c 0,2,3
 874 -450 874 -450 786 -362 c 128,-1,4
 698 -274 698 -274 698 -150 c 0,5,6
 698 -53 698 -53 754 25 c 1,7,8
 666 0 666 0 575 0 c 0,9,10
 390 0 390 0 244 93 c 0,11,12
 75 201 75 201 75 375 c 256,13,14
 75 549 75 549 244 657 c 0,15,16
 391 750 391 750 575 750 c 0,17,18
 777 750 777 750 925 644 c 1,19,-1
 925 675 l 2,20,21
 925 719 925 719 894 764 c 0,22,23
 801 900 801 900 575 900 c 0,24,25
 445 900 445 900 318 826 c 0,26,27
 292 811 292 811 273 811 c 0,28,29
 243 811 243 811 220.5 834.5 c 128,-1,30
 198 858 198 858 198 889 c 256,31,32
 198 920 198 920 231 948 c 0,33,34
 349 1050 349 1050 575 1050 c 0,35,36
 760 1050 760 1050 906 957 c 0,37,38
 1075 849 1075 849 1075 675 c 2,39,-1
 1075 355 l 2,40,41
 1075 309 1075 309 1074 215 c 128,-1,42
 1073 121 1073 121 1073 75 c 0,43,44
 1073 45 1073 45 1050 22.5 c 128,-1,45
 1027 0 1027 0 998 0 c 0,46,47
 936 0 936 0 892 -44 c 128,-1,48
 848 -88 848 -88 848 -150 c 256,49,50
 848 -212 848 -212 892 -256 c 128,-1,51
 936 -300 936 -300 998 -300 c 0,52,53
 1040 -300 1040 -300 1085 -322 c 0,54,55
 1138 -348 1138 -348 1138 -386 c 0,0,1
925 375 m 256,56,57
 925 482 925 482 798 547 c 0,58,59
 693 600 693 600 575 600 c 0,60,61
 357 600 357 600 260 470 c 0,62,63
 225 423 225 423 225 375 c 256,64,65
 225 327 225 327 260 280 c 0,66,67
 357 150 357 150 575 150 c 0,68,69
 693 150 693 150 798 203 c 0,70,71
 925 268 925 268 925 375 c 256,56,57
924 390 m 2,72,73
 926 374 926 374 924 359 c 2,74,-1
 924 390 l 2,72,73
EndSplineSet
Validated: 5
EndChar

StartChar: Cacute
Encoding: 262 262 199
Width: 1200
Flags: W
LayerCount: 2
Fore
SplineSet
903 1873 m 0,0,1
 903 1829 903 1829 861 1808 c 2,2,-1
 561 1658 l 2,3,4
 543 1649 543 1649 525 1649 c 0,5,6
 495 1649 495 1649 473.5 1673 c 128,-1,7
 452 1697 452 1697 452 1727 c 0,8,9
 452 1771 452 1771 494 1792 c 2,10,-1
 794 1942 l 2,11,12
 812 1951 812 1951 830 1951 c 0,13,14
 860 1951 860 1951 881.5 1927 c 128,-1,15
 903 1903 903 1903 903 1873 c 0,0,1
1126 273 m 0,16,17
 1126 251 1126 251 1109 226 c 0,18,19
 1039 126 1039 126 919.5 63 c 128,-1,20
 800 0 800 0 677 0 c 0,21,22
 406 0 406 0 231 246 c 0,23,24
 75 467 75 467 75 750 c 256,25,26
 75 1033 75 1033 231 1254 c 0,27,28
 406 1500 406 1500 677 1500 c 0,29,30
 800 1500 800 1500 919.5 1437 c 128,-1,31
 1039 1374 1039 1374 1109 1274 c 0,32,33
 1126 1249 1126 1249 1126 1227 c 0,34,35
 1126 1197 1126 1197 1102.5 1174 c 128,-1,36
 1079 1151 1079 1151 1048 1151 c 0,37,38
 1029 1151 1029 1151 1002.5 1169.5 c 128,-1,39
 976 1188 976 1188 971 1205 c 0,40,41
 971 1207 971 1207 950 1228 c 0,42,43
 828 1350 828 1350 677 1350 c 0,44,45
 538 1350 538 1350 422 1243 c 0,46,47
 319 1149 319 1149 268 1006 c 0,48,49
 225 886 225 886 225 750 c 256,50,51
 225 614 225 614 268 494 c 0,52,53
 319 351 319 351 421 257 c 0,54,55
 537 150 537 150 677 150 c 0,56,57
 827 150 827 150 950 272 c 0,58,59
 959 279 959 279 971 294 c 1,60,61
 972 309 972 309 1001 329 c 128,-1,62
 1030 349 1030 349 1048 349 c 0,63,64
 1079 349 1079 349 1102.5 326 c 128,-1,65
 1126 303 1126 303 1126 273 c 0,16,17
EndSplineSet
Validated: 1
EndChar

StartChar: cacute
Encoding: 263 263 200
Width: 1200
Flags: W
LayerCount: 2
Fore
SplineSet
903 1423 m 0,0,1
 903 1379 903 1379 861 1358 c 2,2,-1
 561 1208 l 2,3,4
 543 1199 543 1199 525 1199 c 0,5,6
 495 1199 495 1199 473.5 1223 c 128,-1,7
 452 1247 452 1247 452 1277 c 0,8,9
 452 1321 452 1321 494 1342 c 2,10,-1
 794 1492 l 2,11,12
 812 1501 812 1501 830 1501 c 0,13,14
 860 1501 860 1501 881.5 1477 c 128,-1,15
 903 1453 903 1453 903 1423 c 0,0,1
1126 845 m 0,16,17
 1126 814 1126 814 1103 790.5 c 128,-1,18
 1080 767 1080 767 1050 767 c 0,19,20
 1029 767 1029 767 1001 786 c 0,21,22
 840 900 840 900 677 900 c 0,23,24
 505 900 505 900 371 800 c 0,25,26
 225 691 225 691 225 525 c 256,27,28
 225 359 225 359 372 250 c 0,29,30
 505 150 505 150 677 150 c 0,31,32
 839 150 839 150 1001 263 c 0,33,34
 1028 282 1028 282 1049 282 c 0,35,36
 1080 282 1080 282 1103 258.5 c 128,-1,37
 1126 235 1126 235 1126 205 c 0,38,39
 1126 176 1126 176 1098 149 c 0,40,41
 1028 79 1028 79 902 38 c 0,42,43
 787 0 787 0 677 0 c 0,44,45
 442 0 442 0 265 143 c 0,46,47
 75 295 75 295 75 525 c 256,48,49
 75 755 75 755 265 907 c 0,50,51
 442 1050 442 1050 677 1050 c 0,52,53
 787 1050 787 1050 902 1012 c 0,54,55
 1029 970 1029 970 1099 900 c 0,56,57
 1126 873 1126 873 1126 845 c 0,16,17
EndSplineSet
Validated: 1
EndChar

StartChar: Ccircumflex
Encoding: 264 264 201
Width: 1200
Flags: W
LayerCount: 2
Fore
SplineSet
978 1727 m 0,0,1
 978 1697 978 1697 956 1673 c 128,-1,2
 934 1649 934 1649 903 1649 c 0,3,4
 882 1649 882 1649 861 1663 c 2,5,-1
 677 1785 l 1,6,-1
 494 1663 l 2,7,8
 473 1649 473 1649 451 1649 c 0,9,10
 421 1649 421 1649 398.5 1673 c 128,-1,11
 376 1697 376 1697 376 1727 c 0,12,13
 376 1764 376 1764 411 1787 c 2,14,-1
 630 1933 l 2,15,16
 657 1951 657 1951 677 1951 c 0,17,18
 698 1951 698 1951 725 1933 c 2,19,-1
 944 1787 l 2,20,21
 978 1764 978 1764 978 1727 c 0,0,1
1126 273 m 0,22,23
 1126 251 1126 251 1109 226 c 0,24,25
 1039 126 1039 126 919.5 63 c 128,-1,26
 800 0 800 0 677 0 c 0,27,28
 406 0 406 0 231 246 c 0,29,30
 75 467 75 467 75 750 c 256,31,32
 75 1033 75 1033 231 1254 c 0,33,34
 406 1500 406 1500 677 1500 c 0,35,36
 800 1500 800 1500 919.5 1437 c 128,-1,37
 1039 1374 1039 1374 1109 1274 c 0,38,39
 1126 1249 1126 1249 1126 1227 c 0,40,41
 1126 1197 1126 1197 1102.5 1174 c 128,-1,42
 1079 1151 1079 1151 1048 1151 c 0,43,44
 1029 1151 1029 1151 1002.5 1169.5 c 128,-1,45
 976 1188 976 1188 971 1205 c 0,46,47
 971 1207 971 1207 950 1228 c 0,48,49
 828 1350 828 1350 677 1350 c 0,50,51
 538 1350 538 1350 422 1243 c 0,52,53
 319 1149 319 1149 268 1006 c 0,54,55
 225 886 225 886 225 750 c 256,56,57
 225 614 225 614 268 494 c 0,58,59
 319 351 319 351 421 257 c 0,60,61
 537 150 537 150 677 150 c 0,62,63
 827 150 827 150 950 272 c 0,64,65
 959 279 959 279 971 294 c 1,66,67
 972 309 972 309 1001 329 c 128,-1,68
 1030 349 1030 349 1048 349 c 0,69,70
 1079 349 1079 349 1102.5 326 c 128,-1,71
 1126 303 1126 303 1126 273 c 0,22,23
EndSplineSet
Validated: 1
EndChar

